<?xml version="1.0" encoding="UTF-8"?>
<!-- Generator: Adobe Illustrator 24.3.0, SVG Export Plug-In . SVG Version: 6.00 Build 0)  -->
<svg xmlns="http://www.w3.org/2000/svg" xmlns:xlink="http://www.w3.org/1999/xlink" version="1.1" id="Layer_1" x="0px" y="0px" viewBox="0 0 150 110" style="enable-background:new 0 0 150 110;" xml:space="preserve">
<style type="text/css">
	.st0{display:none;}
	.st1{display:inline;fill:#131313;}
	.st2{display:inline;}
	.st3{fill-rule:evenodd;clip-rule:evenodd;}
	.st4{fill:none;stroke:#000000;stroke-miterlimit:10;}
</style>
<g id="Layer_1_1_" class="st0">
	<path class="st1" d="M17.2,51.5h0.4c6.9-0.5,11.9-0.7,20.1-0.9h0.8c0.8,0,1.8,0,2.8,0c10,0,26.2,1,30.4,1.8   c1.7,0.3,2.4,0.7,2.7,1.3c-6.4,0.3-27.5,0.7-44,0.7c-11,0-18.3-0.1-20.7-0.4C10.3,52.1,12.1,51.9,17.2,51.5z M9.5,55.2L9.5,55.2   c0,0.2,0,0.3,0,0.5s0,0.4,0,0.6l0,0l0,0V57c-0.2,3-0.3,6.3,1.5,8.1c0.7,0.7,1.6,1.2,2.6,1.3h60c0.3,0,0.6-0.2,0.9-0.3V66   c0-1.1,0-2,0-2.8c0-1.3,0-2.1,0-2.8c0-0.5,0-0.9,0-1.3v-0.6c0-0.2,0-0.5,0-0.7c0-1.1,0-2.2,0-3.1v-0.5c-6.3,0.3-27.5,0.7-44.2,0.7   c-11.1,0-18.4-0.2-20.8-0.4C9.5,54.7,9.5,55,9.5,55.2z M78.2,51.8C82.5,51,98.7,50,108.7,50c1,0,1.9,0,2.8,0h0.8   c4.1,0.1,7.3,0.2,10.5,0.3c-0.2-5.8-0.6-20.2-0.6-22.6c0-1.5-0.7-2-2.8-2c-0.6,0-1.3,0-2.1,0.1s-1.4,0.1-2.2,0.1   c-4.6,0.1-15.6,0.3-19.8,0.3c-2.2,0-5.3-0.1-8.3-0.3c-2.7-0.1-5.2-0.2-6.8-0.2c-3.8,0-4.4,1.6-4.4,2.8c-0.3,4.6-0.2,20.1-0.1,24.3   C76.4,52.2,77.2,51.9,78.2,51.8z M139.8,72.7v-4.5c0-0.6-0.4-1.2-1-1.2H137c-0.6,0.1-1.2,0.2-1.8,0.2h-0.4c-3.9,0-8.4,0-13.2,0.1   c-5.2,0-10.6,0.1-15.6,0.1c-2.8,0-5.3,0-7.4,0c-3,0-6.1,0-9.1,0c-2.1,0-4,0.1-5.8,0.1c-2.4,0.1-4.8,0-7.2-0.4h-2.6   c-2.4,0.3-4.7,0.5-7.1,0.4l0,0c-1.8,0-3.8,0-5.8-0.1c-3,0-6.2-0.1-9.1,0c-2.2,0-4.6,0-7.4,0c-5,0-10.4,0-15.6-0.1   c-4.8,0-9.3-0.1-13.2-0.1c-0.8,0-1.6,0-2.4-0.2h-1.2c-0.6,0.1-1,0.6-1,1.2v4.5c0,0.6,0.4,1.2,1,1.2H139   C139.4,73.9,139.8,73.4,139.8,72.7L139.8,72.7L139.8,72.7z M37.7,50h0.8c0.8,0,1.8,0,2.8,0c10,0,26.2,1,30.5,1.8   c0.9,0.1,1.8,0.5,2.6,1c0-4.2,0.1-19.6-0.1-24.2c-0.1-1.2-0.6-2.8-4.4-2.8c-1.6,0-4.1,0.1-6.8,0.2c-3,0.1-6.1,0.3-8.3,0.3   c-4.2,0-15.4-0.2-19.8-0.3c-0.8,0-1.5-0.1-2.2-0.1s-1.5-0.1-2.1-0.1c-2.1,0-2.8,0.5-2.8,2c0,2.4-0.4,16.8-0.6,22.6   C30.3,50.2,33.6,50.2,37.7,50z M10.2,72.7v-4.5c0-0.6,0.3-1.1,0.7-1.5c0-0.2,0-0.4,0-0.6c-0.2-0.2-0.5-0.3-0.7-0.6   c-1.7-1.8-1.6-4.9-1.5-7.7c0-0.5,0-1,0.1-1.5c0-0.3,0-0.6,0-0.8v-0.1c0-0.2,0.1-0.4,0.2-0.6c0-0.1,0-0.1,0-0.2c0-0.1,0-0.2,0.1-0.3   c0.1-1.3,1-2.3,2.2-2.6c0-0.3,0-0.6,0.1-0.8c0.1-1.1,0.7-2.1,1.6-2.6c2.6-1.2,9.4-1.7,13.8-1.9c0-1,0.1-2.1,0.1-3.2   c-1.8,0.2-11.7,1.2-15.1,2.1c-1.3,0.4-2.3,1.2-2.9,2.4c-0.4,0.8-0.6,1.7-0.6,2.7c-0.8,10.6,0,34.4,0,34.4h2.6c0-1.9,0-6,0-10.6   C10.4,73.8,10.2,73.3,10.2,72.7z M141.8,50.4c0-0.9-0.2-1.8-0.6-2.7c-0.6-1.2-1.6-2-2.9-2.4c-3.4-0.9-13.4-1.9-15.1-2.1   c0,1.1,0.1,2.2,0.1,3.2c4.4,0.2,11.2,0.8,13.8,1.9c1,0.5,1.6,1.5,1.7,2.6c0,0.2,0,0.5,0,0.8c1.2,0.3,2.2,1.3,2.3,2.6   c0,0.1,0.1,0.2,0.1,0.4s0,0.1,0,0.1c0,0.2,0.1,0.4,0.1,0.7l0,0c0,0.2,0,0.5,0,0.8c0,0.5,0,1,0.1,1.5c0.1,2.8,0.3,5.9-1.5,7.7   c-0.2,0.2-0.4,0.4-0.7,0.6v0.3c0.8,0.2,1.3,0.9,1.3,1.7v4.5c0,0.8-0.5,1.5-1.2,1.7c0,4.6,0,8.4,0,10.3h2.6   C141.7,84.7,142.5,61,141.8,50.4z M140.6,57v-0.6c0-0.2,0-0.4,0-0.6s0-0.3,0-0.5v-0.1c0-0.3-0.1-0.5-0.1-0.8   c-2.4,0.3-9.7,0.4-20.8,0.4c-16.7,0-37.9-0.3-44.2-0.7v0.5c0,0.8,0,2,0,3.1s0,1.7,0,2.7c0,1.1,0,2.7,0,5.6c0,0,0,0,0,0.1   c0.2,0.2,0.5,0.3,0.8,0.3h60c1-0.1,1.9-0.6,2.6-1.3C140.8,63.3,140.7,60,140.6,57z M132.8,51.5h-0.4c-6.9-0.5-11.8-0.7-20.1-0.9   h-0.8c-0.8,0-1.8,0-2.8,0c-10,0-26.2,1-30.4,1.8c-1.7,0.3-2.4,0.7-2.7,1.3c6.4,0.3,27.5,0.7,44,0.7c11,0,18.3-0.1,20.7-0.4   C139.7,52.1,137.9,51.9,132.8,51.5L132.8,51.5z"></path>
</g>
<g id="armchair" class="st0">
	<path class="st2" d="M114.4,59.3c-6.6-10-14.7-4.4-25.4-1.9c-10.7,2.6-8.1-14.3,1.4-29.3c9.7-15,0.2-20.4-7.1-15.5   c-4.8,3.3-29.1,14.2-33.3,3.7c-1.2-2.8-2.2-5.7-4-7.5c-0.4-0.3-0.6-0.1-0.5,0.3c0.3,0.9,0.5,1.5,0.9,3.1c0.4,1.6,0.9,3.6,1.3,5.8   c0.5,2.2,0.9,4.8,1.2,7.6c0.3,2.8,0.6,5.9,0.8,9.2c0.1,1.6,0.1,3.3,0.2,5c0,0.9,0,1.7,0,2.6s0,1.7,0,2.6c0,1.7-0.1,3.5,0,5.3   c0,0.9,0.1,1.7,0.2,2.6c0.1,0.9,0.2,1.7,0.4,2.5c0.1,0.4,0.2,0.8,0.3,1.1c0.1,0.3,0.3,0.6,0.4,0.7s0.2,0.1,0.4,0.2   c0.2,0,0.5,0,0.9-0.1c0.8-0.2,1.5-0.6,2.4-1c0.9-0.4,1.7-0.8,2.7-1.2c1.8-0.7,4-1.2,6-1.2c1.9,0,3.9,0.2,5.8,0.6   c1.9,0.4,3.8,1.1,5.5,1.9c1.7,0.9,3.3,1.9,4.7,3c2.9,2.1,5.4,4.5,7.8,6.8c2.3,2.2,4.5,4.4,6.5,6.4c1,0.9,2,1.6,3.1,2.3   c1.1,0.7,2.1,1.2,3.2,1.4c2.1,0.7,4.1,0.8,5.6,0.4c0.8-0.2,1.4-0.4,2-0.7c0.6-0.3,1.1-0.5,1.4-0.8c0.2-0.1,0.4-0.2,0.5-0.3   c0.1-0.1,0.3-0.2,0.3-0.3c0.2-0.1,0.3-0.2,0.3-0.2l0,0h0.1v0.1c0,0-0.1,0.1-0.3,0.2c-0.1,0.1-0.2,0.2-0.3,0.3   c-0.1,0.1-0.3,0.2-0.5,0.4c-0.7,0.5-1.8,1.3-3.5,1.6s-3.7,0.5-5.9-0.2c-2.2-0.7-4.5-1.8-6.8-3.8c-2-1.9-4.3-4.1-6.7-6.2   c-2.4-2.1-4.9-4.4-7.8-6.5c-1.4-1.1-2.9-2-4.5-2.8c-1.6-0.8-3.4-1.4-5.1-1.7c-1.8-0.4-3.7-0.5-5.5-0.6c-1.8,0-3.7,0.4-5.4,1.1   c-0.9,0.3-1.7,0.7-2.6,1.1c-0.9,0.4-1.7,0.8-2.6,1.1c-0.5,0.1-1,0.2-1.4,0.2s-1-0.3-1.4-0.6c-0.4-0.4-0.6-0.8-0.8-1.3   c-0.2-0.5-0.3-0.9-0.4-1.4c-0.4-1.8-0.5-3.7-0.5-5.5s0-3.6,0.1-5.4c0.1-3.5,0.2-7,0-10.1c-0.1-3.2-0.3-6.3-0.5-9.1   c-0.3-2.8-0.6-5.4-0.9-7.6s-0.7-4.3-1-5.9c-0.4-2-0.6-3.1-1.1-3.8c-1.5-1.5-3.5-1.9-5.8-1.2c-3.6,1.3-6.2,8.4-5.4,33   c0.7,23.5,13.6,52.7,39.3,55.2V98c-14.4,0.1-25.7,1.3-25.7,2.7s12.4,2.7,27.5,2.7s27.5-1.2,27.5-2.7c0-1.4-11.3-2.6-25.7-2.7v-2.6   C104.9,95.3,122.3,71.3,114.4,59.3z"></path>
</g>
<g id="mirror_1_" class="st0">
	<g class="st2">
		<path d="M63.1,33.7c0.1,0,0.1,0,0.2,0c1.9,0.1,3.5,1.8,3.5,3.9v45.3l0.6,5.1l2.2,1l28.4-4.9L87.9,1.2L59.4,0l-1.9,1.6l3.8,32.7    C61.8,33.9,62.5,33.7,63.1,33.7z M83.6,5.8l9.6,73.9l-18.9,3.1L65,5.3L83.6,5.8z"></path>
		<path d="M73.7,105l-3.9-1.7L65.7,96V37.6c0-1.4-1-2.6-2.3-2.7h-0.1c-1.4,0-2.5,1.1-2.5,2.5v56.7l-3.1,2.6l-2.8-1.1    c-0.2-0.1-0.5-0.1-0.7-0.1c-0.2,0-0.6,0.1-0.9,0.2c-0.6,0.3-1.1,1-1.1,1.7v1.4c0,0.7,0.3,1.4,1,1.7l2.5,1.2c0.5,0.2,1,0.3,1.6,0.3    c0.5,0,1-0.1,1.5-0.3c0.6-0.2,1.2-0.6,1.9-0.6c0.5,0,1,0.1,1.6,0.3c1.5,0.9,2.5,2.8,2.8,4.2c0.2,0.9,1,1.6,1.8,1.9l5.4,2.3    c0.2,0.2,0.5,0.2,0.7,0.2s0.6-0.1,0.9-0.2c0.5-0.2,0.9-0.9,0.9-1.4v-2.1C74.6,105.8,74.2,105.3,73.7,105z M62.9,96.7    c-0.6,0-1-0.5-1-1c0-0.6,0.5-1,1-1c0.6,0,1,0.5,1,1C63.9,96.1,63.4,96.7,62.9,96.7z M63.1,39.4c-0.6,0-1-0.5-1-1c0-0.6,0.5-1,1-1    c0.6,0,1,0.5,1,1C64.1,39.1,63.5,39.4,63.1,39.4z"></path>
		<path d="M99.8,98.3l-3.2-1.4l-3.4-6.1v-4.2l-2.6,0.6c0.2,0.2,0.2,0.5,0.2,0.9v3.9c0,0.6-0.3,1.1-1,1.2l-6.4,1.6l1,0.5    c0.5,0.2,1.1,0.3,1.7,0.3c0.5,0,1-0.1,1.5-0.3c0.3-0.2,0.9-0.3,1.5-0.3c0.3,0,0.9,0.1,1.4,0.3c1.1,0.6,1.8,2.1,2.2,3.2    c0.3,1,1.1,1.7,1.9,2.2l4.2,1.8c0.1,0.1,0.3,0.1,0.5,0.1c0.2,0,0.5-0.1,0.7-0.2c0.3-0.2,0.6-0.7,0.6-1.2v-1.7    C100.6,99,100.3,98.6,99.8,98.3z"></path>
		<polygon points="66.9,95.7 67.9,97.4 89.7,92.1 89.7,88.1 66.9,93.3   "></polygon>
	</g>
</g>
<g id="mirror" class="st0">
	<g transform="translate(0.000000,1096.000000) scale(0.100000,-0.100000)" class="st2">
		<path d="M789.4,10959c-18.8-3.7-35.3-20.4-39.2-40c-0.8-3.6-1.7-6-2.2-5.3c-0.3,0.7-3.3,2.1-6.5,3c-13.1,4.1-26.4-3.2-29.8-16.6    l-1-4.3l-6.6,3.5c-12.4,6.5-27.7,3.7-36.3-6.7l-3.6-4.1l-3.2,2c-8.6,5.3-19.9-0.8-19.9-10.5c0-1.6-0.9-2-6.2-2.1    c-3.5,0-7.7-0.8-9.9-1.8c-3.5-1.6-10.7-1.8-75.6-2.1l-71.8-0.3l26.6-23.9l26.6-24l262.1,0.1h262.1l26.3,23.9l26.3,23.9l-70.3,0.6    c-77.9,0.7-78.1,0.7-79.5,7.1c-0.9,4.8-2.9,7.7-6.3,9.6c-4.1,2.2-9.4,2.1-13.3-0.3l-3.1-1.8l-5.5,5.4c-10.1,9.9-22.6,11.6-35.4,5    l-6.2-3.2v2.6c0,4-3.8,10.5-8.2,14.2c-7.3,6-18.3,7.1-25.9,2.4l-3.5-2.1l-1.2,6.1C843.8,10946.8,817.1,10964.5,789.4,10959z"></path>
		<path d="M471.3,10370.3c0-274.3,0.1-498.6,0.3-498.3c0.1,0.2,12,12.3,26.3,26.8l26,26.4v448.5v448.6l-24.4,22    c-13.5,12-25.2,22.6-26.3,23.3C471.4,10869,471.3,10852.2,471.3,10370.3z"></path>
		<path d="M1087.4,10845.5l-25.8-23.4l-0.3-447.9l-0.2-448l26-27l26.2-27l0.3,249c0.1,137.1,0.1,361.3,0,498.5l-0.3,249.1    L1087.4,10845.5z"></path>
		<path d="M546.5,10373.5v-427.6h246.6h246.6l-0.2,427.4l-0.3,427.3l-246.2,0.3l-246.3,0.2V10373.5z M1024.6,10373.1V9960H792.5    H560.4v413.1v413.1h232.1h232.1V10373.1z"></path>
		<path d="M502.7,9893.4c-14.4-14.7-26.2-27.1-26.2-27.4c0-0.3,142.2-0.7,315.8-0.7s315.8,0.3,315.8,0.7c0,0.3-11.8,12.7-26,27.4    l-25.9,26.7H792.4H528.5L502.7,9893.4z"></path>
	</g>
</g>
<g id="brands" class="st0">
	<path class="st2" d="M103.1,59.7l-27.6,47.9c-1.3,2.3-4.2,3.1-6.3,1.9L31,87.2c-2.3-1.3-3.1-4.1-1.9-6.4L56.7,33l22.4-14.1L90,25.1   c0.7-2,0.6-2.1,1-4.2c1-4.4,2-12.2,10.8-18.9c3-2.5,7.6-2.5,11.7-0.4c2.3,1,4.3,2.8,5.7,4.5c1.4,2.1,2.1,4.4,2.3,6.6   c-0.1,2.8-1.4,6.4-7.4,9.2c-4.7,2.1-8.7,2.8-12.4,3.1c-3.3,0.4-5.8,0.7-7.9,2.1l10.6,6.2L103.1,59.7z M91.9,45.6   c2.3-3.9,1.5-8.6-1.1-11.7L86,31c-4.3-1.4-9.1,0.4-11.6,4.5c-2.8,4.8-1.1,11,3.7,13.8C83,52,89.3,50.5,91.9,45.6z M93.3,21.2   c0,0.7-0.1,1.1-0.3,1.8c-0.1,0.7,0,1.1-0.3,2c2.5-1.8,5.3-1.9,8.7-2.1c3.4-0.4,7.4-1,11.7-3c4-1.8,5.9-4.3,6.2-7.2   c0-3.3-2.4-6.7-5.9-8.7c-0.1-0.1-0.4-0.3-0.7-0.4c-3.4-1.8-6.8-1.8-9.4,0.3C95.1,9.9,94,16.9,93.3,21.2z"></path>
</g>
<g id="styles" class="st0">
	<g class="st2">
		<path d="M54.6,0.2h-22c-2.6,0-4.9,2.1-4.9,4.9v99.7c0,2.6,2.1,4.9,4.9,4.9h21.9c2.6,0,4.9-2.1,4.9-4.9V5.1    C59.4,2.5,57.3,0.2,54.6,0.2z M35.6,105c-1.9,0-3.4-1.5-3.4-3.4c0-1.9,1.5-3.4,3.4-3.4s3.4,1.5,3.4,3.4    C39,103.5,37.5,105,35.6,105z M33,76.8v-1l5.7,5.7h-1L33,76.8z M35.7,81.5c-1.4-0.1-2.5-1.3-2.8-2.8L35.7,81.5z M40.5,81.5    l-7.7-7.7v-1l8.7,8.7H40.5z M43.5,81.5L33,70.9v-1l11.6,11.6C44.6,81.5,43.5,81.5,43.5,81.5z M46.4,81.5L33,68v-1l14.6,14.6    L46.4,81.5L46.4,81.5z M49.5,81.5L33,65v-1l17.5,17.5H49.5z M52.3,81.5L33,62.1l0,0c0-0.3,0-0.6,0.1-0.9l20.1,20.1    C53,81.5,52.7,81.5,52.3,81.5z M53.2,54.2c-0.3,0-0.6,0.1-1,0.1h-1.8L32.9,36.7v-1.8c0-0.4,0-0.6,0.1-1L53.2,54.2z M33.9,32.8    c0.5-0.5,1.3-0.9,2-0.9l19.5,19.5c0,0.8-0.4,1.4-0.9,2L33.9,32.8z M48.6,54.3h-2.9L33,41.5v-2.9L48.6,54.3z M43.8,54.3h-2.9l-8-8    v-2.9L43.8,54.3z M39,54.3h-2.9L32.9,51v-2.9L39,54.3z M54.5,80.6L33.9,60c0.1-0.1,0.4-0.4,0.5-0.5L54.9,80    C54.7,80.2,54.6,80.5,54.5,80.6z M55.4,78.6L35.9,59.1h1l18.5,18.5V78.6z M55.4,75.6L38.9,59.1h1l15.5,15.5V75.6z M55.4,72.7    L41.8,59.1h1l12.6,12.6V72.7L55.4,72.7z M55.4,69.8L44.8,59.2h1l9.6,9.6C55.4,68.6,55.4,69.8,55.4,69.8z M55.4,66.8l-7.7-7.7h1    l6.7,6.7C55.4,65.8,55.4,66.8,55.4,66.8z M55.4,63.9l-4.7-4.7h1l3.6,3.6C55.4,62.9,55.4,63.9,55.4,63.9z M55.4,49.5L37.8,31.9h2.9    l14.7,14.7V49.5L55.4,49.5z M55.4,44.8L42.5,31.9h2.9l9.9,9.9V44.8L55.4,44.8z M55.4,40l-8-8h2.9l5.2,5.2V40z M55.4,35.2l-3.3-3.3    h0.1c1.6,0,3,1.4,3,3C55.4,34.9,55.4,35.2,55.4,35.2z M55.4,24c0,1.6-1.4,3-3,3H36c-1.8,0-3-1.4-3-3V7.8c0-1.8,1.4-3,3-3h16.2    c1.8,0,3,1.4,3,3L55.4,24L55.4,24z"></path>
		<path d="M80.1,8.7L61.8,3.8c0.1,0.5,0.1,1,0.1,1.5v3.1l14.8,4c1.6,0.5,2.6,2.1,2.1,3.8l-4.2,15.7c-0.4,1.6-2.1,2.6-3.8,2.1    l-9.1-2.4v5l1.3,0.3l7,12.2l-0.8,2.8l-7.5-13v2.8l7,12.1l-0.8,2.8l-6.3-10.8v2.8l5.8,9.9c-0.3,0.8-0.8,1.3-1.4,1.6l-4.4-7.5v2.8    l3,5.3c-0.3,0-0.6,0-1-0.1L62.3,60l-0.4-0.6v5.5h0.3l2.6,4.5l-0.3,1L62,66v2.8l2,3.5l-0.3,1L62,70.2v2.8l1.3,2.3l-0.3,1l-1-1.8    v2.8l0.5,0.9l-0.3,1L62,78.6v17.2l21.6-80.9C84.3,11.9,82.8,9.3,80.1,8.7z M70.7,47.1L65,37.3l2.8,0.8l3.6,6.3L70.7,47.1z     M72,42.4L72,42.4l-2.3-3.8h0.1C71.5,39,72.3,40.7,72,42.4z"></path>
		<path d="M80.1,8.7L61.8,3.8c0.1,0.5,0.1,1,0.1,1.5v3.1l14.8,4c1.6,0.5,2.6,2.1,2.1,3.8l-4.2,15.7c-0.4,1.6-2.1,2.6-3.8,2.1    l-9.1-2.4v5l1.3,0.3l7,12.2l-0.8,2.8l-7.5-13v2.8l7,12.1l-0.8,2.8l-6.3-10.8v2.8l5.8,9.9c-0.3,0.8-0.8,1.3-1.4,1.6l-4.4-7.5v2.8    l3,5.3c-0.3,0-0.6,0-1-0.1L62.3,60l-0.4-0.6v5.5h0.3l2.6,4.5l-0.3,1L62,66v2.8l2,3.5l-0.3,1L62,70.2v2.8l1.3,2.3l-0.3,1l-1-1.8    v2.8l0.5,0.9l-0.3,1L62,78.6v17.2l21.6-80.9C84.3,11.9,82.8,9.3,80.1,8.7z M70.7,47.1L65,37.3l2.8,0.8l3.6,6.3L70.7,47.1z     M72,42.4L72,42.4l-2.3-3.8h0.1C71.5,39,72.3,40.7,72,42.4z"></path>
		<path d="M102.8,23.6l-16.1-9.3l-0.4-0.3c0,0.4-0.1,0.8-0.3,1.1l-0.9,3.4l13.3,7.7c1.5,0.9,2,2.8,1.1,4.2l-8.2,14.1    c-0.9,1.5-2.8,2-4.2,1.1l-8.2-4.8l-1.3,4.8l1.1,0.6l3.6,13.6l-1.4,2.5l-3.9-14.5l-0.8,2.6l3.6,13.6l-1.4,2.5l-3.3-12.1l-0.8,2.6    l3,11.2c-0.4,0.6-1,1-1.8,1.3l-2.3-8.6l-0.8,2.6l1.6,5.9c-0.3-0.1-0.6-0.1-0.9-0.4l-1.5-0.9l-0.3-0.8L70.7,73l0.3,0.1l1.4,5    l-0.5,0.9l-1.4-5l-0.8,2.6l1,4l-0.5,0.9l-1-3.5l-0.8,2.6l0.6,2.5l-0.5,0.9l-0.5-2l-0.8,2.6l0.4,1l-0.5,0.9l-0.1-0.5l-4.4,17    l41.9-72.9C105.8,27.9,105,24.9,102.8,23.6z M83.5,58.3l-2.9-10.9l2.5,1.4l1.9,7L83.5,58.3z M86.1,54.1L86.1,54.1l-1.3-4.3    l0.1,0.1C86.4,50.7,86.9,52.5,86.1,54.1z"></path>
		<path d="M120.9,43.1l-13.5-13.5c-0.1,0.6-0.4,1.3-0.8,1.9l-1.4,2.4l10.8,10.8c1.1,1.3,1.1,3.1,0,4.4l-11.4,11.4    c-1.1,1.3-3.1,1.3-4.3,0l-6.5-6.5l-2.5,4.3l0.8,0.8v14.1l-2,2V60.5l-1.4,2.4v13.7l-2.1,1.9V66.3l-1.3,2.4v11.2    c-0.5,0.5-1.3,0.8-2,0.8v-8.4l-1.4,2.3v5.8c-0.3-0.1-0.5-0.4-0.8-0.6l-1.3-1.3v-0.5l-2.6,4.7l0,0v5.3l-0.8,0.8v-4.8l-1.4,2.4v3.8    l-0.8,0.8v-3.3L73,89.8V92l-0.8,0.8V91L71,93.3V94l-0.8,0.8v-0.3L62,108.8l58.9-58.9C122.8,48,122.8,45,120.9,43.1z M95.4,69.7    l-2,2V60.3l2,2V69.7z M96.9,68.1L96.9,68.1l-0.1-4.4l0.1,0.1C98.1,65,98.1,67,96.9,68.1z"></path>
	</g>
</g>
<g id="FAQ_1_" class="st0">
	<g class="st2">
		<g>
			<path class="st3" d="M89.2,81.9H70.1c-0.1-2.6-0.1-4.4-0.1-5c0-6.2,1-11.1,3.1-15.1c2.1-4,6.1-8.5,12.3-13.4     c6.1-5,9.8-8.2,11.1-9.7c1.8-2.4,2.8-5.1,2.8-8.1c0-4-1.7-7.6-5-10.4c-3.2-2.9-7.6-4.3-13.2-4.3c-5.4,0-9.8,1.5-13.6,4.5     c-3.6,3.1-6.1,7.7-7.4,13.8l-19.5-2.5c0.6-8.7,4.5-16.3,11.5-22.4C59.2,3.1,68.5,0,80,0c12.2,0,21.8,3.2,29,9.4     c7.1,6.3,10.7,13.6,10.7,21.9c0,4.6-1.4,9-4,13.1c-2.5,4-8.1,9.6-16.8,16.7c-4.4,3.7-7.1,6.7-8.3,9     C89.6,72.2,89.1,76.2,89.2,81.9L89.2,81.9z M70.1,109.8V89.1h19.1v20.6L70.1,109.8L70.1,109.8z"></path>
		</g>
	</g>
</g>
<g id="FAQ" class="st0">
	<g class="st2">
		<circle cx="81.3" cy="98.4" r="11.5"></circle>
		<path d="M81.3,0C62.3,0,47,15.5,47,34.3c0,0.7,0.5,1.2,1.2,1.2h18.7c0.7,0,1.2-0.5,1.2-1.2c0-7.2,5.9-13.2,13.2-13.2    c7.2,0,13.2,5.9,13.2,13.2c0,3.5-1.3,6.8-3.8,9.3c-0.3,0.3-1,0.9-1.6,1.4l-0.4,0.3c-6.3,5-17.8,14.4-17.8,34.7    c0,0.7,0.5,1.2,1.2,1.2h18.7c0.7,0,1.2-0.5,1.2-1.2c0-10.2,5-14.3,10.1-18.2c1.3-1.1,2.5-2.1,3.6-3.2c6.5-6.5,10.1-15.1,10.1-24.2    C115.8,15.4,100.3,0,81.3,0z"></path>
	</g>
</g>
<g id="contact_us" class="st0">
	<g class="st2">
		<path d="M123.7,86.8c-9.9-7-25.1-3.3-34.7-15.9c0,0-3.6-4,4.5-13.6s8.7-25.1,6.6-37.1C98.2,8.3,86.9,0.3,75.2,0.3    s-22.9,7.9-25,19.9c-2,11.9-1.3,27.4,6.6,37.1c3.2,3.8,4.5,6.9,5,9c0.9-0.4,2.4-0.9,4.2-0.9c2.2,0,4.2,0.6,6.1,1.8    c0.3,0.1,20.1,12.4,14,23.1c-3.3,5.9-9.9,9.3-17.6,9.3c-4.3,0-8.9-1-13.6-3.2c-8.2-3.6-14.1-8.5-18.9-13.5c-3.4,0.9-6.6,2-9.4,4    c-9.9,7-7.5,23.2-7.5,23.2h56.1h56.1C131.2,110,133.7,94,123.7,86.8z"></path>
		<path d="M56.4,74L56.4,74c-9.2,0-18-15.7-20-21.9c-2-6.2,1.8-9,3.2-11.2c1.3-2.2,3.8-5.5,3.8-5.5c1.1-3.7-3.8-12.4-6.9-16.1    c-2.4-2.9-4.3-3.3-5.1-3.3c-0.3,0-0.3,0-0.3,0c-4.8,0.5-9.2,7.9-9.2,7.9c-8.7,18.7,3.6,37.5,9,44.6c2.9,3.8,6.4,8.5,11,13    c6.1-1.4,12.2-3.1,17.2-8.2C57.7,73.8,56.4,74,56.4,74z"></path>
		<path d="M68.6,94.4c6.8,0,11.2-3.3,13.1-6.8c2.9-5.1-8.7-14-12.1-16.1c-1.3-0.8-2.5-1-3.6-1c-1.5,0-2.7,0.6-2.7,0.6    c-1.3,1.1-2.8,1.8-4.1,2.2c-5,5.1-11.2,6.8-17.2,8.2c4,3.8,8.8,7.5,15,10.2C61.4,93.6,65.4,94.4,68.6,94.4z"></path>
	</g>
</g>
<g id="design_help" class="st0">
	<g class="st2">
		<path d="M70.1,89.5c0-1.9,0.5-3.6,1.4-5.2c0.6-0.7,1.1-1.4,1.7-2.1c0.6-0.6,1.3-1.2,2-1.5c-10.2,0-20.3,0-30.5,0    c-3.2,0-3.2,0-2.5,3.2c0.2,0.8,0.5,1.8,0.7,2.6c0.8,2.4,2.1,3.7,5,3.6c7.5-0.1,14.8-0.1,22.2,0V89.5z"></path>
		<path d="M79.4,99.9c-1.3-0.5-2.5-0.4-3.9,0c0.8,3.1,1.8,6.1,2.6,9.1c0.2,0.7,0.6,1.2,1.4,0.9c0.8-0.2,0.8-0.8,0.7-1.5    C79.9,105.4,79.6,102.7,79.4,99.9z"></path>
		<g>
			<path d="M112.5,12.6c4.7,0,9.5,0,14.2,0c1.7,0,2.3,0.5,2.4,2.1c0.4,5,0.9,10,1.5,14.8c0.2,2-0.2,3-2.6,3.2     c-10.8,1.3-21.5,1.2-32.3-0.1c-1.5-0.1-2.1-0.7-1.9-2.4c0.6-5.2,1.1-10.4,1.5-15.6c0.1-1.7,0.8-2.4,2.6-2.3     C102.9,12.7,107.6,12.6,112.5,12.6z"></path>
			<path d="M61.5,98.4c0,0.1-12.6,0-18.9,0c-3.1,0-5.6-1.3-6.6-4.2c-2.4-6.3-4.7-12.7-5.6-19.5c-0.1-1.3-0.1-2.6,0.2-3.9     c0.5-1.4,1.2-2.6,2.7-2.8c1.5-0.2,2.6,0.7,3.3,2c1.9,3.4,2.7,7.1,3.4,10.9c0.1,0.9,0.2,2,0.4,3c1.3,5.7,2.7,7.7,9.1,7.5     c8.7-0.2,17.3-0.1,26,0c3,0,4.7-1.2,5.9-3.8c0.8-2,1.4-4,1.5-6.2c0.4-3.7,1.4-7.2,3-10.6c0.7-1.5,1.9-3.2,3.9-2.7     c2,0.5,2.8,2.3,3.1,4.3c0.2,2.6-0.5,5-1.1,7.5c-1.1,4.3-2.4,8.3-3.9,12.3c-1.9,5-3.8,6.3-9.3,6.3c-5.8,0-22.7-0.1-28.5-0.1     C42.7,98.4,61.5,98.4,61.5,98.4z"></path>
			<path d="M78.9,80.7c-8.5,0-17,0-25.5,0c0.1,0.7,0.2,1.4,0.2,2.1v0.8c0,1.9-0.5,3.6-1.4,5.2c-0.2,0.4-0.6,0.7-0.8,1.2     c8.2,0,16.3-0.1,24.5,0.1c2.8,0.1,4.3-1.2,5-3.6c0.2-0.8,0.5-1.8,0.7-2.6C82.2,80.7,82.1,80.7,78.9,80.7z"></path>
			<path d="M44,99.9c1.3-0.5,2.5-0.4,3.9,0c-0.9,3.1-1.8,6.1-2.6,9c-0.2,0.7-0.6,1.2-1.4,0.9c-0.8-0.2-0.8-0.8-0.7-1.5     C43.4,105.6,43.7,102.7,44,99.9z"></path>
			<path d="M72.1,75.2c0-0.6,0.1-1.2,0.4-1.8c-1.1-0.5-1.9-1.2-2.7-1.9c-0.6-0.7-1.1-1.4-1.7-2.1c-0.7-1.2-1.2-2.5-1.2-3.8     c-0.4-1.3-0.2-2.7,0.2-4c0.4-1.3,0.9-2.5,1.8-3.4c0.2-0.5,0.6-0.8,0.9-1.2c0,0-0.1,0-0.1,0.1l0.1-0.1c0.2-0.2,0.4-0.4,0.6-0.5     c0.1-0.1,0.2-0.2,0.4-0.4c0.8-1.1,1.8-1.9,3-2.6c0.8-0.4,1.7-0.7,2.5-1.1c0.9-0.2,1.9-0.4,2.8-0.4l0,0c-5.8-0.1-11.6,0-17.5,0     c-6.2,0-12.5,0-18.6,0c-4.9,0-7.2,2.4-7.2,7.2c0,2.1,0,4.3,0,6.4c0,0.6-0.1,1.3,0.4,1.9c3,2.8,3.9,6.5,4.7,10.3     c0.4,1.4,1.2,1.7,2.5,1.7c9.6,0,19.2,0,28.9,0C71.9,77.9,71.9,76.6,72.1,75.2z"></path>
		</g>
		<path d="M65,63.6c0.4-1.3,0.9-2.5,1.8-3.4c0.4-0.6,0.8-1.1,1.4-1.5c0.2-0.4,0.6-0.8,0.8-1.1c0-0.4,0.1-0.6,0.1-0.9    c0.4-1.8,1.5-3.4,3-4.7c-3.4,0-7,0-10.4,0c-6.2,0-12.5,0-18.6,0c-4.9,0-7.2,2.4-7.2,7.2c0,2.1,0,4.3,0,6.4c0,0.6-0.1,1.3,0.4,1.9    c3,2.8,3.9,6.5,4.7,10.3c0.4,1.4,1.2,1.7,2.5,1.7c3.9,0,8,0,11.9,0c0.1-5.1,4.7-9.3,9.7-9.5c-0.2-0.6-0.4-1.3-0.4-1.9    C64.5,66.4,64.5,64.9,65,63.6z"></path>
		<path d="M58.6,63.6c-0.4-1.3-0.9-2.5-1.8-3.4c-0.4-0.6-0.8-1.1-1.4-1.5c-0.2-0.4-0.6-0.8-0.8-1.1c0-0.4-0.1-0.6-0.1-0.9    c-0.4-1.8-1.5-3.4-3-4.7c3.4,0,7,0,10.4,0c6.2,0,12.5,0,18.6,0c4.9,0,7.2,2.4,7.2,7.2c0,2.1,0,4.3,0,6.4c0,0.6,0.1,1.3-0.4,1.9    c-3,2.8-3.9,6.5-4.7,10.3c-0.4,1.4-1.2,1.7-2.5,1.7c-3.9,0-8,0-11.9,0c-0.1-5.1-4.7-9.3-9.7-9.5c0.2-0.6,0.4-1.3,0.4-1.9    C59.1,66.4,58.9,64.9,58.6,63.6z"></path>
		<path class="st4" d="M64.2,39.2H46.7c-0.7,0-1.2-0.5-1.2-1.2V26.7c0-0.7,0.5-1.2,1.2-1.2H64c0.7,0,1.2,0.5,1.2,1.2V38    C65.3,38.7,64.8,39.2,64.2,39.2z"></path>
		<path class="st4" d="M80.3,39.3h-9.1c-0.7,0-1.2-0.5-1.2-1.2V30c0-0.7,0.5-1.2,1.2-1.2h9.1c0.7,0,1.2,0.5,1.2,1.2v8.1    C81.5,38.8,80.9,39.3,80.3,39.3z"></path>
		<path class="st4" d="M80.3,25.5h-9.1c-0.7,0-1.2-0.5-1.2-1.2v-8.1c0-0.7,0.5-1.2,1.2-1.2h9.1c0.7,0,1.2,0.5,1.2,1.2v8.1    C81.5,25.1,80.9,25.5,80.3,25.5z"></path>
		<path class="st4" d="M49.1,21.5h-6.3c-0.7,0-1.2-0.5-1.2-1.2v-8.1c0-0.7,0.5-1.2,1.2-1.2h6.3c0.7,0,1.2,0.5,1.2,1.2v8.1    C50.3,21,49.8,21.5,49.1,21.5z"></path>
		<path class="st4" d="M65.1,20.2H54.7c-0.7,0-1.2-0.5-1.2-1.2V1.9c0-0.7,0.5-1.2,1.2-1.2h10.4c0.7,0,1.2,0.5,1.2,1.2V19    C66.3,19.7,65.7,20.2,65.1,20.2z"></path>
		<path d="M116.4,37"></path>
		<path d="M114,37"></path>
		<polyline points="110.3,44.8 110.3,44.8 110.3,44.8 98.1,111 100.3,111.4 111.5,45 111.4,112.4 113.7,112.4 113.7,45.2     124.8,111.4 127,111 114.7,44.8 114.7,44.8 114.7,44.8   "></polyline>
		<polyline points="110.3,43.9 110.3,43.9 110.3,43.9 107.1,26.7 108.2,24.6 111.5,43.7 111.4,27.9 113.7,32.4 113.7,43.6     115.9,30.2 117.7,27.9 114.7,43.9 114.7,43.9 114.7,43.9   "></polyline>
	</g>
</g>
<g id="Layer_3" class="st0">
	<g class="st2">
		<g>
			<path d="M128.7,45.2c0.3-6.1-3.6-9.3-4.1-9.7L86.5,5.1C78-2.4,68.8,1.4,65.2,4.4c-9.7,7.7-39.1,30.2-39.3,30.4     c-0.2,0.1-4.5,3.3-4.2,9.6c0,1.9-0.1,47.5,0,52.6c0.1,3.9,2.7,11.9,10.4,11.9c8.3,0.1,27.4,0.1,36.3,0c8.7-0.1,8.7-9,8.7-12     l0-0.6c0-0.1,0-0.1,0-0.2l0-37.8c0-1.3-0.8-2.3-2.1-2.3h-0.1c-0.7,0-1.4,0.2-2.3,0.5L66.5,59c-0.9,0.4-1.5,1-1.5,2     c0,1.1,0.9,2,1.8,2c0.3,0,0.6-0.1,0.9-0.2L73,61l0,35.2c0,0,0,0.1,0,0.1l0,0.7c0,6.5-1.8,7.8-4.6,7.8c-8.9,0.1-28,0.1-36.3,0     c-5,0-6.3-6.3-6.3-7.9c-0.1-5.1,0-52,0-52.6c-0.2-4.1,2.4-6.1,2.6-6.2C28.7,37.9,58,15.3,67.8,7.6c0.3-0.3,8-6.5,16,0.6L122,38.8     l0.1,0.1c0,0,2.7,2,2.5,6.3c0,0.5,0.1,47.4,0,52.5c0,1.6-1.2,7.8-6.3,7.9c-8.5,0.1-12.8,0.1-21.7,0c0,0,0,0,0,0     c-1.1,0-2,0.9-2.1,2c0,1.1,0.9,2.1,2,2.1c4.3,0,7.5,0.1,10.7,0.1c3.4,0,6.7,0,11.1-0.1c7.7-0.1,10.3-8.1,10.4-11.9     C128.8,92.6,128.7,47,128.7,45.2z"></path>
			<path d="M107.2,109.9c-3.1,0-6.3,0-10.7-0.1c-1.3,0-2.3-1-2.3-2.3c0-1.2,1-2.3,2.3-2.3c8.9,0.1,13.2,0.1,21.7,0     c4.9,0,6-6.2,6.1-7.7c0.1-4.6,0-44.4,0-52.3l0-0.2c0.2-4.1-2.4-6.1-2.4-6.1l-0.1-0.1L83.7,8.4c-7.9-7-15.4-0.9-15.7-0.6     c-9.3,7.3-36.3,28.1-39.4,30.5l-0.1,0.1c-0.1,0.1-2.7,2-2.5,6.1c0,0.1,0,1,0,2.6C26,77.3,26,94.1,26,97c0,1.5,1.2,7.6,6.1,7.7     c8.2,0.1,27.3,0.1,36.2,0c2.7,0,4.4-1.3,4.4-7.6l0-0.6c0,0,0-0.1,0-0.1l0-35l-4.9,1.8c-0.3,0.1-0.7,0.2-1,0.2c-1.1,0-2-1-2-2.2     c0-1,0.6-1.8,1.6-2.2l6.1-2.4c0.9-0.3,1.6-0.6,2.4-0.6H75c1.3,0,2.3,1.1,2.3,2.5l0,37.8l0,0.1c0,0.1,0,0.1,0,0.2l0,0.6     c0,3,0,12.1-8.9,12.2c-9,0.1-28.1,0.1-36.3,0c-7.8-0.1-10.5-8.2-10.6-12.1c-0.1-5.1,0-50.6,0-52.6c-0.3-6.5,4.1-9.7,4.3-9.8     c0,0,0.3-0.2,0.8-0.6c11.1-8.5,30.8-23.8,38.5-29.8c3.7-3.1,12.9-7,21.5,0.6l38,30.4c0.5,0.3,4.5,3.6,4.2,9.9     c0,2.5,0.1,47.4,0,52.5c-0.1,3.9-2.8,12.1-10.6,12.1C114.2,109.8,110.8,109.9,107.2,109.9z M96.6,105.7c-1,0-1.8,0.8-1.9,1.8     c0,1,0.8,1.8,1.8,1.9c4.4,0,7.6,0.1,10.7,0.1c3.5,0,7,0,11-0.1c7.5-0.1,10.1-7.9,10.2-11.7c0.1-5.1,0-50.1,0-52.5l0,0     c0.3-6-3.6-9.2-4.1-9.5L86.3,5.2c-8.4-7.4-17.4-3.7-21-0.6c-7.7,6-27.4,21.3-38.5,29.8C26.3,34.8,26.1,35,26,35     c-0.2,0.1-4.4,3.2-4.1,9.5c0,0.5-0.1,47.4,0,52.6c0.1,3.8,2.7,11.6,10.2,11.7c8.2,0.1,27.3,0.1,36.3,0c8.5-0.1,8.5-8.9,8.5-11.7     l0-0.6c0-0.1,0-0.1,0-0.1l0-0.1l0-37.8c0-1.2-0.8-2.1-1.9-2.1h-0.1c-0.7,0-1.4,0.2-2.2,0.5l-6.1,2.4c-0.9,0.4-1.4,1-1.4,1.8     c0,1,0.7,1.8,1.6,1.8c0.2,0,0.5-0.1,0.8-0.2l5.5-2l0,36.3c0,6.7-1.9,8-4.9,8.1c-9,0.1-28,0.1-36.3,0c-5.2,0-6.5-6.5-6.5-8.1     c-0.1-2.9-0.1-19.7,0-50c0-1.6,0-2.5,0-2.6c-0.2-4.2,2.3-6.2,2.6-6.4l0.1-0.1c3.1-2.3,30.1-23.2,39.4-30.5     C68,7.2,75.8,0.9,84,8.1l38.2,30.6c0,0,2.8,2.1,2.6,6.5l0,0.2c0,7.9,0.1,47.6,0,52.3c0,1.6-1.3,8.1-6.5,8.1     C109.8,105.8,105.4,105.8,96.6,105.7z"></path>
		</g>
		<g>
			<path d="M68.4,109c8.7-0.1,8.7-9,8.7-12l0-0.6c0-0.1,0-8.1,0-8.2V58.4c0-1.3-0.8-2.3-2.1-2.3h-0.1c-0.7,0-1.4,0.2-2.3,0.5     L66.5,59c-0.9,0.4-1.5,1-1.5,2c0,1.1,0.9,2,1.8,2c0.3,0,0.6-0.1,0.9-0.2L73,61l0,35.2c0,0,0,0.1,0,0.1l0,0.7     c0,6.5-1.8,7.8-4.6,7.8l-9.1,0v4.1L68.4,109z"></path>
			<path d="M59,109.2v-4.5l9.3,0c2.7,0,4.4-1.3,4.4-7.6l0-0.6c0,0,0-0.1,0-0.1l0-35l-4.9,1.8c-0.3,0.1-0.7,0.2-1,0.2     c-1.1,0-2-1-2-2.2c0-1,0.6-1.8,1.6-2.2l6.1-2.4c0.9-0.3,1.6-0.6,2.4-0.6H75c1.3,0,2.3,1.1,2.3,2.5v29.8c0,0.1,0,8.1,0,8.2l0,0.6     c0,3,0,12.1-8.9,12.2h0L59,109.2z M59.5,105.1v3.7l8.9,0c8.5-0.1,8.5-8.9,8.5-11.7l0-0.6c0-0.2,0-8.1,0-8.2V58.4     c0-1.2-0.8-2.1-1.9-2.1h-0.1c-0.7,0-1.4,0.2-2.2,0.5l-6.1,2.4c-0.9,0.4-1.4,1-1.4,1.8c0,1,0.7,1.8,1.6,1.8c0.2,0,0.5-0.1,0.8-0.2     l5.5-2l0,36.3c0,5.8-1.3,8-4.9,8.1L59.5,105.1z"></path>
		</g>
	</g>
</g>
<g id="Layer_4" class="st0">
	<g class="st2">
		<g>
			<polygon points="125.8,50.3 121.9,55.2 99.8,37.8 99.8,6.2 41.8,6.2 41.8,103.8 99.8,103.8 99.8,72.4 106,72.4 106,110 35.6,110      35.6,0 106,0 106,34.8    "></polygon>
		</g>
		<g>
			<path d="M102.9,36.3"></path>
		</g>
		<g>
			<polygon points="88.1,74 82.5,74 82.5,56.8 84.1,56.8 84.1,72.4 88.1,72.4    "></polygon>
		</g>
		<g>
			<rect x="66.6" y="3.1" width="1.6" height="34.2"></rect>
		</g>
		<g>
			<rect x="82.5" y="73.4" width="1.6" height="33.5"></rect>
		</g>
		<g>
			<path d="M96.2,72.4c0,2.7-0.8,4.9-2.4,6.4c-2.5,2.4-6.1,2.2-6.2,2.2l-0.7,0v-8.5h1.6v6.9c1-0.1,2.9-0.4,4.4-1.8     c1.3-1.2,1.9-3,1.9-5.2L96.2,72.4L96.2,72.4z"></path>
		</g>
		<g>
			<rect x="94.9" y="72.3" width="8" height="1.6"></rect>
		</g>
		<g>
			<rect x="39.2" y="56.9" width="19.4" height="1.6"></rect>
		</g>
		<g>
			<path d="M66.7,56.8c0,2.7-0.8,4.9-2.4,6.4c-2.5,2.4-6.1,2.2-6.2,2.2l-0.7,0V57h1.6v6.9c1-0.1,2.9-0.4,4.4-1.8     c1.3-1.2,1.9-3,1.9-5.2L66.7,56.8L66.7,56.8z"></path>
		</g>
		<g>
			<rect x="65.4" y="56.8" width="17.9" height="1.6"></rect>
		</g>
		<g>
			<rect x="82.6" y="36.5" width="20.3" height="1.6"></rect>
		</g>
		<g>
			<path d="M83.9,29.5v8.6h-1.6V31c-1,0.1-2.9,0.4-4.4,1.8c-1.3,1.2-1.9,3-1.9,5.2h-1.6c0-2.7,0.8-4.9,2.4-6.4     c2.5-2.4,6.1-2.2,6.2-2.2L83.9,29.5z"></path>
		</g>
		<g>
			<rect x="63.8" y="36.5" width="12" height="1.6"></rect>
		</g>
		<g>
			
				<rect x="58.7" y="36.5" transform="matrix(1 -1.310065e-03 1.310065e-03 1 -4.879794e-02 8.035987e-02)" width="5.3" height="1.6"></rect>
		</g>
		<g>
			<path d="M59.9,29.5v8.6h-1.6V31c-1,0.1-2.9,0.4-4.4,1.8c-1.3,1.2-1.9,3-1.9,5.2h-1.6c0-2.7,0.8-4.9,2.4-6.4     c2.5-2.4,6.1-2.2,6.2-2.2L59.9,29.5z"></path>
		</g>
		<g>
			<rect x="40.9" y="36.5" width="10.9" height="1.6"></rect>
		</g>
	</g>
</g>
<g id="Layer_5" class="st0">
	<g class="st2">
		<path d="M102.6,65.5v25.7h19.2V65.5H102.6z M119.3,88.4h-7.1h-7.1V68.3h7.1h7.1V88.4z"></path>
		<path d="M121.6,32.4c-0.4-0.4-0.9-0.6-1.4-0.6c-1.2,0-1.5,0.9-3.4,0.9c-1.9,0-2.1-0.5-3-0.5c-1,0-1.5,0.6-1.5,0.6    s-0.6-0.6-1.5-0.6c-1,0-1.1,0.5-3,0.5c-2,0-2.3-0.9-3.5-0.9c-0.6,0-1,0.2-1.4,0.6c-0.4,0.4-0.6,0.9-0.6,1.4c0,1.2,0.9,1.5,0.9,3.4    c0,1.9-0.5,2.1-0.5,3c0,1,0.6,1.5,0.6,1.5s-0.6,0.6-0.6,1.5c0,1,0.5,1.1,0.5,3c0,2-0.9,2.2-0.9,3.5c0,0.6,0.2,1,0.6,1.4    c0.4,0.4,0.9,0.6,1.4,0.6c1.2,0,1.5-0.9,3.4-0.9c1.9,0,2.1,0.5,3,0.5c1,0,1.5-0.6,1.5-0.6s0.6,0.6,1.5,0.6s1.1-0.5,3-0.5    c2,0,2.2,0.9,3.4,0.9c0.6,0,1-0.2,1.4-0.6c0.4-0.4,0.6-0.9,0.6-1.4c0-1.2-0.9-1.5-0.9-3.4c0-1.9,0.5-2.1,0.5-3    c0-1-0.6-1.5-0.6-1.5s0.6-0.6,0.6-1.5s-0.5-1.1-0.5-3c0-2,0.9-2.2,0.9-3.4C122.2,33.3,121.9,32.8,121.6,32.4z M118.4,48.1h-12.5    V35.6h12.5V48.1z"></path>
		<polygon points="43.7,30.1 27.8,30.1 31.4,33.7 43.7,33.7 56,33.7 59.6,30.1   "></polygon>
		<polygon points="43.7,30.1 27.8,30.1 31.4,33.7 43.7,33.7 56,33.7 59.6,30.1   "></polygon>
		<polygon points="43.7,72.1 59.6,72.1 56,68.5 43.7,68.5 31.4,68.5 27.8,72.1   "></polygon>
		<polygon points="43.7,72.1 59.6,72.1 56,68.5 43.7,68.5 31.4,68.5 27.8,72.1   "></polygon>
		<polygon points="27.8,30.1 27.8,72.1 31.4,68.5 31.4,33.7   "></polygon>
		<polygon points="59.6,30.1 59.6,72.1 56,68.5 56,33.7   "></polygon>
		<path d="M92.3,68.4c-0.2-0.4-0.3-0.8-0.5-1.1c-0.3-0.7-0.5-1.5-0.5-2.1c0-0.1,0-0.3,0-0.4c0.1-0.3,0.3-0.7,0.6-1.1    c0.2-0.2,0.3-0.4,0.4-0.6c0.1-0.2,0.2-0.5,0.3-0.8v0c0-0.1,0-0.1,0-0.2c0-0.3-0.1-0.7-0.3-1c-0.2-0.5-0.5-0.9-0.7-1.3    c-0.2-0.4-0.4-0.8-0.4-1.2c0-0.1,0-0.2,0-0.3c0.1-0.3,0.3-0.7,0.6-1.1c0.2-0.2,0.3-0.4,0.4-0.6c0.1-0.2,0.2-0.5,0.3-0.8    c0-0.1,0-0.2,0-0.2c0-0.4-0.1-0.8-0.2-1.1c-0.2-0.5-0.5-0.9-0.7-1.3c-0.2-0.4-0.4-0.7-0.4-1.1v-0.1c0-0.6,0.3-1.3,0.6-2.1    c0.3-0.8,0.7-1.5,0.7-2.4v-0.1c0-0.6-0.3-1.2-0.8-1.5c-0.4-0.4-1-0.6-1.6-0.7h0h0c-0.1,0-0.2,0-0.3,0h0h0    c-0.7,0.1-1.2,0.4-1.7,0.6c-0.5,0.3-0.9,0.5-1.4,0.5h0c-0.3,0-0.7-0.1-1.1-0.2c-0.4-0.1-0.8-0.3-1.3-0.4c-0.9-0.3-1.8-0.4-2.8-0.5    h0h0c-0.1,0-0.2,0-0.3,0c-0.1,0-0.2,0-0.3,0h0h0c-1,0.1-1.9,0.3-2.8,0.5c-0.4,0.1-0.9,0.3-1.3,0.4c-0.4,0.1-0.8,0.2-1.1,0.2h0    c-0.5,0-1-0.2-1.4-0.5c-0.5-0.3-1-0.6-1.7-0.6h0h0c-0.1,0-0.2,0-0.3,0h0h0C71,45.4,70.5,45.6,70,46c-0.4,0.4-0.7,0.9-0.8,1.5v0.1    c0,0.8,0.4,1.6,0.7,2.4c0.3,0.8,0.6,1.5,0.6,2.1v0.1c0,0.4-0.2,0.7-0.4,1.1c-0.2,0.4-0.5,0.8-0.7,1.3c-0.1,0.3-0.2,0.7-0.2,1.1    c0,0.1,0,0.2,0,0.2c0,0.3,0.1,0.5,0.3,0.8c0.1,0.2,0.3,0.4,0.4,0.6c0.3,0.4,0.5,0.8,0.6,1.1c0,0.1,0,0.2,0,0.3    c0,0.4-0.2,0.8-0.4,1.2c-0.2,0.4-0.5,0.8-0.7,1.3c-0.2,0.3-0.3,0.7-0.3,1c0,0.1,0,0.1,0,0.2v0c0,0.3,0.1,0.5,0.3,0.8    c0.1,0.2,0.3,0.4,0.4,0.6c0.3,0.4,0.5,0.8,0.6,1.1c0,0.1,0,0.3,0,0.4c0,0.7-0.3,1.4-0.5,2.1c-0.1,0.3-0.3,0.7-0.5,1.1    c-0.2,0.4-0.3,0.8-0.3,1.3v0.1v0c0,0.7,0.3,1.2,0.8,1.5c0.4,0.3,1,0.6,1.6,0.7h0h0c0.1,0,0.2,0,0.3,0h0h0c0.7-0.1,1.1-0.4,1.6-0.6    s0.9-0.4,1.4-0.5c0.1,0,0.2,0,0.3,0c0.7,0,1.5,0.3,2.4,0.5s1.8,0.6,2.7,0.6c0,0,0.1,0,0.1,0c0.1,0,0.2,0,0.3,0c0.1,0,0.2,0,0.3,0    c0,0,0.1,0,0.1,0c1,0,1.9-0.3,2.7-0.6c0.8-0.3,1.6-0.6,2.4-0.5c0.1,0,0.2,0,0.3,0c0.5,0.1,0.9,0.3,1.4,0.5s0.9,0.5,1.6,0.6h0h0    c0.1,0,0.2,0,0.3,0h0h0c0.6-0.1,1.1-0.3,1.6-0.7c0.4-0.4,0.8-0.9,0.8-1.5v0v-0.1C92.6,69.2,92.4,68.8,92.3,68.4z M88.8,67.7    c0,0.4-0.3,0.7-0.7,0.7H73.7c-0.4,0-0.7-0.3-0.7-0.7V49.5c0-0.4,0.3-0.7,0.7-0.7H88c0.4,0,0.7,0.3,0.7,0.7V67.7z"></path>
		<path d="M42.1,79.3v15.5h15.5V79.3H42.1z M55.1,92.3H44.5V81.7h10.6V92.3z"></path>
		<path d="M91.3,94.8c0-5.6-3.1-10.4-7.4-12c0,0,0-0.1,0-0.1c0-0.8-0.7-1.5-1.5-1.5c-0.2,0-0.4,0-0.6,0.1c0,0,0,0,0-0.1    c0-0.6-0.5-1-1-1c-0.6,0-1,0.5-1,1c0,0,0,0.1,0,0.1c-0.2-0.1-0.4-0.2-0.7-0.2c-0.8,0-1.5,0.7-1.5,1.5c0,0,0,0.1,0,0.1    c-4.3,1.6-7.4,6.3-7.4,12c0,5.7,3.2,10.4,7.5,12c-0.4,0.2-0.6,0.3-0.6,0.5c0,0.4,1.1,0.8,2.5,0.9c0,0,0,0,0,0c0,0.6,0.5,1,1,1    c0.6,0,1-0.5,1-1c0,0,0,0,0,0c1.5-0.1,2.5-0.5,2.5-0.9c0-0.2-0.2-0.4-0.6-0.5C88.2,105.2,91.3,100.4,91.3,94.8z M80.9,104.5    c-4.3,0-7.8-4.3-7.8-9.7c0-5.4,3.5-9.7,7.8-9.7c4.3,0,7.8,4.3,7.8,9.7C88.7,100.1,85.2,104.5,80.9,104.5z"></path>
		<path d="M81.2,0.7c-8,0-14.5,7.8-14.5,17.3s6.5,17.3,14.5,17.3s14.5-7.8,14.5-17.3C95.7,8.5,89.2,0.7,81.2,0.7z M81.2,33.5    c-6.9,0-12.4-6.9-12.4-15.4S74.3,2.6,81.2,2.6c6.9,0,12.4,6.9,12.4,15.4S88.1,33.5,81.2,33.5z"></path>
	</g>
</g>
<g id="Layer_6">
	<path d="M109.5,18.5c-2,3.5-6,3.5-7.9,6.5c1.3,1.3,3.4,1.3,4.8,0.1c1.7-1.2,3.6-2.3,5.4-3.2c0.9-0.4,1.8-0.7,2.8-0.6   c-0.8,3.4-4.4,3.7-6.6,6.2l3.1,1.3c2.3-2.2,9.6-5.4,12.6-5.3c-2.6,3.2-6.4,4-9.5,6.2c2.2,1.6,4.1,2.3,6.6,0.8   c2.6-1.7,5.6-2.8,8.7-3.2c-1.9,3.3-5.1,3.9-7.7,5.7c1,1.1,2.6,1.4,3.9,0.7c2.6-1,5.3-2,7.9-2.8c0.6-0.1,1.3-0.2,2-0.2   c-0.4,2.3-2.3,2.2-3.6,2.8c-1.3,0.6-2.8,1.6-4.3,2.4c1.2,1.6,3.4,2,5.1,0.9c2.3-1.2,4.7-2.2,7.2-3c-0.7,3.8-4.5,3.5-5.9,6.2   c0.6,0,1.3-0.1,1.9-0.2c2.4-0.9,4.7-1.8,7-2.7c0.7-0.1,1.5-0.1,2.3,0c-1.5,3.1-5,2.7-6.8,4.9c0.2,0.5,0.5,1,0.8,1.4   c1.7,2,1.7,2.4-0.5,4c-2.2,1.5-4.5,3.1-6.8,4.4c-8.4,4.8-16.7,9.7-25.1,14.3C96,71.9,85,78,73.9,84c-2.9,1.4-5.6,3-8.2,4.9   c-1.9,1.3-4,2.3-6.1,3.2c-2,1-4,2-5.9,3c-3.1,1.6-3,1.6-5.8-0.6c-2.1,2.2-4.8,3.7-7.7,4.4c0.4-3.4,4.3-3.6,5.4-6.2   c-0.7-1-1.4-0.7-2.1-0.2c-1.6,1.1-3.1,2.3-4.7,3.3c-0.3,0.2-0.6,0.6-1,0.6c-0.6,0-1.1-0.1-1.6-0.4c-0.2-0.1-0.1-1,0.2-1.3   c0.6-0.6,1.2-1.1,1.8-1.6c1.2-0.9,2.4-1.7,3.6-2.6c-2.4-2.2-2.8-2.2-5-0.6c-1.7,1.2-3.4,2.4-5.2,3.7c-1.3-2.4,0.7-3,1.6-4   c1.1-1.1,2.2-2.1,3.4-3c-0.5-1-1.8-1.5-2.9-0.9c-0.1,0.1-0.3,0.2-0.4,0.3c-1.2,0.7-2.4,1.5-3.5,2.3C28.7,89.1,28,89,27,87.7   l4.8-3.8c-1.7-2-1.7-2-3.6-1c-1.1,0.6-2.2,1.4-3.2,2.3c-1,0.8-1.8,1-2.6-0.5c0.7-0.8,1.4-1.6,2.1-2.3c0.8-0.7,1.5-1.3,2.3-1.9   c-0.4-1.1-1.6-1.6-2.7-1.2c-0.2,0.1-0.3,0.1-0.4,0.2c-1.3,0.7-2.6,1.5-3.9,2.3c-0.7,0.5-1.4,1-2.1,0.2c-0.7-0.8-0.3-1.5,0.5-2.1   l3.7-2.6c-1.4-2.1-1.9-2.3-3.7-1.1c-1.3,0.8-2.4,1.8-3.7,2.7c-0.7,0.5-1.6,0.8-2-0.2c-0.2-0.4,0.2-1.3,0.7-1.7   c1.2-1.2,2.6-2.2,4-3.3c-0.7-1.4-1.6-1.5-2.7-0.8s-2.1,1.5-3.2,2.3c-1.1,0.7-1.8,1-2.8-0.1c0.3-2.4,3.4-2.3,4.1-4.3   c-2.4-2.6-2.4-2.6-5-0.5c-0.7,0.6-1.3,1.1-2.1,1.5c-0.4,0.2-1.1,0.1-1.6,0.2c-0.1-0.6-0.2-1.5,0.1-1.9c0.6-0.8,1.7-1.2,2.3-1.9   c0.7-0.7,1-1.4,0.8-2c-0.6-1.8,0.5-2.5,1.9-3.2c7.8-3.7,15.6-7.5,23.4-11.3c7.8-3.8,15.8-8,23.7-12c11.7-6,23.8-11.2,36.3-15.3   c2.1-1,4.6-1.2,6.8-0.4c0.5-2.3,2.5-3,4.3-3.9S106.8,17.9,109.5,18.5z M101.2,66.5C99,63.7,72.9,43.4,65.1,38.1   c-6.4,2.9-12.6,6.1-18.7,9.6C57.8,58.3,70,68,82.9,76.7L101.2,66.5z M62.2,88.1c-2.1-1.4-3.4-2.5-4.9-3.6c-3.2-2.2-6.5-4.4-9.7-6.7   c-1.8-1.3-3.6-2.7-5.4-3.9c-5.6-3.8-11.3-7.8-16.8-11.7c-3.4-2.5-3.4-2.6-7.1-0.9c-2.7,1.2-5.4,2.7-8.5,4.3c2.1,1.5,3.5,2.6,5,3.7   C22,74.2,29.3,79.1,36.5,84c4.3,2.9,8.5,5.7,12.8,8.6c1,0.9,2.5,1,3.6,0.3C55.8,91.3,58.7,89.8,62.2,88.1L62.2,88.1z M137.1,44.8   c-1.6-1.3-3.2-2.5-4.9-3.6c-10-5.3-20.4-9.9-31-13.7c-3.9-1.6-8.3-1.2-11.9,1.1c0.4,0.5,0.8,1,1.2,1.4c2.5,2,5,4,7.5,6   c7.1,5.5,14.3,11.1,21.4,16.7c1.1,1.1,2.8,1.3,4.2,0.6C128.3,50.9,132.8,48.1,137.1,44.8z"></path>
</g>
</svg>
