<?xml version="1.0" encoding="UTF-8"?>
<!-- Generator: Adobe Illustrator 24.3.0, SVG Export Plug-In . SVG Version: 6.00 Build 0)  -->
<svg xmlns="http://www.w3.org/2000/svg" xmlns:xlink="http://www.w3.org/1999/xlink" version="1.1" id="Layer_1" x="0px" y="0px" viewBox="0 0 150 110" style="enable-background:new 0 0 150 110;" xml:space="preserve">
<style type="text/css">
	.st0{display:none;}
	.st1{display:inline;fill:#131313;}
	.st2{display:inline;}
	.st3{fill-rule:evenodd;clip-rule:evenodd;}
	.st4{fill:none;stroke:#000000;stroke-miterlimit:10;}
</style>
<g id="Layer_1_1_" class="st0">
	<path class="st1" d="M17.2,51.5h0.4c6.9-0.5,11.9-0.7,20.1-0.9h0.8c0.8,0,1.8,0,2.8,0c10,0,26.2,1,30.4,1.8   c1.7,0.3,2.4,0.7,2.7,1.3c-6.4,0.3-27.5,0.7-44,0.7c-11,0-18.3-0.1-20.7-0.4C10.3,52.1,12.1,51.9,17.2,51.5z M9.5,55.2L9.5,55.2   c0,0.2,0,0.3,0,0.5s0,0.4,0,0.6l0,0l0,0V57c-0.2,3-0.3,6.3,1.5,8.1c0.7,0.7,1.6,1.2,2.6,1.3h60c0.3,0,0.6-0.2,0.9-0.3V66   c0-1.1,0-2,0-2.8c0-1.3,0-2.1,0-2.8c0-0.5,0-0.9,0-1.3v-0.6c0-0.2,0-0.5,0-0.7c0-1.1,0-2.2,0-3.1v-0.5c-6.3,0.3-27.5,0.7-44.2,0.7   c-11.1,0-18.4-0.2-20.8-0.4C9.5,54.7,9.5,55,9.5,55.2z M78.2,51.8C82.5,51,98.7,50,108.7,50c1,0,1.9,0,2.8,0h0.8   c4.1,0.1,7.3,0.2,10.5,0.3c-0.2-5.8-0.6-20.2-0.6-22.6c0-1.5-0.7-2-2.8-2c-0.6,0-1.3,0-2.1,0.1s-1.4,0.1-2.2,0.1   c-4.6,0.1-15.6,0.3-19.8,0.3c-2.2,0-5.3-0.1-8.3-0.3c-2.7-0.1-5.2-0.2-6.8-0.2c-3.8,0-4.4,1.6-4.4,2.8c-0.3,4.6-0.2,20.1-0.1,24.3   C76.4,52.2,77.2,51.9,78.2,51.8z M139.8,72.7v-4.5c0-0.6-0.4-1.2-1-1.2H137c-0.6,0.1-1.2,0.2-1.8,0.2h-0.4c-3.9,0-8.4,0-13.2,0.1   c-5.2,0-10.6,0.1-15.6,0.1c-2.8,0-5.3,0-7.4,0c-3,0-6.1,0-9.1,0c-2.1,0-4,0.1-5.8,0.1c-2.4,0.1-4.8,0-7.2-0.4h-2.6   c-2.4,0.3-4.7,0.5-7.1,0.4l0,0c-1.8,0-3.8,0-5.8-0.1c-3,0-6.2-0.1-9.1,0c-2.2,0-4.6,0-7.4,0c-5,0-10.4,0-15.6-0.1   c-4.8,0-9.3-0.1-13.2-0.1c-0.8,0-1.6,0-2.4-0.2h-1.2c-0.6,0.1-1,0.6-1,1.2v4.5c0,0.6,0.4,1.2,1,1.2H139   C139.4,73.9,139.8,73.4,139.8,72.7L139.8,72.7L139.8,72.7z M37.7,50h0.8c0.8,0,1.8,0,2.8,0c10,0,26.2,1,30.5,1.8   c0.9,0.1,1.8,0.5,2.6,1c0-4.2,0.1-19.6-0.1-24.2c-0.1-1.2-0.6-2.8-4.4-2.8c-1.6,0-4.1,0.1-6.8,0.2c-3,0.1-6.1,0.3-8.3,0.3   c-4.2,0-15.4-0.2-19.8-0.3c-0.8,0-1.5-0.1-2.2-0.1s-1.5-0.1-2.1-0.1c-2.1,0-2.8,0.5-2.8,2c0,2.4-0.4,16.8-0.6,22.6   C30.3,50.2,33.6,50.2,37.7,50z M10.2,72.7v-4.5c0-0.6,0.3-1.1,0.7-1.5c0-0.2,0-0.4,0-0.6c-0.2-0.2-0.5-0.3-0.7-0.6   c-1.7-1.8-1.6-4.9-1.5-7.7c0-0.5,0-1,0.1-1.5c0-0.3,0-0.6,0-0.8v-0.1c0-0.2,0.1-0.4,0.2-0.6c0-0.1,0-0.1,0-0.2c0-0.1,0-0.2,0.1-0.3   c0.1-1.3,1-2.3,2.2-2.6c0-0.3,0-0.6,0.1-0.8c0.1-1.1,0.7-2.1,1.6-2.6c2.6-1.2,9.4-1.7,13.8-1.9c0-1,0.1-2.1,0.1-3.2   c-1.8,0.2-11.7,1.2-15.1,2.1c-1.3,0.4-2.3,1.2-2.9,2.4c-0.4,0.8-0.6,1.7-0.6,2.7c-0.8,10.6,0,34.4,0,34.4h2.6c0-1.9,0-6,0-10.6   C10.4,73.8,10.2,73.3,10.2,72.7z M141.8,50.4c0-0.9-0.2-1.8-0.6-2.7c-0.6-1.2-1.6-2-2.9-2.4c-3.4-0.9-13.4-1.9-15.1-2.1   c0,1.1,0.1,2.2,0.1,3.2c4.4,0.2,11.2,0.8,13.8,1.9c1,0.5,1.6,1.5,1.7,2.6c0,0.2,0,0.5,0,0.8c1.2,0.3,2.2,1.3,2.3,2.6   c0,0.1,0.1,0.2,0.1,0.4s0,0.1,0,0.1c0,0.2,0.1,0.4,0.1,0.7l0,0c0,0.2,0,0.5,0,0.8c0,0.5,0,1,0.1,1.5c0.1,2.8,0.3,5.9-1.5,7.7   c-0.2,0.2-0.4,0.4-0.7,0.6v0.3c0.8,0.2,1.3,0.9,1.3,1.7v4.5c0,0.8-0.5,1.5-1.2,1.7c0,4.6,0,8.4,0,10.3h2.6   C141.7,84.7,142.5,61,141.8,50.4z M140.6,57v-0.6c0-0.2,0-0.4,0-0.6s0-0.3,0-0.5v-0.1c0-0.3-0.1-0.5-0.1-0.8   c-2.4,0.3-9.7,0.4-20.8,0.4c-16.7,0-37.9-0.3-44.2-0.7v0.5c0,0.8,0,2,0,3.1s0,1.7,0,2.7c0,1.1,0,2.7,0,5.6c0,0,0,0,0,0.1   c0.2,0.2,0.5,0.3,0.8,0.3h60c1-0.1,1.9-0.6,2.6-1.3C140.8,63.3,140.7,60,140.6,57z M132.8,51.5h-0.4c-6.9-0.5-11.8-0.7-20.1-0.9   h-0.8c-0.8,0-1.8,0-2.8,0c-10,0-26.2,1-30.4,1.8c-1.7,0.3-2.4,0.7-2.7,1.3c6.4,0.3,27.5,0.7,44,0.7c11,0,18.3-0.1,20.7-0.4   C139.7,52.1,137.9,51.9,132.8,51.5L132.8,51.5z"></path>
</g>
<g id="armchair">
	<path d="M114.4,59.3c-6.6-10-14.7-4.4-25.4-1.9c-10.7,2.6-8.1-14.3,1.4-29.3c9.7-15,0.2-20.4-7.1-15.5c-4.8,3.3-29.1,14.2-33.3,3.7   c-1.2-2.8-2.2-5.7-4-7.5c-0.4-0.3-0.6-0.1-0.5,0.3c0.3,0.9,0.5,1.5,0.9,3.1c0.4,1.6,0.9,3.6,1.3,5.8c0.5,2.2,0.9,4.8,1.2,7.6   c0.3,2.8,0.6,5.9,0.8,9.2c0.1,1.6,0.1,3.3,0.2,5c0,0.9,0,1.7,0,2.6s0,1.7,0,2.6c0,1.7-0.1,3.5,0,5.3c0,0.9,0.1,1.7,0.2,2.6   c0.1,0.9,0.2,1.7,0.4,2.5c0.1,0.4,0.2,0.8,0.3,1.1c0.1,0.3,0.3,0.6,0.4,0.7s0.2,0.1,0.4,0.2c0.2,0,0.5,0,0.9-0.1   c0.8-0.2,1.5-0.6,2.4-1c0.9-0.4,1.7-0.8,2.7-1.2c1.8-0.7,4-1.2,6-1.2c1.9,0,3.9,0.2,5.8,0.6c1.9,0.4,3.8,1.1,5.5,1.9   c1.7,0.9,3.3,1.9,4.7,3c2.9,2.1,5.4,4.5,7.8,6.8c2.3,2.2,4.5,4.4,6.5,6.4c1,0.9,2,1.6,3.1,2.3c1.1,0.7,2.1,1.2,3.2,1.4   c2.1,0.7,4.1,0.8,5.6,0.4c0.8-0.2,1.4-0.4,2-0.7c0.6-0.3,1.1-0.5,1.4-0.8c0.2-0.1,0.4-0.2,0.5-0.3c0.1-0.1,0.3-0.2,0.3-0.3   c0.2-0.1,0.3-0.2,0.3-0.2l0,0h0.1v0.1c0,0-0.1,0.1-0.3,0.2c-0.1,0.1-0.2,0.2-0.3,0.3c-0.1,0.1-0.3,0.2-0.5,0.4   c-0.7,0.5-1.8,1.3-3.5,1.6s-3.7,0.5-5.9-0.2c-2.2-0.7-4.5-1.8-6.8-3.8c-2-1.9-4.3-4.1-6.7-6.2c-2.4-2.1-4.9-4.4-7.8-6.5   c-1.4-1.1-2.9-2-4.5-2.8c-1.6-0.8-3.4-1.4-5.1-1.7c-1.8-0.4-3.7-0.5-5.5-0.6c-1.8,0-3.7,0.4-5.4,1.1c-0.9,0.3-1.7,0.7-2.6,1.1   c-0.9,0.4-1.7,0.8-2.6,1.1c-0.5,0.1-1,0.2-1.4,0.2s-1-0.3-1.4-0.6c-0.4-0.4-0.6-0.8-0.8-1.3c-0.2-0.5-0.3-0.9-0.4-1.4   c-0.4-1.8-0.5-3.7-0.5-5.5s0-3.6,0.1-5.4c0.1-3.5,0.2-7,0-10.1c-0.1-3.2-0.3-6.3-0.5-9.1c-0.3-2.8-0.6-5.4-0.9-7.6s-0.7-4.3-1-5.9   c-0.4-2-0.6-3.1-1.1-3.8c-1.5-1.5-3.5-1.9-5.8-1.2c-3.6,1.3-6.2,8.4-5.4,33c0.7,23.5,13.6,52.7,39.3,55.2V98   c-14.4,0.1-25.7,1.3-25.7,2.7s12.4,2.7,27.5,2.7s27.5-1.2,27.5-2.7c0-1.4-11.3-2.6-25.7-2.7v-2.6C104.9,95.3,122.3,71.3,114.4,59.3   z"></path>
</g>
<g id="mirror_1_" class="st0">
	<g class="st2">
		<path d="M62.4,35c0.1,0,0.1,0,0.2,0c1.8,0.1,3.3,1.7,3.3,3.7v42.5l0.6,4.8l2.1,0.9l26.6-4.6L85.6,4.5L58.9,3.4l-1.8,1.5l3.6,30.7    C61.2,35.2,61.8,35,62.4,35z M81.6,8.8l9,69.3L72.9,81L64.2,8.4L81.6,8.8z"></path>
		<path d="M72.3,101.9l-3.7-1.6l-3.8-6.8V38.7c0-1.3-0.9-2.4-2.2-2.5h-0.1c-1.3,0-2.3,1-2.3,2.3v53.2l-2.9,2.4l-2.6-1    C54.5,93,54.2,93,54,93s-0.6,0.1-0.8,0.2c-0.6,0.3-1,0.9-1,1.6v1.3c0,0.7,0.3,1.3,0.9,1.6l2.3,1.1c0.5,0.2,0.9,0.3,1.5,0.3    c0.5,0,0.9-0.1,1.4-0.3c0.6-0.2,1.1-0.6,1.8-0.6c0.5,0,0.9,0.1,1.5,0.3c1.4,0.8,2.3,2.6,2.6,3.9c0.2,0.8,0.9,1.5,1.7,1.8l5.1,2.2    c0.2,0.2,0.5,0.2,0.7,0.2s0.6-0.1,0.8-0.2c0.5-0.2,0.8-0.8,0.8-1.3v-2C73.2,102.7,72.8,102.2,72.3,101.9z M62.2,94.1    c-0.6,0-0.9-0.5-0.9-0.9c0-0.6,0.5-0.9,0.9-0.9c0.6,0,0.9,0.5,0.9,0.9S62.7,94.1,62.2,94.1z M62.4,40.4c-0.6,0-0.9-0.5-0.9-0.9    c0-0.6,0.5-0.9,0.9-0.9c0.6,0,0.9,0.5,0.9,0.9C63.3,40.1,62.8,40.4,62.4,40.4z"></path>
		<path d="M96.8,95.6l-3-1.3l-3.2-5.7v-3.9l-2.4,0.6c0.2,0.2,0.2,0.5,0.2,0.8v3.7c0,0.6-0.3,1-0.9,1.1l-6,1.5l0.9,0.5    c0.5,0.2,1,0.3,1.6,0.3c0.5,0,0.9-0.1,1.4-0.3c0.3-0.2,0.8-0.3,1.4-0.3c0.3,0,0.8,0.1,1.3,0.3c1,0.6,1.7,2,2.1,3    c0.3,0.9,1,1.6,1.8,2.1l3.9,1.7c0.1,0.1,0.3,0.1,0.5,0.1s0.5-0.1,0.7-0.2c0.3-0.2,0.6-0.7,0.6-1.1v-1.6    C97.6,96.3,97.3,95.9,96.8,95.6z"></path>
		<polygon points="65.9,93.2 66.9,94.8 87.3,89.8 87.3,86.1 65.9,90.9   "></polygon>
	</g>
</g>
<g id="mirror" class="st0">
	<g transform="translate(0.000000,1096.000000) scale(0.100000,-0.100000)" class="st2">
		<path d="M747.4,10884.2c-16.3-3.2-30.6-17.7-34-34.7c-0.7-3.1-1.5-5.2-1.9-4.6c-0.3,0.6-2.9,1.8-5.6,2.6    c-11.4,3.6-22.9-2.8-25.9-14.4l-0.9-3.7l-5.7,3c-10.8,5.6-24,3.2-31.5-5.8l-3.1-3.6l-2.8,1.7c-7.5,4.6-17.3-0.7-17.3-9.1    c0-1.4-0.8-1.7-5.4-1.8c-3,0-6.7-0.7-8.6-1.6c-3-1.4-9.3-1.6-65.6-1.8l-62.3-0.3l23.1-20.7l23.1-20.8l227.5,0.1H978l22.8,20.7    l22.8,20.7l-61,0.5c-67.6,0.6-67.8,0.6-69,6.2c-0.8,4.2-2.5,6.7-5.5,8.3c-3.6,1.9-8.2,1.8-11.5-0.3l-2.7-1.6l-4.8,4.7    c-8.8,8.6-19.6,10.1-30.7,4.3l-5.4-2.8v2.3c0,3.5-3.3,9.1-7.1,12.3c-6.3,5.2-15.9,6.2-22.5,2.1l-3-1.8l-1,5.3    C794.6,10873.6,771.4,10889,747.4,10884.2z"></path>
		<path d="M471.3,10373.3c0-238.1,0.1-432.7,0.3-432.5c0.1,0.2,10.4,10.7,22.8,23.3L517,9987v389.2v389.3l-21.2,19.1    c-11.7,10.4-21.9,19.6-22.8,20.2C471.4,10806.1,471.3,10791.5,471.3,10373.3z"></path>
		<path d="M1006,10785.7l-22.4-20.3l-0.3-388.7l-0.2-388.8l22.6-23.4l22.7-23.4l0.3,216.1c0.1,119,0.1,313.6,0,432.6l-0.3,216.2    L1006,10785.7z"></path>
		<path d="M536.6,10376.1V10005h214h214l-0.2,370.9l-0.3,370.8l-213.7,0.3l-213.8,0.2V10376.1z M951.5,10375.7v-358.5H750.1H548.7    v358.5v358.5h201.4h201.4V10375.7z"></path>
		<path d="M498.6,9959.4c-12.5-12.8-22.7-23.5-22.7-23.8s123.4-0.6,274.1-0.6s274.1,0.3,274.1,0.6s-10.2,11-22.6,23.8l-22.5,23.2    H750H521L498.6,9959.4z"></path>
	</g>
</g>
<g id="brands" class="st0">
	<path class="st2" d="M100.5,59.3l-25.1,43.5c-1.2,2.1-3.8,2.8-5.7,1.7L35,84.3c-2.1-1.2-2.8-3.7-1.7-5.8L58.4,35l20.4-12.8l9.8,5.6   c0.6-1.8,0.5-1.9,0.9-3.8c0.9-4,1.8-11.1,9.8-17.2c2.7-2.3,6.9-2.3,10.6-0.4c2.1,0.9,3.9,2.5,5.2,4.1c1.3,1.9,1.9,4,2.1,6   c-0.1,2.5-1.3,5.8-6.7,8.4c-4.3,1.9-7.9,2.5-11.3,2.8c-3,0.4-5.3,0.6-7.2,1.9l9.6,5.6L100.5,59.3z M90.4,46.5   c2.1-3.5,1.4-7.8-1-10.6L85,33.2c-3.9-1.3-8.3,0.4-10.5,4.1c-2.5,4.4-1,10,3.4,12.5S88,50.9,90.4,46.5z M91.6,24.3   c0,0.6-0.1,1-0.3,1.6c-0.1,0.6,0,1-0.3,1.8c2.3-1.6,4.8-1.7,7.9-1.9c3.1-0.4,6.7-0.9,10.6-2.7c3.6-1.6,5.4-3.9,5.6-6.5   c0-3-2.2-6.1-5.4-7.9c-0.1-0.1-0.4-0.3-0.6-0.4c-3.1-1.6-6.2-1.6-8.5,0.3C93.3,14,92.3,20.4,91.6,24.3z"></path>
</g>
<g id="styles" class="st0">
	<g class="st2">
		<path d="M58.8,11.4H41.3c-2.1,0-3.9,1.7-3.9,3.9v79.3c0,2.1,1.7,3.9,3.9,3.9h17.4c2.1,0,3.9-1.7,3.9-3.9V15.3    C62.6,13.2,60.9,11.4,58.8,11.4z M43.7,94.8c-1.5,0-2.7-1.2-2.7-2.7s1.2-2.7,2.7-2.7s2.7,1.2,2.7,2.7    C46.4,93.5,45.2,94.8,43.7,94.8z M41.6,72.3v-0.8l4.5,4.5h-0.8L41.6,72.3z M43.8,76c-1.1-0.1-2-1-2.2-2.2L43.8,76z M47.6,76    l-6.1-6.1v-0.8l6.9,6.9H47.6z M50,76l-8.4-8.4v-0.8l9.2,9.2C50.8,76,50,76,50,76z M52.3,76L41.6,65.3v-0.8l11.6,11.6L52.3,76    L52.3,76z M54.7,76L41.6,62.9v-0.8L55.5,76H54.7z M57,76L41.6,60.6l0,0c0-0.2,0-0.5,0.1-0.7l16,16C57.5,76,57.3,76,57,76z     M57.7,54.3c-0.2,0-0.5,0.1-0.8,0.1h-1.4l-14-14V39c0-0.3,0-0.5,0.1-0.8L57.7,54.3z M42.3,37.3c0.4-0.4,1-0.7,1.6-0.7l15.5,15.5    c0,0.6-0.3,1.1-0.7,1.6L42.3,37.3z M54,54.4h-2.3L41.6,44.2v-2.3L54,54.4z M50.2,54.4h-2.3L41.5,48v-2.3L50.2,54.4z M46.4,54.4    h-2.3l-2.6-2.6v-2.3L46.4,54.4z M58.7,75.3L42.3,58.9c0.1-0.1,0.3-0.3,0.4-0.4L59,74.8C58.9,75,58.8,75.2,58.7,75.3z M59.4,73.8    L43.9,58.2h0.8l14.7,14.7V73.8z M59.4,71.3L46.3,58.2h0.8l12.3,12.3V71.3z M59.4,69L48.6,58.2h0.8l10,10V69L59.4,69z M59.4,66.8    L51,58.3h0.8l7.6,7.6C59.4,65.8,59.4,66.8,59.4,66.8z M59.4,64.3l-6.1-6.1h0.8l5.3,5.3C59.4,63.5,59.4,64.3,59.4,64.3z M59.4,62    l-3.7-3.7h0.8l2.9,2.9C59.4,61.2,59.4,62,59.4,62z M59.4,50.6l-14-14h2.3l11.7,11.7V50.6L59.4,50.6z M59.4,46.8L49.2,36.6h2.3    l7.9,7.9V46.8L59.4,46.8z M59.4,43L53,36.6h2.3l4.1,4.1V43z M59.4,39.2l-2.6-2.6h0.1c1.3,0,2.4,1.1,2.4,2.4    C59.4,39,59.4,39.2,59.4,39.2z M59.4,30.3c0,1.3-1.1,2.4-2.4,2.4H44c-1.4,0-2.4-1.1-2.4-2.4V17.4c0-1.4,1.1-2.4,2.4-2.4h12.9    c1.4,0,2.4,1.1,2.4,2.4L59.4,30.3L59.4,30.3z"></path>
		<path d="M79.1,18.1l-14.6-3.9c0.1,0.4,0.1,0.8,0.1,1.2v2.5l11.8,3.2c1.3,0.4,2.1,1.7,1.7,3l-3.3,12.5c-0.3,1.3-1.7,2.1-3,1.7    l-7.2-1.9v4l1,0.2l5.6,9.7l-0.6,2.2l-6-10.3v2.2l5.6,9.6l-0.6,2.2l-5-8.6v2.2l4.6,7.9c-0.2,0.6-0.6,1-1.1,1.3l-3.5-6v2.2l2.4,4.2    c-0.2,0-0.5,0-0.8-0.1l-1.3-0.4l-0.3-0.5v4.4h0.2l2.1,3.6l-0.2,0.8l-2-3.5v2.2l1.6,2.8l-0.2,0.8l-1.4-2.5v2.2l1,1.8l-0.2,0.8    l-0.8-1.4v2.2l0.4,0.7l-0.2,0.8l-0.2-0.4v13.7l17.2-64.3C82.4,20.7,81.2,18.6,79.1,18.1z M71.6,48.7l-4.5-7.8l2.2,0.6l2.9,5    L71.6,48.7z M72.6,44.9L72.6,44.9l-1.8-3h0.1C72.2,42.2,72.9,43.6,72.6,44.9z"></path>
		<path d="M79.1,18.1l-14.6-3.9c0.1,0.4,0.1,0.8,0.1,1.2v2.5l11.8,3.2c1.3,0.4,2.1,1.7,1.7,3l-3.3,12.5c-0.3,1.3-1.7,2.1-3,1.7    l-7.2-1.9v4l1,0.2l5.6,9.7l-0.6,2.2l-6-10.3v2.2l5.6,9.6l-0.6,2.2l-5-8.6v2.2l4.6,7.9c-0.2,0.6-0.6,1-1.1,1.3l-3.5-6v2.2l2.4,4.2    c-0.2,0-0.5,0-0.8-0.1l-1.3-0.4l-0.3-0.5v4.4h0.2l2.1,3.6l-0.2,0.8l-2-3.5v2.2l1.6,2.8l-0.2,0.8l-1.4-2.5v2.2l1,1.8l-0.2,0.8    l-0.8-1.4v2.2l0.4,0.7l-0.2,0.8l-0.2-0.4v13.7l17.2-64.3C82.4,20.7,81.2,18.6,79.1,18.1z M71.6,48.7l-4.5-7.8l2.2,0.6l2.9,5    L71.6,48.7z M72.6,44.9L72.6,44.9l-1.8-3h0.1C72.2,42.2,72.9,43.6,72.6,44.9z"></path>
		<path d="M97.1,30l-12.8-7.4L84,22.4c0,0.3-0.1,0.6-0.2,0.9L83.1,26l10.6,6.1c1.2,0.7,1.6,2.2,0.9,3.3l-6.5,11.2    c-0.7,1.2-2.2,1.6-3.3,0.9l-6.5-3.8l-1,3.8l0.9,0.5l2.9,10.8l-1.1,2l-3.1-11.5l-0.6,2.1l2.9,10.8l-1.1,2l-2.6-9.6l-0.6,2.1    l2.4,8.9c-0.3,0.5-0.8,0.8-1.4,1l-1.8-6.8l-0.6,2.1l1.3,4.7c-0.2-0.1-0.5-0.1-0.7-0.3l-1.2-0.7L72.7,65l-1.1,4.3l0.2,0.1l1.1,4    l-0.4,0.7l-1.1-4l-0.6,2.1l0.8,3.2l-0.4,0.7l-0.8-2.8l-0.6,2.1l0.5,2l-0.4,0.7l-0.4-1.6l-0.6,2.1l0.3,0.8l-0.4,0.7l-0.1-0.4    l-3.5,13.5l33.3-58C99.5,33.4,98.9,31,97.1,30z M81.8,57.6l-2.3-8.7l2,1.1l1.5,5.6L81.8,57.6z M83.8,54.2L83.8,54.2l-1-3.4    l0.1,0.1C84.1,51.5,84.5,53,83.8,54.2z"></path>
		<path d="M111.5,45.5l-10.7-10.7c-0.1,0.5-0.3,1-0.6,1.5l-1.1,1.9l8.6,8.6c0.9,1,0.9,2.5,0,3.5l-9.1,9.1c-0.9,1-2.5,1-3.4,0    L90,54.2l-2,3.4l0.6,0.6v11.2L87,71V59.3l-1.1,1.9v10.9l-1.7,1.5v-9.7l-1,1.9v8.9c-0.4,0.4-1,0.6-1.6,0.6v-6.7l-1.1,1.8V75    c-0.2-0.1-0.4-0.3-0.6-0.5l-1-1v-0.4l-2.1,3.7l0,0V81l-0.6,0.6v-3.8l-1.1,1.9v3l-0.6,0.6v-2.6l-1.1,1.9v1.8L72.8,85v-1.4l-1,1.8    V86l-0.6,0.6v-0.2l-6.5,11.3L111.5,51C113,49.4,113,47,111.5,45.5z M91.2,66.6l-1.6,1.6v-9l1.6,1.6V66.6z M92.4,65.4L92.4,65.4    l-0.1-3.5l0.1,0.1C93.4,62.9,93.4,64.5,92.4,65.4z"></path>
	</g>
</g>
<g id="FAQ_1_" class="st0">
	<g class="st2">
		<g>
			<path class="st3" d="M82.9,78.4H66.2c-0.1-2.3-0.1-3.8-0.1-4.3c0-5.4,0.9-9.6,2.7-13.1c1.8-3.5,5.3-7.4,10.7-11.6     c5.3-4.3,8.5-7.1,9.6-8.4c1.6-2.1,2.4-4.4,2.4-7c0-3.5-1.5-6.6-4.3-9c-2.8-2.5-6.6-3.7-11.5-3.7c-4.7,0-8.5,1.3-11.8,3.9     c-3.1,2.7-5.3,6.7-6.4,12L40.6,35c0.5-7.6,3.9-14.2,10-19.5c6.1-5.5,14.2-8.2,24.2-8.2c10.6,0,18.9,2.8,25.2,8.2     c6.2,5.5,9.3,11.8,9.3,19c0,4-1.2,7.8-3.5,11.4c-2.2,3.5-7,8.3-14.6,14.5c-3.8,3.2-6.2,5.8-7.2,7.8C83.1,70,82.8,73.5,82.9,78.4     L82.9,78.4z M66.2,102.7v-18h16.6v17.9L66.2,102.7L66.2,102.7z"></path>
		</g>
	</g>
</g>
<g id="FAQ" class="st0">
	<g class="st2">
		<circle cx="75" cy="90.5" r="9.4"></circle>
		<path d="M75,10.1C59.5,10.1,47,22.7,47,38.1c0,0.5,0.4,1,1,1h15.2c0.5,0,1-0.4,1-1c0-5.9,4.8-10.8,10.8-10.8    c5.9,0,10.8,4.8,10.8,10.8c0,2.9-1.1,5.6-3.1,7.6c-0.3,0.3-0.8,0.7-1.3,1.2l-0.4,0.3c-5.1,4.1-14.5,11.7-14.5,28.3    c0,0.5,0.4,1,1,1h15.2c0.5,0,1-0.4,1-1c0-8.3,4.1-11.7,8.2-14.9c1.1-0.9,2.1-1.7,3-2.6c5.3-5.3,8.2-12.4,8.2-19.8    C103.2,22.6,90.6,10.1,75,10.1z"></path>
	</g>
</g>
<g id="contact_us" class="st0">
	<g class="st2">
		<path d="M113.1,79.8c-7.8-5.5-19.7-2.6-27.2-12.5c0,0-2.8-3.1,3.5-10.7s6.8-19.7,5.2-29.1C93.1,18.2,84.2,11.9,75,11.9    s-18,6.2-19.6,15.6c-1.6,9.3-1,21.5,5.2,29.1c2.5,3,3.5,5.4,3.9,7.1c0.7-0.3,1.9-0.7,3.3-0.7c1.7,0,3.3,0.5,4.8,1.4    c0.2,0.1,15.8,9.7,11,18.1c-2.6,4.6-7.8,7.3-13.8,7.3c-3.4,0-7-0.8-10.7-2.5c-6.4-2.8-11.1-6.7-14.8-10.6    c-2.7,0.7-5.2,1.6-7.4,3.1C29.1,85.3,31,98.1,31,98.1h44h44C119,98,120.9,85.4,113.1,79.8z"></path>
		<path d="M60.3,69.8L60.3,69.8c-7.2,0-14.1-12.3-15.7-17.2c-1.6-4.9,1.4-7.1,2.5-8.8c1-1.7,3-4.3,3-4.3c0.9-2.9-3-9.7-5.4-12.6    c-1.9-2.3-3.4-2.6-4-2.6c-0.2,0-0.2,0-0.2,0c-3.8,0.4-7.2,6.2-7.2,6.2c-6.8,14.7,2.8,29.4,7.1,35c2.3,3,5,6.7,8.6,10.2    c4.8-1.1,9.6-2.4,13.5-6.4C61.3,69.6,60.3,69.8,60.3,69.8z"></path>
		<path d="M69.8,85.8c5.3,0,8.8-2.6,10.3-5.3c2.3-4-6.8-11-9.5-12.6c-1-0.6-2-0.8-2.8-0.8c-1.2,0-2.1,0.5-2.1,0.5    c-1,0.9-2.2,1.4-3.2,1.7c-3.9,4-8.8,5.3-13.5,6.4c3.1,3,6.9,5.9,11.8,8C64.2,85.1,67.3,85.8,69.8,85.8z"></path>
	</g>
</g>
<g id="design_help" class="st0">
	<g class="st2">
		<path d="M66.2,82.8c0-1.6,0.4-3,1.2-4.4c0.5-0.6,0.9-1.2,1.4-1.8c0.5-0.5,1.1-1,1.7-1.3c-8.6,0-17.1,0-25.7,0    c-2.7,0-2.7,0-2.1,2.7c0.2,0.7,0.4,1.5,0.6,2.2c0.7,2,1.8,3.1,4.2,3c6.3-0.1,12.5-0.1,18.7,0V82.8z"></path>
		<path d="M74,91.5c-1.1-0.4-2.1-0.3-3.3,0c0.7,2.6,1.5,5.1,2.2,7.7c0.2,0.6,0.5,1,1.2,0.8s0.7-0.7,0.6-1.3    C74.5,96.2,74.2,93.9,74,91.5z"></path>
		<g>
			<path d="M101.9,17.9c4,0,8,0,12,0c1.4,0,1.9,0.4,2,1.8c0.3,4.2,0.8,8.4,1.3,12.5c0.2,1.7-0.2,2.5-2.2,2.7     c-9.1,1.1-18.1,1-27.2-0.1c-1.3-0.1-1.8-0.6-1.6-2c0.5-4.4,0.9-8.8,1.3-13.1c0.1-1.4,0.7-2,2.2-1.9C93.8,18,97.8,17.9,101.9,17.9     z"></path>
			<path d="M59,90.2c0,0.1-10.6,0-15.9,0c-2.6,0-4.7-1.1-5.6-3.5c-2-5.3-4-10.7-4.7-16.4c-0.1-1.1-0.1-2.2,0.2-3.3     c0.4-1.2,1-2.2,2.3-2.4c1.3-0.2,2.2,0.6,2.8,1.7c1.6,2.9,2.3,6,2.9,9.2c0.1,0.8,0.2,1.7,0.3,2.5c1.1,4.8,2.3,6.5,7.7,6.3     c7.3-0.2,14.6-0.1,21.9,0c2.5,0,4-1,5-3.2c0.7-1.7,1.2-3.4,1.3-5.2c0.3-3.1,1.2-6.1,2.5-8.9c0.6-1.3,1.6-2.7,3.3-2.3     c1.7,0.4,2.4,1.9,2.6,3.6c0.2,2.2-0.4,4.2-0.9,6.3c-0.9,3.6-2,7-3.3,10.4c-1.6,4.2-3.2,5.3-7.8,5.3c-4.9,0-19.1-0.1-24-0.1     C43.1,90.2,59,90.2,59,90.2z"></path>
			<path d="M73.6,75.4c-7.2,0-14.3,0-21.5,0c0.1,0.6,0.2,1.2,0.2,1.8v0.7c0,1.6-0.4,3-1.2,4.4c-0.2,0.3-0.5,0.6-0.7,1     c6.9,0,13.7-0.1,20.6,0.1c2.4,0.1,3.6-1,4.2-3c0.2-0.7,0.4-1.5,0.6-2.2C76.4,75.4,76.3,75.4,73.6,75.4z"></path>
			<path d="M44.2,91.5c1.1-0.4,2.1-0.3,3.3,0c-0.8,2.6-1.5,5.1-2.2,7.6c-0.2,0.6-0.5,1-1.2,0.8s-0.7-0.7-0.6-1.3     C43.7,96.2,44,93.9,44.2,91.5z"></path>
			<path d="M67.9,70.7c0-0.5,0.1-1,0.3-1.5c-0.9-0.4-1.6-1-2.3-1.6c-0.5-0.6-0.9-1.2-1.4-1.8c-0.6-1-1-2.1-1-3.2     c-0.3-1.1-0.2-2.3,0.2-3.4c0.3-1.1,0.8-2.1,1.5-2.9c0.2-0.4,0.5-0.7,0.8-1c0,0-0.1,0-0.1,0.1l0.1-0.1c0.2-0.2,0.3-0.3,0.5-0.4     c0.1-0.1,0.2-0.2,0.3-0.3c0.7-0.9,1.5-1.6,2.5-2.2c0.7-0.3,1.4-0.6,2.1-0.9c0.8-0.2,1.6-0.3,2.4-0.3l0,0c-4.9-0.1-9.8,0-14.7,0     c-5.2,0-10.5,0-15.7,0c-4.1,0-6.1,2-6.1,6.1c0,1.8,0,3.6,0,5.4c0,0.5-0.1,1.1,0.3,1.6c2.5,2.4,3.3,5.5,4,8.7     c0.3,1.2,1,1.4,2.1,1.4c8.1,0,16.2,0,24.3,0C67.7,73,67.7,71.9,67.9,70.7z"></path>
		</g>
		<path d="M61.9,61c0.3-1.1,0.8-2.1,1.5-2.9c0.3-0.5,0.7-0.9,1.2-1.3c0.2-0.3,0.5-0.7,0.7-0.9c0-0.3,0.1-0.5,0.1-0.8    c0.3-1.5,1.3-2.9,2.5-4c-2.9,0-5.9,0-8.8,0c-5.2,0-10.5,0-15.7,0c-4.1,0-6.1,2-6.1,6.1c0,1.8,0,3.6,0,5.4c0,0.5-0.1,1.1,0.3,1.6    c2.5,2.4,3.3,5.5,4,8.7c0.3,1.2,1,1.4,2.1,1.4c3.3,0,6.7,0,10,0c0.1-4.3,4-7.8,8.2-8c-0.2-0.5-0.3-1.1-0.3-1.6    C61.5,63.2,61.5,62,61.9,61z"></path>
		<path d="M56.5,61c-0.3-1.1-0.8-2.1-1.5-2.9c-0.3-0.5-0.7-0.9-1.2-1.3c-0.2-0.3-0.5-0.7-0.7-0.9c0-0.3-0.1-0.5-0.1-0.8    c-0.3-1.5-1.3-2.9-2.5-4c2.9,0,5.9,0,8.8,0c5.2,0,10.5,0,15.7,0c4.1,0,6.1,2,6.1,6.1c0,1.8,0,3.6,0,5.4c0,0.5,0.1,1.1-0.3,1.6    c-2.5,2.4-3.3,5.5-4,8.7c-0.3,1.2-1,1.4-2.1,1.4c-3.3,0-6.7,0-10,0c-0.1-4.3-4-7.8-8.2-8c0.2-0.5,0.3-1.1,0.3-1.6    C56.9,63.2,56.8,62,56.5,61z"></path>
		<path class="st4" d="M61.2,40.3H46.5c-0.6,0-1-0.4-1-1v-9.5c0-0.6,0.4-1,1-1h14.6c0.6,0,1,0.4,1,1v9.5    C62.2,40,61.7,40.3,61.2,40.3z"></path>
		<path class="st4" d="M74.8,40.5h-7.7c-0.6,0-1-0.4-1-1v-6.8c0-0.6,0.4-1,1-1h7.7c0.6,0,1,0.4,1,1v6.8C75.8,40,75.3,40.5,74.8,40.5    z"></path>
		<path class="st4" d="M74.8,28.8h-7.7c-0.6,0-1-0.4-1-1V21c0-0.6,0.4-1,1-1h7.7c0.6,0,1,0.4,1,1v6.8C75.8,28.4,75.3,28.8,74.8,28.8    z"></path>
		<path class="st4" d="M48.5,25.4h-5.3c-0.6,0-1-0.4-1-1v-6.8c0-0.6,0.4-1,1-1h5.3c0.6,0,1,0.4,1,1v6.8C49.5,25,49.1,25.4,48.5,25.4    z"></path>
		<path class="st4" d="M62,24.3h-8.8c-0.6,0-1-0.4-1-1V8.9c0-0.6,0.4-1,1-1H62c0.6,0,1,0.4,1,1v14.4C63,23.9,62.5,24.3,62,24.3z"></path>
		<path d="M105.2,38.5"></path>
		<path d="M103.2,38.5"></path>
		<polyline points="100.1,45 100.1,45 100.1,45 89.8,100.9 91.6,101.2 101.1,45.2 101,102.1 102.9,102.1 102.9,45.5 112.3,101.2     114.1,100.9 103.8,45 103.8,45 103.8,45   "></polyline>
		<polyline points="100.1,44.3 100.1,44.3 100.1,44.3 97.4,29.8 98.3,28 101.1,44.1 101,30.8 102.9,34.6 102.9,44 104.8,32.8     106.3,30.8 103.8,44.3 103.8,44.3 103.8,44.3   "></polyline>
	</g>
</g>
<g id="Layer_3" class="st0">
	<g class="st2">
		<g>
			<path d="M116.3,47.3c0.2-4.7-2.8-7.2-3.2-7.5L83.7,16.3c-6.6-5.8-13.6-2.8-16.4-0.5c-7.5,5.9-30.2,23.4-30.4,23.5     c-0.1,0.1-3.5,2.5-3.3,7.5c0,1.5-0.1,36.7,0,40.6c0.1,3,2.1,9.2,8,9.2c6.4,0.1,21.1,0.1,28.1,0c6.7-0.1,6.7-7,6.7-9.2l0-0.4     c0-0.1,0-0.1,0-0.2l0-29.2c0-1-0.7-1.8-1.6-1.8h-0.1c-0.5,0-1.1,0.2-1.8,0.4L68.3,58c-0.7,0.3-1.1,0.8-1.1,1.6     c0,0.9,0.7,1.6,1.4,1.6c0.2,0,0.5,0,0.7-0.1l4-1.5l0,27.3c0,0,0,0.1,0,0.1l0,0.5c0,5-1.4,6-3.6,6.1c-6.9,0.1-21.7,0.1-28,0     c-3.9,0-4.8-4.9-4.9-6.1c-0.1-3.9,0-40.2,0-40.7c-0.2-3.2,1.9-4.7,2-4.8c0.2-0.2,22.9-17.6,30.5-23.6c0.2-0.2,6.2-5,12.4,0.5     l29.5,23.6l0.1,0.1c0,0,2.1,1.6,1.9,4.9c0,0.4,0.1,36.7,0,40.6c0,1.2-1,6.1-4.9,6.1c-6.6,0.1-9.9,0.1-16.8,0c0,0,0,0,0,0     c-0.9,0-1.6,0.7-1.6,1.6c0,0.9,0.7,1.6,1.6,1.6c3.3,0,5.8,0,8.3,0c2.6,0,5.1,0,8.5,0c5.9,0,8-6.2,8-9.2     C116.4,83.9,116.4,48.7,116.3,47.3z"></path>
			<path d="M99.8,97.3c-2.4,0-4.9,0-8.3,0c-1,0-1.7-0.8-1.7-1.8c0-1,0.8-1.7,1.8-1.7c6.9,0.1,10.2,0.1,16.8,0c3.8,0,4.7-4.8,4.7-5.9     c0.1-3.6,0-34.3,0-40.4l0-0.2c0.2-3.2-1.8-4.7-1.9-4.7l-0.1-0.1L81.6,18.8c-6.1-5.4-11.9-0.7-12.2-0.5C62.3,24,41.3,40.1,39,41.9     L38.9,42c-0.1,0.1-2.1,1.6-1.9,4.7c0,0.1,0,0.8,0,2c0,23.4,0,36.4,0,38.7c0,1.2,0.9,5.9,4.7,5.9c6.4,0.1,21.1,0.1,28,0     c2.1,0,3.4-1,3.4-5.9l0-0.5c0,0,0,0,0-0.1l0-27l-3.8,1.4c-0.3,0.1-0.5,0.1-0.8,0.1c-0.8,0-1.6-0.8-1.6-1.7c0-0.8,0.4-1.4,1.3-1.7     L73,56c0.7-0.2,1.3-0.4,1.8-0.4h0.1c1,0,1.8,0.9,1.8,2l0,29.2l0,0.1c0,0,0,0.1,0,0.1l0,0.4c0,2.3,0,9.3-6.9,9.4     c-7,0.1-21.7,0.1-28.1,0c-6-0.1-8.1-6.3-8.2-9.4c-0.1-4,0-39.2,0-40.6c-0.2-5,3.2-7.5,3.3-7.6c0,0,0.2-0.2,0.6-0.5     c8.6-6.6,23.8-18.4,29.8-23c2.8-2.4,10-5.4,16.6,0.5l29.4,23.5c0.4,0.3,3.5,2.8,3.3,7.6c0,1.9,0.1,36.6,0,40.6     c-0.1,3-2.1,9.3-8.2,9.4C105.2,97.3,102.5,97.3,99.8,97.3z M91.6,94.1c-0.8,0-1.4,0.6-1.4,1.4c0,0.8,0.6,1.4,1.4,1.4     c3.4,0,5.9,0,8.3,0c2.7,0,5.4,0,8.5,0c5.8,0,7.8-6.1,7.9-9c0.1-3.9,0-38.7,0-40.6l0,0c0.2-4.7-2.8-7.1-3.1-7.4L83.6,16.4     c-6.5-5.7-13.4-2.8-16.2-0.5c-5.9,4.7-21.2,16.4-29.8,23c-0.4,0.3-0.6,0.5-0.6,0.5c-0.1,0.1-3.4,2.5-3.2,7.3     c0,0.4-0.1,36.7,0,40.6c0.1,2.9,2.1,9,7.9,9c6.3,0.1,21.1,0.1,28.1,0c6.6-0.1,6.6-6.8,6.6-9.1l0-0.4c0,0,0-0.1,0-0.1l0-0.1     l0-29.2c0-0.9-0.6-1.6-1.4-1.6h-0.1c-0.5,0-1.1,0.2-1.7,0.4l-4.7,1.8c-0.7,0.3-1,0.7-1,1.4c0,0.8,0.6,1.4,1.2,1.4     c0.2,0,0.4,0,0.6-0.1l4.3-1.6l0,28.1c0,5.2-1.4,6.2-3.7,6.2c-6.9,0.1-21.7,0.1-28,0c-4,0-5-5-5-6.3c0-2.2,0-15.2,0-38.7     c0-1.2,0-1.9,0-2c-0.2-3.2,1.8-4.8,2-5l0.1,0c2.4-1.8,23.3-17.9,30.4-23.5c0.3-0.2,6.3-5.1,12.6,0.5l29.6,23.6c0,0,2.2,1.6,2,5     l0,0.1c0,6.1,0.1,36.8,0,40.4c0,1.2-1,6.2-5,6.3C101.7,94.1,98.4,94.1,91.6,94.1z"></path>
		</g>
		<g>
			<path d="M69.7,96.6c6.7-0.1,6.7-7,6.7-9.2l0-0.4c0-0.1,0-6.3,0-6.3V57.5c0-1-0.7-1.8-1.6-1.8h-0.1c-0.5,0-1.1,0.2-1.8,0.4     L68.3,58c-0.7,0.3-1.1,0.8-1.1,1.6c0,0.9,0.7,1.6,1.4,1.6c0.2,0,0.5,0,0.7-0.1l4-1.5l0,27.3c0,0,0,0.1,0,0.1l0,0.5     c0,5-1.4,6-3.6,6.1l-7,0v3.2L69.7,96.6z"></path>
			<path d="M62.5,96.8v-3.5l7.2,0c2.1,0,3.4-1,3.4-5.9l0-0.5c0,0,0,0,0-0.1l0-27l-3.8,1.4c-0.3,0.1-0.5,0.1-0.8,0.1     c-0.8,0-1.6-0.8-1.6-1.7c0-0.8,0.4-1.4,1.3-1.7L73,56c0.7-0.2,1.3-0.4,1.8-0.4h0.1c1,0,1.8,0.9,1.8,2v23.1c0,0.1,0,6.3,0,6.3     l0,0.4c0,2.3,0,9.3-6.9,9.4h0L62.5,96.8z M62.9,93.6v2.8l6.9,0c6.6-0.1,6.6-6.8,6.6-9.1l0-0.4c0-0.1,0-6.3,0-6.3V57.5     c0-0.9-0.6-1.6-1.4-1.6h-0.1c-0.5,0-1.1,0.2-1.7,0.4l-4.7,1.8c-0.7,0.3-1,0.7-1,1.4c0,0.8,0.6,1.4,1.2,1.4c0.2,0,0.4,0,0.6-0.1     l4.3-1.6l0,28.1c0,4.5-1,6.2-3.7,6.2L62.9,93.6z"></path>
		</g>
	</g>
</g>
</svg>
