<?xml version="1.0" encoding="UTF-8"?>
<svg xmlns="http://www.w3.org/2000/svg" viewBox="0 0 150 110">
  <title>bar-stools</title>
  <path d="M90.92,23.89h4.36V21a7.62,7.62,0,0,0-7.61-7.62H62.33A7.62,7.62,0,0,0,54.72,21v2.88h4.36L52.93,96.31l3.57.3,2.4-28.23H91.1l2.4,28.23,3.57-.3ZM57.14,21.47a5.34,5.34,0,0,1,1.16-4.06,5.47,5.47,0,0,1,3.9-1.93c2.84-.09,5.66-.07,8.49-.11,5.66.05,11.32.07,17,.44-5.66.38-11.32.4-17,.45l-8.48-.1A5.18,5.18,0,0,0,57.14,21.47ZM59.2,64.8l3.48-40.91H87.32L90.8,64.8Z" fill="#131313"></path>
</svg>
