<?xml version="1.0" encoding="UTF-8"?>
<!-- Generator: Adobe Illustrator 19.0.0, SVG Export Plug-In . SVG Version: 6.00 Build 0)  -->
<svg xmlns="http://www.w3.org/2000/svg" xmlns:xlink="http://www.w3.org/1999/xlink" version="1.1" id="Layer_3" x="0px" y="0px" viewBox="0 0 150 110" style="enable-background:new 0 0 150 110;" xml:space="preserve">
<path d="M51.6,62h-9.4v-7h9.4V62z M51.6,50.3V19.9h-9.4v30.4H51.6z M103.1,12.9H55c0.8,1.4,1.3,3,1.3,4.7v67.9h51.5V17.5  C107.8,15,105.7,12.9,103.1,12.9z M121.8,12.9c-1.7,0-3.2,1-4,2.3h-5.7c0.2,0.8,0.3,1.5,0.3,2.3v2.3h5.3c0.8,1.4,2.3,2.3,4,2.3  c2.6,0,4.7-2.1,4.7-4.7S124.4,12.9,121.8,12.9z M107.8,90.1H56.3v7h51.5V90.1z M46.9,12.9c-1.7,0-3.2,0.9-4,2.3h8.1  C50.1,13.8,48.6,12.9,46.9,12.9z M32.2,19.9h5.3h2.3h2.3v-2.3v-2.3h-1.9h-0.4h-2h-5.7c-0.8-1.4-2.3-2.3-4-2.3  c-2.6,0-4.7,2.1-4.7,4.7s2.1,4.7,4.7,4.7C29.9,22.2,31.4,21.3,32.2,19.9z"></path>
</svg>
