<?xml version="1.0" encoding="UTF-8"?>
<svg xmlns="http://www.w3.org/2000/svg" viewBox="0 0 150 110">
  <title>bedside-tables</title>
  <path d="M61.17,26.75c0,.2.39.37.73.46V35a6.21,6.21,0,0,0-5.83,6.14H68.5A6.22,6.22,0,0,0,62.7,35V27.21c.32-.1.7-.26.7-.46l-.2-1.82H73.91V11.12H50.75V24.93H61.37Zm.19-8.87H53.15v-.63h8.21Zm0-1.91H53.15v-.63h8.21Zm0-1.65H53.15v-.63h8.21Zm41.56,27.46H47.08a4.86,4.86,0,0,0-4.86,4.85V71.5a4.86,4.86,0,0,0,4.86,4.85h4.06l-6,22.53H47.6L58.69,76.35H91.13l11.09,22.53h2.4L98.68,76.35h4.24a4.86,4.86,0,0,0,4.86-4.85V46.63A4.86,4.86,0,0,0,102.92,41.78ZM104.72,70c0,2.36-1.18,3.55-3.54,3.55H48.82c-2.36,0-3.54-1.19-3.54-3.55V48.11q0-3.54,3.54-3.54h52.36q3.54,0,3.54,3.54Zm-29.78.81A2.46,2.46,0,0,1,72.5,73.3H49.71v-.8h1.45a2.79,2.79,0,0,0,.43-1.64,3,3,0,0,0-.43-1.73H49.71v-.8H72.5A2.46,2.46,0,0,1,74.94,70.82ZM73,62.51H51.13v-.63h.74a1.18,1.18,0,0,0,.45-1,1.21,1.21,0,0,0-.46-1.07h-.73v-.63H73a1.68,1.68,0,1,1,0,3.33Zm3.48,2.92A2.47,2.47,0,0,1,74,67.91H54.67v-.8h.69a3.2,3.2,0,0,0,0-3.37h-.67v-.8H74A2.47,2.47,0,0,1,76.49,65.43ZM88,48.64h3.8V73.3H88Zm4.23,0H96V73.3H92.27Zm4.23,0h3.77V73.3H96.5Zm-16.9,0h3.81V73.3H79.6Zm4.23,0H87.6V73.3H83.83ZM77,36.52a.12.12,0,0,1,0-.1s0-.05,0-.06a.1.1,0,0,1,0,0l0,0h.06a.17.17,0,0,1,.12,0,.11.11,0,0,1,0,.1.12.12,0,0,1,0,.1.2.2,0,0,1-.24,0Zm.5-3.26v-.13s0,0,0-.07,0,0,0-.06,0,0,0,0l0-.05,0,0h.11l0,0a.05.05,0,0,1,0,.05l0,0a.13.13,0,0,0,0,.06v.07s0,0,0,.07,0,0,0,.06v.07s0,0,0,.06l0,0a.1.1,0,0,1,0,.05l0,0h-.11l0,0,0,0s0,0,0-.06a.13.13,0,0,1,0-.06S77.51,33.28,77.51,33.26Zm-.26,3.44a.17.17,0,0,1,0,.12.13.13,0,0,1,0,.11.16.16,0,0,1-.12,0L77,37l-.06,0a.24.24,0,0,1,0-.09A.13.13,0,0,1,77,36.7a.2.2,0,0,1,.24,0Zm2.94,2.94A4.66,4.66,0,1,0,75.54,35,4.66,4.66,0,0,0,80.19,39.64Zm-3.63-2.48a.14.14,0,0,1-.14-.14.13.13,0,0,1,.14-.13.13.13,0,0,1,.13.13A.13.13,0,0,1,76.56,37.16Zm.82-.21a.25.25,0,0,1-.1.08.4.4,0,0,1-.15,0A.33.33,0,0,1,77,37a.22.22,0,0,1-.14-.21.25.25,0,0,1,0-.13.2.2,0,0,1,.13-.08.19.19,0,0,1-.12-.07.2.2,0,0,1,0-.24.39.39,0,0,1,.1-.08l.14,0h.11l.08,0a.16.16,0,0,1,.06.08.13.13,0,0,1,0,.09.2.2,0,0,1,0,.13.17.17,0,0,1-.11.06.24.24,0,0,1,.13.08.25.25,0,0,1,0,.13A.28.28,0,0,1,77.38,37Zm.7,1.74a.13.13,0,0,1-.13-.13.13.13,0,0,1,.13-.14.14.14,0,0,1,.14.14A.13.13,0,0,1,78.08,38.69Zm.55-1.12-.3.69a0,0,0,0,1,0,0h0a.05.05,0,0,1,0,0s0,0,0,0l.28-.66h-.42s0,0,0,0,0,0,0,0h.53s0,0,0,0A.09.09,0,0,1,78.63,37.57Zm1.56,1.69a.13.13,0,0,1,0-.26.13.13,0,1,1,0,.26Zm.23-.6a.3.3,0,0,1-.21.07.23.23,0,0,1-.12,0,.19.19,0,0,1-.09-.05.26.26,0,0,1,0-.09.42.42,0,0,1,0-.1v-.21a.28.28,0,0,1,0-.09l0-.1A.25.25,0,0,1,80,38l.06-.07a.2.2,0,0,1,.08,0l.12,0a.41.41,0,0,1,.18.05s0,0,0,0a.05.05,0,0,1,0,0s0,0,0,0h0a.4.4,0,0,0-.15,0h-.07l0,0s0,0,0,0l0,.06a.35.35,0,0,0,0,.06.17.17,0,0,0,0,.07v.08a.13.13,0,0,1,.07-.08.18.18,0,0,1,.13,0,.26.26,0,0,1,.19.08.25.25,0,0,1,.07.19A.29.29,0,0,1,80.42,38.66Zm1.4-.36a.26.26,0,0,1-.11-.07l0,0a.05.05,0,0,1,0,0l0,0h0a.28.28,0,0,0,.19.07.14.14,0,0,0,.13,0,.17.17,0,0,0,0-.13.17.17,0,0,0,0-.12.13.13,0,0,0-.11,0l-.1,0a.18.18,0,0,0-.07.05h-.07s0,0,0,0v-.38s0,0,.05,0h.42v0s0,0,0,0H81.8v.29h0l0,0,0,0H82a.25.25,0,0,1,.19.07.32.32,0,0,1,.07.19.26.26,0,0,1-.08.2.29.29,0,0,1-.21.08A.28.28,0,0,1,81.82,38.3Zm.46.39a.13.13,0,1,1,0-.26.13.13,0,1,1,0,.26Zm1.27-1.9h-.12v.13s0,0,0,0h-.07s0,0,0,0V36.8H83s0,0,0,0,0,0,0,0a.08.08,0,0,1,0,0l.32-.5a.11.11,0,0,1,.09-.05l.06,0a.08.08,0,0,1,0,.06v.49h.12a0,0,0,0,1,0,.06Zm.27.38a.13.13,0,0,1,0-.26.13.13,0,1,1,0,.26Zm.56-2.36a.13.13,0,0,1,0,.26.13.13,0,1,1,0-.26Zm-.54-2.1a.13.13,0,1,1,0,.26.13.13,0,1,1,0-.26Zm0,1.88a.2.2,0,0,1,.1.08.2.2,0,0,1,0,.24l-.1.07a.18.18,0,0,1,.11.07.24.24,0,0,1,0,.14.2.2,0,0,1,0,.11.13.13,0,0,1-.06.07l-.09,0-.11,0a.38.38,0,0,1-.19,0s0,0,0,0a.06.06,0,0,1,0,0h.05a.32.32,0,0,0,.16,0,.21.21,0,0,0,.12,0,.14.14,0,0,0,0-.11.17.17,0,0,0,0-.12.24.24,0,0,0-.15,0h0l0,0s0,0,0,0a0,0,0,0,1,0,0h.07a.18.18,0,0,0,.13,0,.12.12,0,0,0,0-.1.13.13,0,0,0,0-.1.17.17,0,0,0-.12,0,.53.53,0,0,0-.17,0h0s0,0,0,0,0,0,0,0l.08,0h.13Zm-.38-1.66a.21.21,0,0,0-.11,0h-.12l0,0,0,0h0l0,0a0,0,0,0,1,0,0s0,0,0,0l.11,0,.13,0a.24.24,0,0,1,.18.07.2.2,0,0,1,.07.16.28.28,0,0,1,0,.13.38.38,0,0,1-.1.13l-.27.26h.38a.05.05,0,0,1,0,0l0,0h-.43l-.06,0a.05.05,0,0,1,0,0,.09.09,0,0,1,0-.06l.3-.3.07-.09a.13.13,0,0,0,0-.08A.16.16,0,0,0,83.42,32.93ZM82.3,31.19a.13.13,0,0,1,0,.26.13.13,0,1,1,0-.26Zm-.54.49.19-.12H82a.06.06,0,0,1,0,0v.73a.06.06,0,0,1,0,0h-.09a.06.06,0,0,1,0,0v-.66l-.13.08h0a0,0,0,0,1,0,0S81.74,31.69,81.76,31.68Zm-1.32-.55h.13a.24.24,0,0,1,.26.23.28.28,0,0,1,0,.13l-.11.13-.27.26h.39a0,0,0,0,1,0,.06.05.05,0,0,1,0,0h-.4l-.05,0a0,0,0,0,1,0,0,.14.14,0,0,1,0-.06l.31-.31.07-.09a.19.19,0,0,0,0-.08.14.14,0,0,0,0-.11.14.14,0,0,0-.11,0h-.07l0,0,0,0,0,0h-.05s0,0,0,0l0,0Zm-.25-.53a.13.13,0,1,1,0,.26.13.13,0,0,1,0-.26Zm-.5.66.2-.13h0a.07.07,0,0,1,.06.06v.72a.05.05,0,0,1,0,0l0,0,0,0a.05.05,0,0,1,0,0v-.65l-.13.08h0a0,0,0,0,1,0,0S79.68,31.26,79.69,31.26Zm-.21,3.29.51.26.05,0,.13-2h0l.14,2a.27.27,0,0,1,.1.21s0,0,0,0L83,36.33v0l-2.61-1.24a.27.27,0,0,1-.22.15.21.21,0,0,1-.15-.07L77,35.86l0,0,3-.94-.49-.23Zm-.75-2.84.2-.13h0l0,0s0,0,0,0v.72s0,0,0,0l0,0,0,0s0,0,0,0V31.7l-.13.08h0l0,0a0,0,0,0,1,0,0S78.71,31.72,78.73,31.71Zm-.36-.14,0,0s0,0,0,0v.72a.05.05,0,0,1,0,0l0,0a.05.05,0,0,1,0,0s0,0,0,0V31.7l-.13.08h0l0,0a0,0,0,0,1,0,0s0,0,0,0l.2-.13Zm-.28-.39a.13.13,0,0,1,.13.13.13.13,0,0,1-.13.14.14.14,0,0,1-.14-.14A.13.13,0,0,1,78.09,31.18Zm-.41,1.59c.2,0,.3.14.3.43,0,0,0,.09,0,.13l0,.11a.31.31,0,0,1,0,.1.18.18,0,0,1-.09.06.21.21,0,0,1-.12,0l-.12,0a.16.16,0,0,1-.08-.06.31.31,0,0,1,0-.1.2.2,0,0,1,0-.11.57.57,0,0,1,0-.13C77.39,32.91,77.49,32.77,77.68,32.77Zm-.81.14.2-.12h0a.07.07,0,0,1,.06.06v.72a.05.05,0,0,1,0,0h-.08a.05.05,0,0,1,0,0V32.9l-.12.08h-.06a0,0,0,0,1,0,0A.05.05,0,0,1,76.87,32.91Zm-.3-.19a.13.13,0,1,1,0,.26.13.13,0,1,1,0-.26Zm-.11,1.85a.24.24,0,0,1,.2-.08l.13,0,.08.05a.47.47,0,0,1,.06.09l0,.1a.49.49,0,0,1,0,.12V35s0,.06,0,.1a.29.29,0,0,1,0,.09l0,.07-.06.07-.09,0-.11,0a.41.41,0,0,1-.18-.05s0,0,0,0,0,0,0,0l0,0h0a.4.4,0,0,0,.15,0h.07l.06,0,0,0s0,0,0,0a.64.64,0,0,0,0-.07.17.17,0,0,1,0-.07v-.08a.13.13,0,0,1-.07.08.2.2,0,0,1-.13,0,.28.28,0,0,1-.2-.08.27.27,0,0,1-.07-.19A.26.26,0,0,1,76.46,34.57ZM76,34.8a.13.13,0,0,1,.13.13.13.13,0,0,1-.13.13.13.13,0,0,1-.14-.13A.13.13,0,0,1,76,34.8Zm.56.09a.17.17,0,0,1,0-.13.18.18,0,0,1,0-.13.17.17,0,0,1,.13-.05.15.15,0,0,1,.12.05.21.21,0,0,1,0,.13.22.22,0,0,1,0,.14.17.17,0,0,1-.13,0C76.6,34.94,76.56,34.93,76.54,34.89Zm3.8,3.44a.25.25,0,0,1,0,.13.19.19,0,0,1,0,.13.17.17,0,0,1-.12,0,.17.17,0,0,1-.13,0,.21.21,0,0,1,0-.13.17.17,0,0,1,0-.13.16.16,0,0,1,.14,0A.13.13,0,0,1,80.34,38.33ZM74.66,35a5.53,5.53,0,0,0,2.39,4.55l-.55,1a.36.36,0,0,0-.34.15.37.37,0,0,0,.1.5.36.36,0,0,0,.5-.1.35.35,0,0,0,0-.38l.74-.91a5.41,5.41,0,0,0,2.68.7,5.52,5.52,0,0,0,2.69-.7l.75.91a.35.35,0,0,0,0,.38.36.36,0,0,0,.5.1.36.36,0,0,0,.09-.5.33.33,0,0,0-.33-.15l-.56-1A5.51,5.51,0,0,0,83,30.24l.24-.47,1.63.85.16-.32a1.08,1.08,0,0,0-.46-1.46l-.41-.21.08-.16-.08,0c.11-.22,0-.39-.24-.5s-.44-.13-.55.09l-.1-.05-.08.15L82.9,28a1.09,1.09,0,0,0-1.47.46l-.16.32,1.54.8-.24.45a5.56,5.56,0,0,0-2.2-.53v-.62a.43.43,0,0,0,.26-.4.44.44,0,0,0-.44-.44.44.44,0,0,0-.44.44.43.43,0,0,0,.27.4v.62a5.58,5.58,0,0,0-2.17.52l-.23-.44,1.54-.8L79,28.42A1.08,1.08,0,0,0,77.53,28l-.32.16L77.13,28,77,28c-.12-.22-.34-.2-.55-.09s-.35.28-.25.5l-.08,0,.08.16-.4.21a1.08,1.08,0,0,0-.46,1.46l.16.32,1.63-.85.23.45A5.51,5.51,0,0,0,74.66,35Zm5.53-4.87A4.87,4.87,0,1,1,75.33,35,4.87,4.87,0,0,1,80.19,30.12ZM83,36.72l.28-.45v.45Z" fill="#131313"></path>
</svg>
