<?xml version="1.0" encoding="UTF-8"?>
<svg xmlns="http://www.w3.org/2000/svg" viewBox="0 0 150 110">
  <title>beds</title>
  <path d="M125.78,79.93a8,8,0,0,1-8,8h-4.12l-2.53,7.63H36.35L33.83,88H32.25a8,8,0,0,1,0-16.06h85.5A8,8,0,0,1,125.78,79.93ZM39.5,41.78l4.06-8.21h5.6a41.71,41.71,0,0,0-1.27-5.24,42,42,0,0,1,25.5,0,17,17,0,0,0-1.62,5.24h6.12a43.74,43.74,0,0,0-1.28-5.24,42,42,0,0,1,25.5,0,17.26,17.26,0,0,0-1.62,5.24h6l4.06,8.21A9.75,9.75,0,0,0,115,33.56V19.66a5.25,5.25,0,0,0-5.25-5.25H40.23A5.25,5.25,0,0,0,35,19.66v13.9a9.75,9.75,0,0,0,4.52,8.22Zm32.33-4.67c2.12,0,4.24,0,6.37,0a15.27,15.27,0,0,0-.06-1.61H71.68A11.89,11.89,0,0,0,71.83,37.11ZM117.75,70A9.81,9.81,0,0,1,123,71.47L107.53,40.16a480.15,480.15,0,0,0-65,0L27,71.47A9.81,9.81,0,0,1,32.25,70ZM43.48,38.12c2-.13,4-.26,6-.37a13.16,13.16,0,0,0,0-2.24H44.77Zm56.92-2.61a12.15,12.15,0,0,0,.3,2.3l5.84.34-1.31-2.64Z" fill="#131313"></path>
</svg>
