<?xml version="1.0" encoding="UTF-8"?>
<svg xmlns="http://www.w3.org/2000/svg" viewBox="0 0 150 110">
  <title>coffee-tables</title>
  <path d="M76.82,50.23H73.17c-27.48,0-48.85-7.25-53-12.81l7.33,9.09q2.91.84,5.81,1.57L33,48,44.89,59.75l3.2,20L29.6,47.11l-2-.55L49.2,84.66l26-25.83,25.52,25.08L122,46.66l-2,.55L101.76,79.12l3.14-20.49,10-10.09c-1,.23-1.93.46-2.9.67L105.31,56l.86-5.55-1.35.25-1.06,6.87-5.82,5.9,1.19-11.85-.38.06a176.13,176.13,0,0,0,23.78-5.13l7.33-9.09C125.68,43,104.31,50.23,76.82,50.23Zm-32.07.35-1.36-.25,1.08,6.76L36,48.75l-2.2-.54a172.37,172.37,0,0,0,17.43,3.42l-.73-.1,1.21,12.69L46,58.63Zm6.67,1.08q5.85.83,11.68,1.23c-1.11-.08-2.23-.17-3.34-.27l12.39,4.57L53.07,65,51.81,51.72ZM49.74,81.88,46.45,61.29l6,5.88L73,58.78Zm25-25.74-2.94-2.89-2.33,0,1.76,1.72-5-1.85-2.73-.16q5.79.38,11.57.35c3.31,0,6.63-.09,10-.27-1,0-2,.12-2.92.16l-2,.8.76-.76-2.31.05-2.28,2.27Zm28.64,4.06-3.21,20.94L78,59.32l19.74,6.62Zm-5.53-8.43L96.57,64.26,77.09,57.09l10.39-4.24-.34,0q5.72-.4,11.43-1.21ZM19.39,34.69c0-5.64,24.9-10.2,55.61-10.2s55.61,4.56,55.61,10.2S107.53,49.37,76.82,49.37H73.17C42.47,49.37,19.39,40.33,19.39,34.69Z" fill="#131313" fill-rule="evenodd"></path>
</svg>
