<?xml version="1.0" encoding="UTF-8"?>
<!-- Generator: Adobe Illustrator 19.0.0, SVG Export Plug-In . SVG Version: 6.00 Build 0)  -->
<svg xmlns="http://www.w3.org/2000/svg" xmlns:xlink="http://www.w3.org/1999/xlink" version="1.1" id="Layer_1" x="0px" y="0px" viewBox="0 0 150 110" style="enable-background:new 0 0 150 110;" xml:space="preserve">
<path d="M84.1,65.5c0,1.9-1.5,3.4-3.4,3.4H54.2c-1.9,0-3.4-1.5-3.4-3.4c0-1.9,1.5-3.4,3.4-3.4h26.4C82.5,62.1,84.1,63.6,84.1,65.5z   M90.3,50.8h-3.9c-1.3,0-2.4,1.1-2.4,2.4c0,1.3,1.1,2.4,2.4,2.4h3.9c1.3,0,2.4-1.1,2.4-2.4C92.7,51.9,91.6,50.8,90.3,50.8z   M48.4,50.8h-3.9c-1.3,0-2.4,1.1-2.4,2.4c0,1.3,1.1,2.4,2.4,2.4h3.9c1.3,0,2.4-1.1,2.4-2.4C50.8,51.9,49.7,50.8,48.4,50.8z   M87.4,57.8c-0.5,0-0.9,0.4-0.9,0.9v5.8c0,0.5,0.4,0.9,0.9,0.9s0.9-0.4,0.9-0.9v-5.8C88.4,58.2,88,57.8,87.4,57.8z M47.4,57.8  c-0.5,0-0.9,0.4-0.9,0.9v5.8c0,0.5,0.4,0.9,0.9,0.9c0.5,0,0.9-0.4,0.9-0.9v-5.8C48.3,58.2,47.9,57.8,47.4,57.8z M72.7,71.9  c0-0.7-0.5-1.2-1.2-1.2h-8c-0.7,0-1.2,0.5-1.2,1.2c0,0.7,0.5,1.2,1.2,1.2h8C72.1,73.1,72.7,72.6,72.7,71.9z M66.1,75.3v3.2  c0,0.7,0.6,1.3,1.3,1.3c0.7,0,1.3-0.6,1.3-1.3v-3.2c0-0.7-0.6-1.3-1.3-1.3C66.7,74,66.1,74.6,66.1,75.3z M67.4,84  c-1.2,0-2.3,1-2.3,2.2c0,1.2,1,2.2,2.3,2.2s2.3-1,2.3-2.2C69.7,84.9,68.7,84,67.4,84z M81.1,87.1c-1.2,0-2.3,1-2.3,2.2  c0,1.2,1,2.2,2.3,2.2c1.2,0,2.3-1,2.3-2.2C83.3,88,82.3,87.1,81.1,87.1z M53.8,87.1c-1.2,0-2.3,1-2.3,2.2c0,1.2,1,2.2,2.3,2.2  c1.2,0,2.3-1,2.3-2.2C56.1,88,55,87.1,53.8,87.1z M79.9,85.9c-3.2-3.4-7.6-5.3-12.3-5.4c-4.7-0.1-9.2,1.6-12.7,4.9l0.7,0.7  c3.2-3.1,7.5-4.7,11.9-4.6c4.4,0.1,8.6,1.9,11.6,5.1L79.9,85.9z M117.9,45.4L117.9,45.4l-2.8,0v0H80.5v-6.8c0-4.1-3.1-7.5-6.9-7.5  H61.2c-3.8,0-6.9,3.3-6.9,7.5v6.8h-15v0h-2.8v0h-0.4v2.8h0.4v45.1h2.8V48.2h15v11.5h26.2V48.2h13.9v40.1h20.6v5h2.8v-5V48.2h0  L117.9,45.4L117.9,45.4z M42.2,36.8c-5.5,0-10-4.5-10-10c0-5.5,4.5-10,10-10c5.5,0,10,4.5,10,10C52.2,32.3,47.7,36.8,42.2,36.8z   M42.2,35.1c4.5,0,8.2-3.7,8.2-8.2c0-4.5-3.7-8.2-8.2-8.2c-4.5,0-8.2,3.7-8.2,8.2C34,31.4,37.6,35.1,42.2,35.1z M49.1,27  c0,3.9-3.1,7-7,7s-7-3.1-7-7c0-3.9,3.1-7,7-7S49.1,23.1,49.1,27z M41.3,21.5c0,0.5,0.4,0.9,0.9,0.9c0.5,0,0.9-0.4,0.9-0.9  c0-0.5-0.4-0.9-0.9-0.9C41.7,20.6,41.3,21.1,41.3,21.5z M37.7,27c0-0.5-0.4-0.9-0.9-0.9s-0.9,0.4-0.9,0.9c0,0.5,0.4,0.9,0.9,0.9  S37.7,27.5,37.7,27z M43.1,32.6c0-0.5-0.4-0.9-0.9-0.9c-0.5,0-0.9,0.4-0.9,0.9c0,0.5,0.4,0.9,0.9,0.9C42.7,33.5,43.1,33.1,43.1,32.6  z M46.2,27c0-0.1-0.1-0.2-0.2-0.2h-3.6v-2.6c0-0.2-0.2-0.4-0.4-0.4c-0.2,0-0.4,0.2-0.4,0.4v2.6c0,0,0,0.1,0,0.1c0,0,0,0,0,0.1  c0,0.1,0.1,0.2,0.2,0.2H46C46.1,27.2,46.2,27.1,46.2,27z M48.3,27c0-0.5-0.4-0.9-0.9-0.9c-0.5,0-0.9,0.4-0.9,0.9  c0,0.5,0.4,0.9,0.9,0.9C47.9,27.9,48.3,27.5,48.3,27z"></path>
</svg>
