<?xml version="1.0" encoding="UTF-8"?>
<svg xmlns="http://www.w3.org/2000/svg" viewBox="0 0 150 110">
  <title>dining-tables</title>
  <path d="M74.76,79.69,75,83.47H51.37V81.94L65,79.69c3-13.79-2.95-9.81-9.22-22.93-2.48-5.18-2.49-11.4,2-18.22h6.15A14.16,14.16,0,0,0,60,45.39,13.85,13.85,0,0,0,60,51C62,61.7,71.61,65.12,74.15,74.67A19,19,0,0,1,74.76,79.69ZM60.33,50.61C62.31,61.33,72,64.75,74.48,74.3,75,59.79,61.92,60.16,60.36,45A13.86,13.86,0,0,0,60.33,50.61Zm-7.8,25-1.16,6,13.27-2.24A33.05,33.05,0,0,0,65.41,74Zm41.73-18.8c2.48-5.18,2.48-11.4-2-18.22H86.11A13.41,13.41,0,0,1,90,51C88,61.7,78.38,65.12,75.85,74.67a19,19,0,0,0-.62,5L75,83.47H98.62V81.94L85,79.69C82.06,65.9,88,69.88,94.26,56.76ZM89.75,45C88.19,60.16,75.15,59.79,75.62,74.3c2.54-9.55,12.17-13,14.16-23.69A14,14,0,0,0,89.75,45ZM84.48,74a32,32,0,0,0,.77,5.39l13.37,2.24-1.16-6Zm47.4-38.56L123,26.65l-48.08-.12-48.07.12L18,35.39l56.93-.06Zm.06.38L75,35.71l-56.94.06a2,2,0,0,0-1.89,2.57H133.83A2,2,0,0,0,131.94,35.77Z" fill="#131313" fill-rule="evenodd"></path>
</svg>
