<?xml version="1.0" encoding="UTF-8"?>
<!-- Generator: Adobe Illustrator 24.3.0, SVG Export Plug-In . SVG Version: 6.00 Build 0)  -->
<svg xmlns="http://www.w3.org/2000/svg" xmlns:xlink="http://www.w3.org/1999/xlink" version="1.1" id="Layer_1" x="0px" y="0px" viewBox="0 0 150 110" style="enable-background:new 0 0 150 110;" xml:space="preserve">
<style type="text/css">
	.st0{display:none;}
	.st1{display:inline;fill:#131313;}
	.st2{display:inline;}
	.st3{fill-rule:evenodd;clip-rule:evenodd;}
	.st4{fill:none;stroke:#000000;stroke-miterlimit:10;}
	.st5{fill:none;}
	.st6{fill:none;stroke:#000000;stroke-width:0.2;stroke-miterlimit:10;}
	.st7{fill:none;stroke:#000000;stroke-width:0.5;stroke-miterlimit:10;}
	.st8{fill:none;stroke:#000000;stroke-width:1;stroke-miterlimit:10;}
	.st9{display:inline;fill:none;stroke:#000000;stroke-width:4;stroke-miterlimit:10;}
	.st10{stroke:#000000;stroke-miterlimit:10;}
</style>
<g id="Layer_1_1_" class="st0">
	<path class="st1" d="M17.2,51.5h0.4c6.9-0.5,11.9-0.7,20.1-0.9h0.8c0.8,0,1.8,0,2.8,0c10,0,26.2,1,30.4,1.8   c1.7,0.3,2.4,0.7,2.7,1.3c-6.4,0.3-27.5,0.7-44,0.7c-11,0-18.3-0.1-20.7-0.4C10.3,52.1,12.1,51.9,17.2,51.5z M9.5,55.2L9.5,55.2   c0,0.2,0,0.3,0,0.5s0,0.4,0,0.6l0,0l0,0V57c-0.2,3-0.3,6.3,1.5,8.1c0.7,0.7,1.6,1.2,2.6,1.3h60c0.3,0,0.6-0.2,0.9-0.3V66   c0-1.1,0-2,0-2.8c0-1.3,0-2.1,0-2.8c0-0.5,0-0.9,0-1.3v-0.6c0-0.2,0-0.5,0-0.7c0-1.1,0-2.2,0-3.1v-0.5c-6.3,0.3-27.5,0.7-44.2,0.7   c-11.1,0-18.4-0.2-20.8-0.4C9.5,54.7,9.5,55,9.5,55.2z M78.2,51.8C82.5,51,98.7,50,108.7,50c1,0,1.9,0,2.8,0h0.8   c4.1,0.1,7.3,0.2,10.5,0.3c-0.2-5.8-0.6-20.2-0.6-22.6c0-1.5-0.7-2-2.8-2c-0.6,0-1.3,0-2.1,0.1s-1.4,0.1-2.2,0.1   c-4.6,0.1-15.6,0.3-19.8,0.3c-2.2,0-5.3-0.1-8.3-0.3c-2.7-0.1-5.2-0.2-6.8-0.2c-3.8,0-4.4,1.6-4.4,2.8c-0.3,4.6-0.2,20.1-0.1,24.3   C76.4,52.2,77.2,51.9,78.2,51.8z M139.8,72.7v-4.5c0-0.6-0.4-1.2-1-1.2H137c-0.6,0.1-1.2,0.2-1.8,0.2h-0.4c-3.9,0-8.4,0-13.2,0.1   c-5.2,0-10.6,0.1-15.6,0.1c-2.8,0-5.3,0-7.4,0c-3,0-6.1,0-9.1,0c-2.1,0-4,0.1-5.8,0.1c-2.4,0.1-4.8,0-7.2-0.4h-2.6   c-2.4,0.3-4.7,0.5-7.1,0.4l0,0c-1.8,0-3.8,0-5.8-0.1c-3,0-6.2-0.1-9.1,0c-2.2,0-4.6,0-7.4,0c-5,0-10.4,0-15.6-0.1   c-4.8,0-9.3-0.1-13.2-0.1c-0.8,0-1.6,0-2.4-0.2h-1.2c-0.6,0.1-1,0.6-1,1.2v4.5c0,0.6,0.4,1.2,1,1.2H139   C139.4,73.9,139.8,73.4,139.8,72.7L139.8,72.7L139.8,72.7z M37.7,50h0.8c0.8,0,1.8,0,2.8,0c10,0,26.2,1,30.5,1.8   c0.9,0.1,1.8,0.5,2.6,1c0-4.2,0.1-19.6-0.1-24.2c-0.1-1.2-0.6-2.8-4.4-2.8c-1.6,0-4.1,0.1-6.8,0.2c-3,0.1-6.1,0.3-8.3,0.3   c-4.2,0-15.4-0.2-19.8-0.3c-0.8,0-1.5-0.1-2.2-0.1s-1.5-0.1-2.1-0.1c-2.1,0-2.8,0.5-2.8,2c0,2.4-0.4,16.8-0.6,22.6   C30.3,50.2,33.6,50.2,37.7,50z M10.2,72.7v-4.5c0-0.6,0.3-1.1,0.7-1.5c0-0.2,0-0.4,0-0.6c-0.2-0.2-0.5-0.3-0.7-0.6   c-1.7-1.8-1.6-4.9-1.5-7.7c0-0.5,0-1,0.1-1.5c0-0.3,0-0.6,0-0.8v-0.1c0-0.2,0.1-0.4,0.2-0.6c0-0.1,0-0.1,0-0.2c0-0.1,0-0.2,0.1-0.3   c0.1-1.3,1-2.3,2.2-2.6c0-0.3,0-0.6,0.1-0.8c0.1-1.1,0.7-2.1,1.6-2.6c2.6-1.2,9.4-1.7,13.8-1.9c0-1,0.1-2.1,0.1-3.2   c-1.8,0.2-11.7,1.2-15.1,2.1c-1.3,0.4-2.3,1.2-2.9,2.4c-0.4,0.8-0.6,1.7-0.6,2.7c-0.8,10.6,0,34.4,0,34.4h2.6c0-1.9,0-6,0-10.6   C10.4,73.8,10.2,73.3,10.2,72.7z M141.8,50.4c0-0.9-0.2-1.8-0.6-2.7c-0.6-1.2-1.6-2-2.9-2.4c-3.4-0.9-13.4-1.9-15.1-2.1   c0,1.1,0.1,2.2,0.1,3.2c4.4,0.2,11.2,0.8,13.8,1.9c1,0.5,1.6,1.5,1.7,2.6c0,0.2,0,0.5,0,0.8c1.2,0.3,2.2,1.3,2.3,2.6   c0,0.1,0.1,0.2,0.1,0.4s0,0.1,0,0.1c0,0.2,0.1,0.4,0.1,0.7l0,0c0,0.2,0,0.5,0,0.8c0,0.5,0,1,0.1,1.5c0.1,2.8,0.3,5.9-1.5,7.7   c-0.2,0.2-0.4,0.4-0.7,0.6v0.3c0.8,0.2,1.3,0.9,1.3,1.7v4.5c0,0.8-0.5,1.5-1.2,1.7c0,4.6,0,8.4,0,10.3h2.6   C141.7,84.7,142.5,61,141.8,50.4z M140.6,57v-0.6c0-0.2,0-0.4,0-0.6s0-0.3,0-0.5v-0.1c0-0.3-0.1-0.5-0.1-0.8   c-2.4,0.3-9.7,0.4-20.8,0.4c-16.7,0-37.9-0.3-44.2-0.7v0.5c0,0.8,0,2,0,3.1s0,1.7,0,2.7c0,1.1,0,2.7,0,5.6c0,0,0,0,0,0.1   c0.2,0.2,0.5,0.3,0.8,0.3h60c1-0.1,1.9-0.6,2.6-1.3C140.8,63.3,140.7,60,140.6,57z M132.8,51.5h-0.4c-6.9-0.5-11.8-0.7-20.1-0.9   h-0.8c-0.8,0-1.8,0-2.8,0c-10,0-26.2,1-30.4,1.8c-1.7,0.3-2.4,0.7-2.7,1.3c6.4,0.3,27.5,0.7,44,0.7c11,0,18.3-0.1,20.7-0.4   C139.7,52.1,137.9,51.9,132.8,51.5L132.8,51.5z"></path>
</g>
<g id="armchair" class="st0">
	<path class="st2" d="M114.4,59.3c-6.6-10-14.7-4.4-25.4-1.9c-10.7,2.6-8.1-14.3,1.4-29.3c9.7-15,0.2-20.4-7.1-15.5   c-4.8,3.3-29.1,14.2-33.3,3.7c-1.2-2.8-2.2-5.7-4-7.5c-0.4-0.3-0.6-0.1-0.5,0.3c0.3,0.9,0.5,1.5,0.9,3.1c0.4,1.6,0.9,3.6,1.3,5.8   c0.5,2.2,0.9,4.8,1.2,7.6c0.3,2.8,0.6,5.9,0.8,9.2c0.1,1.6,0.1,3.3,0.2,5c0,0.9,0,1.7,0,2.6s0,1.7,0,2.6c0,1.7-0.1,3.5,0,5.3   c0,0.9,0.1,1.7,0.2,2.6c0.1,0.9,0.2,1.7,0.4,2.5c0.1,0.4,0.2,0.8,0.3,1.1c0.1,0.3,0.3,0.6,0.4,0.7s0.2,0.1,0.4,0.2   c0.2,0,0.5,0,0.9-0.1c0.8-0.2,1.5-0.6,2.4-1c0.9-0.4,1.7-0.8,2.7-1.2c1.8-0.7,4-1.2,6-1.2c1.9,0,3.9,0.2,5.8,0.6   c1.9,0.4,3.8,1.1,5.5,1.9c1.7,0.9,3.3,1.9,4.7,3c2.9,2.1,5.4,4.5,7.8,6.8c2.3,2.2,4.5,4.4,6.5,6.4c1,0.9,2,1.6,3.1,2.3   c1.1,0.7,2.1,1.2,3.2,1.4c2.1,0.7,4.1,0.8,5.6,0.4c0.8-0.2,1.4-0.4,2-0.7c0.6-0.3,1.1-0.5,1.4-0.8c0.2-0.1,0.4-0.2,0.5-0.3   c0.1-0.1,0.3-0.2,0.3-0.3c0.2-0.1,0.3-0.2,0.3-0.2l0,0h0.1v0.1c0,0-0.1,0.1-0.3,0.2c-0.1,0.1-0.2,0.2-0.3,0.3   c-0.1,0.1-0.3,0.2-0.5,0.4c-0.7,0.5-1.8,1.3-3.5,1.6s-3.7,0.5-5.9-0.2c-2.2-0.7-4.5-1.8-6.8-3.8c-2-1.9-4.3-4.1-6.7-6.2   c-2.4-2.1-4.9-4.4-7.8-6.5c-1.4-1.1-2.9-2-4.5-2.8c-1.6-0.8-3.4-1.4-5.1-1.7c-1.8-0.4-3.7-0.5-5.5-0.6c-1.8,0-3.7,0.4-5.4,1.1   c-0.9,0.3-1.7,0.7-2.6,1.1c-0.9,0.4-1.7,0.8-2.6,1.1c-0.5,0.1-1,0.2-1.4,0.2s-1-0.3-1.4-0.6c-0.4-0.4-0.6-0.8-0.8-1.3   c-0.2-0.5-0.3-0.9-0.4-1.4c-0.4-1.8-0.5-3.7-0.5-5.5s0-3.6,0.1-5.4c0.1-3.5,0.2-7,0-10.1c-0.1-3.2-0.3-6.3-0.5-9.1   c-0.3-2.8-0.6-5.4-0.9-7.6s-0.7-4.3-1-5.9c-0.4-2-0.6-3.1-1.1-3.8c-1.5-1.5-3.5-1.9-5.8-1.2c-3.6,1.3-6.2,8.4-5.4,33   c0.7,23.5,13.6,52.7,39.3,55.2V98c-14.4,0.1-25.7,1.3-25.7,2.7s12.4,2.7,27.5,2.7s27.5-1.2,27.5-2.7c0-1.4-11.3-2.6-25.7-2.7v-2.6   C104.9,95.3,122.3,71.3,114.4,59.3z"></path>
</g>
<g id="mirror_1_" class="st0">
	<g class="st2">
		<path d="M63.1,33.7c0.1,0,0.1,0,0.2,0c1.9,0.1,3.5,1.8,3.5,3.9v45.3l0.6,5.1l2.2,1l28.4-4.9L87.9,1.2L59.4,0l-1.9,1.6l3.8,32.7    C61.8,33.9,62.5,33.7,63.1,33.7z M83.6,5.8l9.6,73.9l-18.9,3.1L65,5.3L83.6,5.8z"></path>
		<path d="M73.7,105l-3.9-1.7L65.7,96V37.6c0-1.4-1-2.6-2.3-2.7h-0.1c-1.4,0-2.5,1.1-2.5,2.5v56.7l-3.1,2.6l-2.8-1.1    c-0.2-0.1-0.5-0.1-0.7-0.1c-0.2,0-0.6,0.1-0.9,0.2c-0.6,0.3-1.1,1-1.1,1.7v1.4c0,0.7,0.3,1.4,1,1.7l2.5,1.2c0.5,0.2,1,0.3,1.6,0.3    c0.5,0,1-0.1,1.5-0.3c0.6-0.2,1.2-0.6,1.9-0.6c0.5,0,1,0.1,1.6,0.3c1.5,0.9,2.5,2.8,2.8,4.2c0.2,0.9,1,1.6,1.8,1.9l5.4,2.3    c0.2,0.2,0.5,0.2,0.7,0.2s0.6-0.1,0.9-0.2c0.5-0.2,0.9-0.9,0.9-1.4v-2.1C74.6,105.8,74.2,105.3,73.7,105z M62.9,96.7    c-0.6,0-1-0.5-1-1c0-0.6,0.5-1,1-1c0.6,0,1,0.5,1,1C63.9,96.1,63.4,96.7,62.9,96.7z M63.1,39.4c-0.6,0-1-0.5-1-1c0-0.6,0.5-1,1-1    c0.6,0,1,0.5,1,1C64.1,39.1,63.5,39.4,63.1,39.4z"></path>
		<path d="M99.8,98.3l-3.2-1.4l-3.4-6.1v-4.2l-2.6,0.6c0.2,0.2,0.2,0.5,0.2,0.9v3.9c0,0.6-0.3,1.1-1,1.2l-6.4,1.6l1,0.5    c0.5,0.2,1.1,0.3,1.7,0.3c0.5,0,1-0.1,1.5-0.3c0.3-0.2,0.9-0.3,1.5-0.3c0.3,0,0.9,0.1,1.4,0.3c1.1,0.6,1.8,2.1,2.2,3.2    c0.3,1,1.1,1.7,1.9,2.2l4.2,1.8c0.1,0.1,0.3,0.1,0.5,0.1c0.2,0,0.5-0.1,0.7-0.2c0.3-0.2,0.6-0.7,0.6-1.2v-1.7    C100.6,99,100.3,98.6,99.8,98.3z"></path>
		<polygon points="66.9,95.7 67.9,97.4 89.7,92.1 89.7,88.1 66.9,93.3   "></polygon>
	</g>
</g>
<g id="mirror" class="st0">
	<g transform="translate(0.000000,1096.000000) scale(0.100000,-0.100000)" class="st2">
		<path d="M789.4,10959c-18.8-3.7-35.3-20.4-39.2-40c-0.8-3.6-1.7-6-2.2-5.3c-0.3,0.7-3.3,2.1-6.5,3c-13.1,4.1-26.4-3.2-29.8-16.6    l-1-4.3l-6.6,3.5c-12.4,6.5-27.7,3.7-36.3-6.7l-3.6-4.1l-3.2,2c-8.6,5.3-19.9-0.8-19.9-10.5c0-1.6-0.9-2-6.2-2.1    c-3.5,0-7.7-0.8-9.9-1.8c-3.5-1.6-10.7-1.8-75.6-2.1l-71.8-0.3l26.6-23.9l26.6-24l262.1,0.1h262.1l26.3,23.9l26.3,23.9l-70.3,0.6    c-77.9,0.7-78.1,0.7-79.5,7.1c-0.9,4.8-2.9,7.7-6.3,9.6c-4.1,2.2-9.4,2.1-13.3-0.3l-3.1-1.8l-5.5,5.4c-10.1,9.9-22.6,11.6-35.4,5    l-6.2-3.2v2.6c0,4-3.8,10.5-8.2,14.2c-7.3,6-18.3,7.1-25.9,2.4l-3.5-2.1l-1.2,6.1C843.8,10946.8,817.1,10964.5,789.4,10959z"></path>
		<path d="M471.3,10370.3c0-274.3,0.1-498.6,0.3-498.3c0.1,0.2,12,12.3,26.3,26.8l26,26.4v448.5v448.6l-24.4,22    c-13.5,12-25.2,22.6-26.3,23.3C471.4,10869,471.3,10852.2,471.3,10370.3z"></path>
		<path d="M1087.4,10845.5l-25.8-23.4l-0.3-447.9l-0.2-448l26-27l26.2-27l0.3,249c0.1,137.1,0.1,361.3,0,498.5l-0.3,249.1    L1087.4,10845.5z"></path>
		<path d="M546.5,10373.5v-427.6h246.6h246.6l-0.2,427.4l-0.3,427.3l-246.2,0.3l-246.3,0.2V10373.5z M1024.6,10373.1V9960H792.5    H560.4v413.1v413.1h232.1h232.1V10373.1z"></path>
		<path d="M502.7,9893.4c-14.4-14.7-26.2-27.1-26.2-27.4c0-0.3,142.2-0.7,315.8-0.7s315.8,0.3,315.8,0.7c0,0.3-11.8,12.7-26,27.4    l-25.9,26.7H792.4H528.5L502.7,9893.4z"></path>
	</g>
</g>
<g id="brands" class="st0">
	<path class="st2" d="M103.1,59.7l-27.6,47.9c-1.3,2.3-4.2,3.1-6.3,1.9L31,87.2c-2.3-1.3-3.1-4.1-1.9-6.4L56.7,33l22.4-14.1L90,25.1   c0.7-2,0.6-2.1,1-4.2c1-4.4,2-12.2,10.8-18.9c3-2.5,7.6-2.5,11.7-0.4c2.3,1,4.3,2.8,5.7,4.5c1.4,2.1,2.1,4.4,2.3,6.6   c-0.1,2.8-1.4,6.4-7.4,9.2c-4.7,2.1-8.7,2.8-12.4,3.1c-3.3,0.4-5.8,0.7-7.9,2.1l10.6,6.2L103.1,59.7z M91.9,45.6   c2.3-3.9,1.5-8.6-1.1-11.7L86,31c-4.3-1.4-9.1,0.4-11.6,4.5c-2.8,4.8-1.1,11,3.7,13.8C83,52,89.3,50.5,91.9,45.6z M93.3,21.2   c0,0.7-0.1,1.1-0.3,1.8c-0.1,0.7,0,1.1-0.3,2c2.5-1.8,5.3-1.9,8.7-2.1c3.4-0.4,7.4-1,11.7-3c4-1.8,5.9-4.3,6.2-7.2   c0-3.3-2.4-6.7-5.9-8.7c-0.1-0.1-0.4-0.3-0.7-0.4c-3.4-1.8-6.8-1.8-9.4,0.3C95.1,9.9,94,16.9,93.3,21.2z"></path>
</g>
<g id="styles" class="st0">
	<g class="st2">
		<path d="M54.6,0.2h-22c-2.6,0-4.9,2.1-4.9,4.9v99.7c0,2.6,2.1,4.9,4.9,4.9h21.9c2.6,0,4.9-2.1,4.9-4.9V5.1    C59.4,2.5,57.3,0.2,54.6,0.2z M35.6,105c-1.9,0-3.4-1.5-3.4-3.4c0-1.9,1.5-3.4,3.4-3.4s3.4,1.5,3.4,3.4    C39,103.5,37.5,105,35.6,105z M33,76.8v-1l5.7,5.7h-1L33,76.8z M35.7,81.5c-1.4-0.1-2.5-1.3-2.8-2.8L35.7,81.5z M40.5,81.5    l-7.7-7.7v-1l8.7,8.7H40.5z M43.5,81.5L33,70.9v-1l11.6,11.6C44.6,81.5,43.5,81.5,43.5,81.5z M46.4,81.5L33,68v-1l14.6,14.6    L46.4,81.5L46.4,81.5z M49.5,81.5L33,65v-1l17.5,17.5H49.5z M52.3,81.5L33,62.1l0,0c0-0.3,0-0.6,0.1-0.9l20.1,20.1    C53,81.5,52.7,81.5,52.3,81.5z M53.2,54.2c-0.3,0-0.6,0.1-1,0.1h-1.8L32.9,36.7v-1.8c0-0.4,0-0.6,0.1-1L53.2,54.2z M33.9,32.8    c0.5-0.5,1.3-0.9,2-0.9l19.5,19.5c0,0.8-0.4,1.4-0.9,2L33.9,32.8z M48.6,54.3h-2.9L33,41.5v-2.9L48.6,54.3z M43.8,54.3h-2.9l-8-8    v-2.9L43.8,54.3z M39,54.3h-2.9L32.9,51v-2.9L39,54.3z M54.5,80.6L33.9,60c0.1-0.1,0.4-0.4,0.5-0.5L54.9,80    C54.7,80.2,54.6,80.5,54.5,80.6z M55.4,78.6L35.9,59.1h1l18.5,18.5V78.6z M55.4,75.6L38.9,59.1h1l15.5,15.5V75.6z M55.4,72.7    L41.8,59.1h1l12.6,12.6V72.7L55.4,72.7z M55.4,69.8L44.8,59.2h1l9.6,9.6C55.4,68.6,55.4,69.8,55.4,69.8z M55.4,66.8l-7.7-7.7h1    l6.7,6.7C55.4,65.8,55.4,66.8,55.4,66.8z M55.4,63.9l-4.7-4.7h1l3.6,3.6C55.4,62.9,55.4,63.9,55.4,63.9z M55.4,49.5L37.8,31.9h2.9    l14.7,14.7V49.5L55.4,49.5z M55.4,44.8L42.5,31.9h2.9l9.9,9.9V44.8L55.4,44.8z M55.4,40l-8-8h2.9l5.2,5.2V40z M55.4,35.2l-3.3-3.3    h0.1c1.6,0,3,1.4,3,3C55.4,34.9,55.4,35.2,55.4,35.2z M55.4,24c0,1.6-1.4,3-3,3H36c-1.8,0-3-1.4-3-3V7.8c0-1.8,1.4-3,3-3h16.2    c1.8,0,3,1.4,3,3L55.4,24L55.4,24z"></path>
		<path d="M80.1,8.7L61.8,3.8c0.1,0.5,0.1,1,0.1,1.5v3.1l14.8,4c1.6,0.5,2.6,2.1,2.1,3.8l-4.2,15.7c-0.4,1.6-2.1,2.6-3.8,2.1    l-9.1-2.4v5l1.3,0.3l7,12.2l-0.8,2.8l-7.5-13v2.8l7,12.1l-0.8,2.8l-6.3-10.8v2.8l5.8,9.9c-0.3,0.8-0.8,1.3-1.4,1.6l-4.4-7.5v2.8    l3,5.3c-0.3,0-0.6,0-1-0.1L62.3,60l-0.4-0.6v5.5h0.3l2.6,4.5l-0.3,1L62,66v2.8l2,3.5l-0.3,1L62,70.2v2.8l1.3,2.3l-0.3,1l-1-1.8    v2.8l0.5,0.9l-0.3,1L62,78.6v17.2l21.6-80.9C84.3,11.9,82.8,9.3,80.1,8.7z M70.7,47.1L65,37.3l2.8,0.8l3.6,6.3L70.7,47.1z     M72,42.4L72,42.4l-2.3-3.8h0.1C71.5,39,72.3,40.7,72,42.4z"></path>
		<path d="M80.1,8.7L61.8,3.8c0.1,0.5,0.1,1,0.1,1.5v3.1l14.8,4c1.6,0.5,2.6,2.1,2.1,3.8l-4.2,15.7c-0.4,1.6-2.1,2.6-3.8,2.1    l-9.1-2.4v5l1.3,0.3l7,12.2l-0.8,2.8l-7.5-13v2.8l7,12.1l-0.8,2.8l-6.3-10.8v2.8l5.8,9.9c-0.3,0.8-0.8,1.3-1.4,1.6l-4.4-7.5v2.8    l3,5.3c-0.3,0-0.6,0-1-0.1L62.3,60l-0.4-0.6v5.5h0.3l2.6,4.5l-0.3,1L62,66v2.8l2,3.5l-0.3,1L62,70.2v2.8l1.3,2.3l-0.3,1l-1-1.8    v2.8l0.5,0.9l-0.3,1L62,78.6v17.2l21.6-80.9C84.3,11.9,82.8,9.3,80.1,8.7z M70.7,47.1L65,37.3l2.8,0.8l3.6,6.3L70.7,47.1z     M72,42.4L72,42.4l-2.3-3.8h0.1C71.5,39,72.3,40.7,72,42.4z"></path>
		<path d="M102.8,23.6l-16.1-9.3l-0.4-0.3c0,0.4-0.1,0.8-0.3,1.1l-0.9,3.4l13.3,7.7c1.5,0.9,2,2.8,1.1,4.2l-8.2,14.1    c-0.9,1.5-2.8,2-4.2,1.1l-8.2-4.8l-1.3,4.8l1.1,0.6l3.6,13.6l-1.4,2.5l-3.9-14.5l-0.8,2.6l3.6,13.6l-1.4,2.5l-3.3-12.1l-0.8,2.6    l3,11.2c-0.4,0.6-1,1-1.8,1.3l-2.3-8.6l-0.8,2.6l1.6,5.9c-0.3-0.1-0.6-0.1-0.9-0.4l-1.5-0.9l-0.3-0.8L70.7,73l0.3,0.1l1.4,5    l-0.5,0.9l-1.4-5l-0.8,2.6l1,4l-0.5,0.9l-1-3.5l-0.8,2.6l0.6,2.5l-0.5,0.9l-0.5-2l-0.8,2.6l0.4,1l-0.5,0.9l-0.1-0.5l-4.4,17    l41.9-72.9C105.8,27.9,105,24.9,102.8,23.6z M83.5,58.3l-2.9-10.9l2.5,1.4l1.9,7L83.5,58.3z M86.1,54.1L86.1,54.1l-1.3-4.3    l0.1,0.1C86.4,50.7,86.9,52.5,86.1,54.1z"></path>
		<path d="M120.9,43.1l-13.5-13.5c-0.1,0.6-0.4,1.3-0.8,1.9l-1.4,2.4l10.8,10.8c1.1,1.3,1.1,3.1,0,4.4l-11.4,11.4    c-1.1,1.3-3.1,1.3-4.3,0l-6.5-6.5l-2.5,4.3l0.8,0.8v14.1l-2,2V60.5l-1.4,2.4v13.7l-2.1,1.9V66.3l-1.3,2.4v11.2    c-0.5,0.5-1.3,0.8-2,0.8v-8.4l-1.4,2.3v5.8c-0.3-0.1-0.5-0.4-0.8-0.6l-1.3-1.3v-0.5l-2.6,4.7l0,0v5.3l-0.8,0.8v-4.8l-1.4,2.4v3.8    l-0.8,0.8v-3.3L73,89.8V92l-0.8,0.8V91L71,93.3V94l-0.8,0.8v-0.3L62,108.8l58.9-58.9C122.8,48,122.8,45,120.9,43.1z M95.4,69.7    l-2,2V60.3l2,2V69.7z M96.9,68.1L96.9,68.1l-0.1-4.4l0.1,0.1C98.1,65,98.1,67,96.9,68.1z"></path>
	</g>
</g>
<g id="FAQ_1_" class="st0">
	<g class="st2">
		<g>
			<path class="st3" d="M89.2,81.9H70.1c-0.1-2.6-0.1-4.4-0.1-5c0-6.2,1-11.1,3.1-15.1c2.1-4,6.1-8.5,12.3-13.4     c6.1-5,9.8-8.2,11.1-9.7c1.8-2.4,2.8-5.1,2.8-8.1c0-4-1.7-7.6-5-10.4c-3.2-2.9-7.6-4.3-13.2-4.3c-5.4,0-9.8,1.5-13.6,4.5     c-3.6,3.1-6.1,7.7-7.4,13.8l-19.5-2.5c0.6-8.7,4.5-16.3,11.5-22.4C59.2,3.1,68.5,0,80,0c12.2,0,21.8,3.2,29,9.4     c7.1,6.3,10.7,13.6,10.7,21.9c0,4.6-1.4,9-4,13.1c-2.5,4-8.1,9.6-16.8,16.7c-4.4,3.7-7.1,6.7-8.3,9     C89.6,72.2,89.1,76.2,89.2,81.9L89.2,81.9z M70.1,109.8V89.1h19.1v20.6L70.1,109.8L70.1,109.8z"></path>
		</g>
	</g>
</g>
<g id="FAQ" class="st0">
	<g class="st2">
		<circle cx="81.3" cy="98.4" r="11.5"></circle>
		<path d="M81.3,0C62.3,0,47,15.5,47,34.3c0,0.7,0.5,1.2,1.2,1.2h18.7c0.7,0,1.2-0.5,1.2-1.2c0-7.2,5.9-13.2,13.2-13.2    c7.2,0,13.2,5.9,13.2,13.2c0,3.5-1.3,6.8-3.8,9.3c-0.3,0.3-1,0.9-1.6,1.4l-0.4,0.3c-6.3,5-17.8,14.4-17.8,34.7    c0,0.7,0.5,1.2,1.2,1.2h18.7c0.7,0,1.2-0.5,1.2-1.2c0-10.2,5-14.3,10.1-18.2c1.3-1.1,2.5-2.1,3.6-3.2c6.5-6.5,10.1-15.1,10.1-24.2    C115.8,15.4,100.3,0,81.3,0z"></path>
	</g>
</g>
<g id="contact_us" class="st0">
	<g class="st2">
		<path d="M123.7,86.8c-9.9-7-25.1-3.3-34.7-15.9c0,0-3.6-4,4.5-13.6s8.7-25.1,6.6-37.1C98.2,8.3,86.9,0.3,75.2,0.3    s-22.9,7.9-25,19.9c-2,11.9-1.3,27.4,6.6,37.1c3.2,3.8,4.5,6.9,5,9c0.9-0.4,2.4-0.9,4.2-0.9c2.2,0,4.2,0.6,6.1,1.8    c0.3,0.1,20.1,12.4,14,23.1c-3.3,5.9-9.9,9.3-17.6,9.3c-4.3,0-8.9-1-13.6-3.2c-8.2-3.6-14.1-8.5-18.9-13.5c-3.4,0.9-6.6,2-9.4,4    c-9.9,7-7.5,23.2-7.5,23.2h56.1h56.1C131.2,110,133.7,94,123.7,86.8z"></path>
		<path d="M56.4,74L56.4,74c-9.2,0-18-15.7-20-21.9c-2-6.2,1.8-9,3.2-11.2c1.3-2.2,3.8-5.5,3.8-5.5c1.1-3.7-3.8-12.4-6.9-16.1    c-2.4-2.9-4.3-3.3-5.1-3.3c-0.3,0-0.3,0-0.3,0c-4.8,0.5-9.2,7.9-9.2,7.9c-8.7,18.7,3.6,37.5,9,44.6c2.9,3.8,6.4,8.5,11,13    c6.1-1.4,12.2-3.1,17.2-8.2C57.7,73.8,56.4,74,56.4,74z"></path>
		<path d="M68.6,94.4c6.8,0,11.2-3.3,13.1-6.8c2.9-5.1-8.7-14-12.1-16.1c-1.3-0.8-2.5-1-3.6-1c-1.5,0-2.7,0.6-2.7,0.6    c-1.3,1.1-2.8,1.8-4.1,2.2c-5,5.1-11.2,6.8-17.2,8.2c4,3.8,8.8,7.5,15,10.2C61.4,93.6,65.4,94.4,68.6,94.4z"></path>
	</g>
</g>
<g id="design_help" class="st0">
	<g class="st2">
		<path d="M70.1,89.5c0-1.9,0.5-3.6,1.4-5.2c0.6-0.7,1.1-1.4,1.7-2.1c0.6-0.6,1.3-1.2,2-1.5c-10.2,0-20.3,0-30.5,0    c-3.2,0-3.2,0-2.5,3.2c0.2,0.8,0.5,1.8,0.7,2.6c0.8,2.4,2.1,3.7,5,3.6c7.5-0.1,14.8-0.1,22.2,0V89.5z"></path>
		<path d="M79.4,99.9c-1.3-0.5-2.5-0.4-3.9,0c0.8,3.1,1.8,6.1,2.6,9.1c0.2,0.7,0.6,1.2,1.4,0.9c0.8-0.2,0.8-0.8,0.7-1.5    C79.9,105.4,79.6,102.7,79.4,99.9z"></path>
		<g>
			<path d="M112.5,12.6c4.7,0,9.5,0,14.2,0c1.7,0,2.3,0.5,2.4,2.1c0.4,5,0.9,10,1.5,14.8c0.2,2-0.2,3-2.6,3.2     c-10.8,1.3-21.5,1.2-32.3-0.1c-1.5-0.1-2.1-0.7-1.9-2.4c0.6-5.2,1.1-10.4,1.5-15.6c0.1-1.7,0.8-2.4,2.6-2.3     C102.9,12.7,107.6,12.6,112.5,12.6z"></path>
			<path d="M61.5,98.4c0,0.1-12.6,0-18.9,0c-3.1,0-5.6-1.3-6.6-4.2c-2.4-6.3-4.7-12.7-5.6-19.5c-0.1-1.3-0.1-2.6,0.2-3.9     c0.5-1.4,1.2-2.6,2.7-2.8c1.5-0.2,2.6,0.7,3.3,2c1.9,3.4,2.7,7.1,3.4,10.9c0.1,0.9,0.2,2,0.4,3c1.3,5.7,2.7,7.7,9.1,7.5     c8.7-0.2,17.3-0.1,26,0c3,0,4.7-1.2,5.9-3.8c0.8-2,1.4-4,1.5-6.2c0.4-3.7,1.4-7.2,3-10.6c0.7-1.5,1.9-3.2,3.9-2.7     c2,0.5,2.8,2.3,3.1,4.3c0.2,2.6-0.5,5-1.1,7.5c-1.1,4.3-2.4,8.3-3.9,12.3c-1.9,5-3.8,6.3-9.3,6.3c-5.8,0-22.7-0.1-28.5-0.1     C42.7,98.4,61.5,98.4,61.5,98.4z"></path>
			<path d="M78.9,80.7c-8.5,0-17,0-25.5,0c0.1,0.7,0.2,1.4,0.2,2.1v0.8c0,1.9-0.5,3.6-1.4,5.2c-0.2,0.4-0.6,0.7-0.8,1.2     c8.2,0,16.3-0.1,24.5,0.1c2.8,0.1,4.3-1.2,5-3.6c0.2-0.8,0.5-1.8,0.7-2.6C82.2,80.7,82.1,80.7,78.9,80.7z"></path>
			<path d="M44,99.9c1.3-0.5,2.5-0.4,3.9,0c-0.9,3.1-1.8,6.1-2.6,9c-0.2,0.7-0.6,1.2-1.4,0.9c-0.8-0.2-0.8-0.8-0.7-1.5     C43.4,105.6,43.7,102.7,44,99.9z"></path>
			<path d="M72.1,75.2c0-0.6,0.1-1.2,0.4-1.8c-1.1-0.5-1.9-1.2-2.7-1.9c-0.6-0.7-1.1-1.4-1.7-2.1c-0.7-1.2-1.2-2.5-1.2-3.8     c-0.4-1.3-0.2-2.7,0.2-4c0.4-1.3,0.9-2.5,1.8-3.4c0.2-0.5,0.6-0.8,0.9-1.2c0,0-0.1,0-0.1,0.1l0.1-0.1c0.2-0.2,0.4-0.4,0.6-0.5     c0.1-0.1,0.2-0.2,0.4-0.4c0.8-1.1,1.8-1.9,3-2.6c0.8-0.4,1.7-0.7,2.5-1.1c0.9-0.2,1.9-0.4,2.8-0.4l0,0c-5.8-0.1-11.6,0-17.5,0     c-6.2,0-12.5,0-18.6,0c-4.9,0-7.2,2.4-7.2,7.2c0,2.1,0,4.3,0,6.4c0,0.6-0.1,1.3,0.4,1.9c3,2.8,3.9,6.5,4.7,10.3     c0.4,1.4,1.2,1.7,2.5,1.7c9.6,0,19.2,0,28.9,0C71.9,77.9,71.9,76.6,72.1,75.2z"></path>
		</g>
		<path d="M65,63.6c0.4-1.3,0.9-2.5,1.8-3.4c0.4-0.6,0.8-1.1,1.4-1.5c0.2-0.4,0.6-0.8,0.8-1.1c0-0.4,0.1-0.6,0.1-0.9    c0.4-1.8,1.5-3.4,3-4.7c-3.4,0-7,0-10.4,0c-6.2,0-12.5,0-18.6,0c-4.9,0-7.2,2.4-7.2,7.2c0,2.1,0,4.3,0,6.4c0,0.6-0.1,1.3,0.4,1.9    c3,2.8,3.9,6.5,4.7,10.3c0.4,1.4,1.2,1.7,2.5,1.7c3.9,0,8,0,11.9,0c0.1-5.1,4.7-9.3,9.7-9.5c-0.2-0.6-0.4-1.3-0.4-1.9    C64.5,66.4,64.5,64.9,65,63.6z"></path>
		<path d="M58.6,63.6c-0.4-1.3-0.9-2.5-1.8-3.4c-0.4-0.6-0.8-1.1-1.4-1.5c-0.2-0.4-0.6-0.8-0.8-1.1c0-0.4-0.1-0.6-0.1-0.9    c-0.4-1.8-1.5-3.4-3-4.7c3.4,0,7,0,10.4,0c6.2,0,12.5,0,18.6,0c4.9,0,7.2,2.4,7.2,7.2c0,2.1,0,4.3,0,6.4c0,0.6,0.1,1.3-0.4,1.9    c-3,2.8-3.9,6.5-4.7,10.3c-0.4,1.4-1.2,1.7-2.5,1.7c-3.9,0-8,0-11.9,0c-0.1-5.1-4.7-9.3-9.7-9.5c0.2-0.6,0.4-1.3,0.4-1.9    C59.1,66.4,58.9,64.9,58.6,63.6z"></path>
		<path class="st4" d="M64.2,39.2H46.7c-0.7,0-1.2-0.5-1.2-1.2V26.7c0-0.7,0.5-1.2,1.2-1.2H64c0.7,0,1.2,0.5,1.2,1.2V38    C65.3,38.7,64.8,39.2,64.2,39.2z"></path>
		<path class="st4" d="M80.3,39.3h-9.1c-0.7,0-1.2-0.5-1.2-1.2V30c0-0.7,0.5-1.2,1.2-1.2h9.1c0.7,0,1.2,0.5,1.2,1.2v8.1    C81.5,38.8,80.9,39.3,80.3,39.3z"></path>
		<path class="st4" d="M80.3,25.5h-9.1c-0.7,0-1.2-0.5-1.2-1.2v-8.1c0-0.7,0.5-1.2,1.2-1.2h9.1c0.7,0,1.2,0.5,1.2,1.2v8.1    C81.5,25.1,80.9,25.5,80.3,25.5z"></path>
		<path class="st4" d="M49.1,21.5h-6.3c-0.7,0-1.2-0.5-1.2-1.2v-8.1c0-0.7,0.5-1.2,1.2-1.2h6.3c0.7,0,1.2,0.5,1.2,1.2v8.1    C50.3,21,49.8,21.5,49.1,21.5z"></path>
		<path class="st4" d="M65.1,20.2H54.7c-0.7,0-1.2-0.5-1.2-1.2V1.9c0-0.7,0.5-1.2,1.2-1.2h10.4c0.7,0,1.2,0.5,1.2,1.2V19    C66.3,19.7,65.7,20.2,65.1,20.2z"></path>
		<path d="M116.4,37"></path>
		<path d="M114,37"></path>
		<polyline points="110.3,44.8 110.3,44.8 110.3,44.8 98.1,111 100.3,111.4 111.5,45 111.4,112.4 113.7,112.4 113.7,45.2     124.8,111.4 127,111 114.7,44.8 114.7,44.8 114.7,44.8   "></polyline>
		<polyline points="110.3,43.9 110.3,43.9 110.3,43.9 107.1,26.7 108.2,24.6 111.5,43.7 111.4,27.9 113.7,32.4 113.7,43.6     115.9,30.2 117.7,27.9 114.7,43.9 114.7,43.9 114.7,43.9   "></polyline>
	</g>
</g>
<g id="design_help_1_" class="st0">
	<g class="st2">
		<g>
			<polygon points="125.8,50.3 121.9,55.2 99.8,37.8 99.8,6.2 41.8,6.2 41.8,103.8 99.8,103.8 99.8,72.4 106,72.4 106,110 35.6,110      35.6,0 106,0 106,34.8    "></polygon>
		</g>
		<g>
			<path d="M102.9,36.3"></path>
		</g>
		<g>
			<polygon points="88.1,74 82.5,74 82.5,56.8 84.1,56.8 84.1,72.4 88.1,72.4    "></polygon>
		</g>
		<g>
			<rect x="66.6" y="3.1" width="1.6" height="34.2"></rect>
		</g>
		<g>
			<rect x="82.5" y="73.4" width="1.6" height="33.5"></rect>
		</g>
		<g>
			<path d="M96.2,72.4c0,2.7-0.8,4.9-2.4,6.4c-2.5,2.4-6.1,2.2-6.2,2.2l-0.7,0v-8.5h1.6v6.9c1-0.1,2.9-0.4,4.4-1.8     c1.3-1.2,1.9-3,1.9-5.2L96.2,72.4L96.2,72.4z"></path>
		</g>
		<g>
			<rect x="94.9" y="72.3" width="8" height="1.6"></rect>
		</g>
		<g>
			<rect x="39.2" y="56.9" width="19.4" height="1.6"></rect>
		</g>
		<g>
			<path d="M66.7,56.8c0,2.7-0.8,4.9-2.4,6.4c-2.5,2.4-6.1,2.2-6.2,2.2l-0.7,0V57h1.6v6.9c1-0.1,2.9-0.4,4.4-1.8     c1.3-1.2,1.9-3,1.9-5.2L66.7,56.8L66.7,56.8z"></path>
		</g>
		<g>
			<rect x="65.4" y="56.8" width="17.9" height="1.6"></rect>
		</g>
		<g>
			<rect x="82.6" y="36.5" width="20.3" height="1.6"></rect>
		</g>
		<g>
			<path d="M83.9,29.5v8.6h-1.6V31c-1,0.1-2.9,0.4-4.4,1.8c-1.3,1.2-1.9,3-1.9,5.2h-1.6c0-2.7,0.8-4.9,2.4-6.4     c2.5-2.4,6.1-2.2,6.2-2.2L83.9,29.5z"></path>
		</g>
		<g>
			<rect x="63.8" y="36.5" width="12" height="1.6"></rect>
		</g>
		<g>
			
				<rect x="58.7" y="36.5" transform="matrix(1 -1.310065e-03 1.310065e-03 1 -4.879794e-02 8.035987e-02)" width="5.3" height="1.6"></rect>
		</g>
		<g>
			<path d="M59.9,29.5v8.6h-1.6V31c-1,0.1-2.9,0.4-4.4,1.8c-1.3,1.2-1.9,3-1.9,5.2h-1.6c0-2.7,0.8-4.9,2.4-6.4     c2.5-2.4,6.1-2.2,6.2-2.2L59.9,29.5z"></path>
		</g>
		<g>
			<rect x="40.9" y="36.5" width="10.9" height="1.6"></rect>
		</g>
	</g>
</g>
<g id="about_us" class="st0">
	<g class="st2">
		<g>
			<path d="M128.7,45.2c0.3-6.1-3.6-9.3-4.1-9.7L86.5,5.1C78-2.4,68.8,1.4,65.2,4.4c-9.7,7.7-39.1,30.2-39.3,30.4     c-0.2,0.1-4.5,3.3-4.2,9.6c0,1.9-0.1,47.5,0,52.6c0.1,3.9,2.7,11.9,10.4,11.9c8.3,0.1,27.4,0.1,36.3,0c8.7-0.1,8.7-9,8.7-12     l0-0.6c0-0.1,0-0.1,0-0.2l0-37.8c0-1.3-0.8-2.3-2.1-2.3h-0.1c-0.7,0-1.4,0.2-2.3,0.5L66.5,59c-0.9,0.4-1.5,1-1.5,2     c0,1.1,0.9,2,1.8,2c0.3,0,0.6-0.1,0.9-0.2L73,61l0,35.2c0,0,0,0.1,0,0.1l0,0.7c0,6.5-1.8,7.8-4.6,7.8c-8.9,0.1-28,0.1-36.3,0     c-5,0-6.3-6.3-6.3-7.9c-0.1-5.1,0-52,0-52.6c-0.2-4.1,2.4-6.1,2.6-6.2C28.7,37.9,58,15.3,67.8,7.6c0.3-0.3,8-6.5,16,0.6L122,38.8     l0.1,0.1c0,0,2.7,2,2.5,6.3c0,0.5,0.1,47.4,0,52.5c0,1.6-1.2,7.8-6.3,7.9c-8.5,0.1-12.8,0.1-21.7,0c0,0,0,0,0,0     c-1.1,0-2,0.9-2.1,2c0,1.1,0.9,2.1,2,2.1c4.3,0,7.5,0.1,10.7,0.1c3.4,0,6.7,0,11.1-0.1c7.7-0.1,10.3-8.1,10.4-11.9     C128.8,92.6,128.7,47,128.7,45.2z"></path>
			<path d="M107.2,109.9c-3.1,0-6.3,0-10.7-0.1c-1.3,0-2.3-1-2.3-2.3c0-1.2,1-2.3,2.3-2.3c8.9,0.1,13.2,0.1,21.7,0     c4.9,0,6-6.2,6.1-7.7c0.1-4.6,0-44.4,0-52.3l0-0.2c0.2-4.1-2.4-6.1-2.4-6.1l-0.1-0.1L83.7,8.4c-7.9-7-15.4-0.9-15.7-0.6     c-9.3,7.3-36.3,28.1-39.4,30.5l-0.1,0.1c-0.1,0.1-2.7,2-2.5,6.1c0,0.1,0,1,0,2.6C26,77.3,26,94.1,26,97c0,1.5,1.2,7.6,6.1,7.7     c8.2,0.1,27.3,0.1,36.2,0c2.7,0,4.4-1.3,4.4-7.6l0-0.6c0,0,0-0.1,0-0.1l0-35l-4.9,1.8c-0.3,0.1-0.7,0.2-1,0.2c-1.1,0-2-1-2-2.2     c0-1,0.6-1.8,1.6-2.2l6.1-2.4c0.9-0.3,1.6-0.6,2.4-0.6H75c1.3,0,2.3,1.1,2.3,2.5l0,37.8l0,0.1c0,0.1,0,0.1,0,0.2l0,0.6     c0,3,0,12.1-8.9,12.2c-9,0.1-28.1,0.1-36.3,0c-7.8-0.1-10.5-8.2-10.6-12.1c-0.1-5.1,0-50.6,0-52.6c-0.3-6.5,4.1-9.7,4.3-9.8     c0,0,0.3-0.2,0.8-0.6c11.1-8.5,30.8-23.8,38.5-29.8c3.7-3.1,12.9-7,21.5,0.6l38,30.4c0.5,0.3,4.5,3.6,4.2,9.9     c0,2.5,0.1,47.4,0,52.5c-0.1,3.9-2.8,12.1-10.6,12.1C114.2,109.8,110.8,109.9,107.2,109.9z M96.6,105.7c-1,0-1.8,0.8-1.9,1.8     c0,1,0.8,1.8,1.8,1.9c4.4,0,7.6,0.1,10.7,0.1c3.5,0,7,0,11-0.1c7.5-0.1,10.1-7.9,10.2-11.7c0.1-5.1,0-50.1,0-52.5l0,0     c0.3-6-3.6-9.2-4.1-9.5L86.3,5.2c-8.4-7.4-17.4-3.7-21-0.6c-7.7,6-27.4,21.3-38.5,29.8C26.3,34.8,26.1,35,26,35     c-0.2,0.1-4.4,3.2-4.1,9.5c0,0.5-0.1,47.4,0,52.6c0.1,3.8,2.7,11.6,10.2,11.7c8.2,0.1,27.3,0.1,36.3,0c8.5-0.1,8.5-8.9,8.5-11.7     l0-0.6c0-0.1,0-0.1,0-0.1l0-0.1l0-37.8c0-1.2-0.8-2.1-1.9-2.1h-0.1c-0.7,0-1.4,0.2-2.2,0.5l-6.1,2.4c-0.9,0.4-1.4,1-1.4,1.8     c0,1,0.7,1.8,1.6,1.8c0.2,0,0.5-0.1,0.8-0.2l5.5-2l0,36.3c0,6.7-1.9,8-4.9,8.1c-9,0.1-28,0.1-36.3,0c-5.2,0-6.5-6.5-6.5-8.1     c-0.1-2.9-0.1-19.7,0-50c0-1.6,0-2.5,0-2.6c-0.2-4.2,2.3-6.2,2.6-6.4l0.1-0.1c3.1-2.3,30.1-23.2,39.4-30.5     C68,7.2,75.8,0.9,84,8.1l38.2,30.6c0,0,2.8,2.1,2.6,6.5l0,0.2c0,7.9,0.1,47.6,0,52.3c0,1.6-1.3,8.1-6.5,8.1     C109.8,105.8,105.4,105.8,96.6,105.7z"></path>
		</g>
		<g>
			<path d="M68.4,109c8.7-0.1,8.7-9,8.7-12l0-0.6c0-0.1,0-8.1,0-8.2V58.4c0-1.3-0.8-2.3-2.1-2.3h-0.1c-0.7,0-1.4,0.2-2.3,0.5     L66.5,59c-0.9,0.4-1.5,1-1.5,2c0,1.1,0.9,2,1.8,2c0.3,0,0.6-0.1,0.9-0.2L73,61l0,35.2c0,0,0,0.1,0,0.1l0,0.7     c0,6.5-1.8,7.8-4.6,7.8l-9.1,0v4.1L68.4,109z"></path>
			<path d="M59,109.2v-4.5l9.3,0c2.7,0,4.4-1.3,4.4-7.6l0-0.6c0,0,0-0.1,0-0.1l0-35l-4.9,1.8c-0.3,0.1-0.7,0.2-1,0.2     c-1.1,0-2-1-2-2.2c0-1,0.6-1.8,1.6-2.2l6.1-2.4c0.9-0.3,1.6-0.6,2.4-0.6H75c1.3,0,2.3,1.1,2.3,2.5v29.8c0,0.1,0,8.1,0,8.2l0,0.6     c0,3,0,12.1-8.9,12.2h0L59,109.2z M59.5,105.1v3.7l8.9,0c8.5-0.1,8.5-8.9,8.5-11.7l0-0.6c0-0.2,0-8.1,0-8.2V58.4     c0-1.2-0.8-2.1-1.9-2.1h-0.1c-0.7,0-1.4,0.2-2.2,0.5l-6.1,2.4c-0.9,0.4-1.4,1-1.4,1.8c0,1,0.7,1.8,1.6,1.8c0.2,0,0.5-0.1,0.8-0.2     l5.5-2l0,36.3c0,5.8-1.3,8-4.9,8.1L59.5,105.1z"></path>
		</g>
	</g>
</g>
<g id="wall_decor" class="st0">
	<g class="st2">
		<path d="M102.6,65.5v25.7h19.2V65.5H102.6z M119.3,88.4h-7.1h-7.1V68.3h7.1h7.1V88.4z"></path>
		<path d="M121.6,32.4c-0.4-0.4-0.9-0.6-1.4-0.6c-1.2,0-1.5,0.9-3.4,0.9c-1.9,0-2.1-0.5-3-0.5c-1,0-1.5,0.6-1.5,0.6    s-0.6-0.6-1.5-0.6c-1,0-1.1,0.5-3,0.5c-2,0-2.3-0.9-3.5-0.9c-0.6,0-1,0.2-1.4,0.6c-0.4,0.4-0.6,0.9-0.6,1.4c0,1.2,0.9,1.5,0.9,3.4    c0,1.9-0.5,2.1-0.5,3c0,1,0.6,1.5,0.6,1.5s-0.6,0.6-0.6,1.5c0,1,0.5,1.1,0.5,3c0,2-0.9,2.2-0.9,3.5c0,0.6,0.2,1,0.6,1.4    c0.4,0.4,0.9,0.6,1.4,0.6c1.2,0,1.5-0.9,3.4-0.9c1.9,0,2.1,0.5,3,0.5c1,0,1.5-0.6,1.5-0.6s0.6,0.6,1.5,0.6s1.1-0.5,3-0.5    c2,0,2.2,0.9,3.4,0.9c0.6,0,1-0.2,1.4-0.6c0.4-0.4,0.6-0.9,0.6-1.4c0-1.2-0.9-1.5-0.9-3.4c0-1.9,0.5-2.1,0.5-3    c0-1-0.6-1.5-0.6-1.5s0.6-0.6,0.6-1.5s-0.5-1.1-0.5-3c0-2,0.9-2.2,0.9-3.4C122.2,33.3,121.9,32.8,121.6,32.4z M118.4,48.1h-12.5    V35.6h12.5V48.1z"></path>
		<polygon points="43.7,30.1 27.8,30.1 31.4,33.7 43.7,33.7 56,33.7 59.6,30.1   "></polygon>
		<polygon points="43.7,30.1 27.8,30.1 31.4,33.7 43.7,33.7 56,33.7 59.6,30.1   "></polygon>
		<polygon points="43.7,72.1 59.6,72.1 56,68.5 43.7,68.5 31.4,68.5 27.8,72.1   "></polygon>
		<polygon points="43.7,72.1 59.6,72.1 56,68.5 43.7,68.5 31.4,68.5 27.8,72.1   "></polygon>
		<polygon points="27.8,30.1 27.8,72.1 31.4,68.5 31.4,33.7   "></polygon>
		<polygon points="59.6,30.1 59.6,72.1 56,68.5 56,33.7   "></polygon>
		<path d="M92.3,68.4c-0.2-0.4-0.3-0.8-0.5-1.1c-0.3-0.7-0.5-1.5-0.5-2.1c0-0.1,0-0.3,0-0.4c0.1-0.3,0.3-0.7,0.6-1.1    c0.2-0.2,0.3-0.4,0.4-0.6c0.1-0.2,0.2-0.5,0.3-0.8v0c0-0.1,0-0.1,0-0.2c0-0.3-0.1-0.7-0.3-1c-0.2-0.5-0.5-0.9-0.7-1.3    c-0.2-0.4-0.4-0.8-0.4-1.2c0-0.1,0-0.2,0-0.3c0.1-0.3,0.3-0.7,0.6-1.1c0.2-0.2,0.3-0.4,0.4-0.6c0.1-0.2,0.2-0.5,0.3-0.8    c0-0.1,0-0.2,0-0.2c0-0.4-0.1-0.8-0.2-1.1c-0.2-0.5-0.5-0.9-0.7-1.3c-0.2-0.4-0.4-0.7-0.4-1.1v-0.1c0-0.6,0.3-1.3,0.6-2.1    c0.3-0.8,0.7-1.5,0.7-2.4v-0.1c0-0.6-0.3-1.2-0.8-1.5c-0.4-0.4-1-0.6-1.6-0.7h0h0c-0.1,0-0.2,0-0.3,0h0h0    c-0.7,0.1-1.2,0.4-1.7,0.6c-0.5,0.3-0.9,0.5-1.4,0.5h0c-0.3,0-0.7-0.1-1.1-0.2c-0.4-0.1-0.8-0.3-1.3-0.4c-0.9-0.3-1.8-0.4-2.8-0.5    h0h0c-0.1,0-0.2,0-0.3,0c-0.1,0-0.2,0-0.3,0h0h0c-1,0.1-1.9,0.3-2.8,0.5c-0.4,0.1-0.9,0.3-1.3,0.4c-0.4,0.1-0.8,0.2-1.1,0.2h0    c-0.5,0-1-0.2-1.4-0.5c-0.5-0.3-1-0.6-1.7-0.6h0h0c-0.1,0-0.2,0-0.3,0h0h0C71,45.4,70.5,45.6,70,46c-0.4,0.4-0.7,0.9-0.8,1.5v0.1    c0,0.8,0.4,1.6,0.7,2.4c0.3,0.8,0.6,1.5,0.6,2.1v0.1c0,0.4-0.2,0.7-0.4,1.1c-0.2,0.4-0.5,0.8-0.7,1.3c-0.1,0.3-0.2,0.7-0.2,1.1    c0,0.1,0,0.2,0,0.2c0,0.3,0.1,0.5,0.3,0.8c0.1,0.2,0.3,0.4,0.4,0.6c0.3,0.4,0.5,0.8,0.6,1.1c0,0.1,0,0.2,0,0.3    c0,0.4-0.2,0.8-0.4,1.2c-0.2,0.4-0.5,0.8-0.7,1.3c-0.2,0.3-0.3,0.7-0.3,1c0,0.1,0,0.1,0,0.2v0c0,0.3,0.1,0.5,0.3,0.8    c0.1,0.2,0.3,0.4,0.4,0.6c0.3,0.4,0.5,0.8,0.6,1.1c0,0.1,0,0.3,0,0.4c0,0.7-0.3,1.4-0.5,2.1c-0.1,0.3-0.3,0.7-0.5,1.1    c-0.2,0.4-0.3,0.8-0.3,1.3v0.1v0c0,0.7,0.3,1.2,0.8,1.5c0.4,0.3,1,0.6,1.6,0.7h0h0c0.1,0,0.2,0,0.3,0h0h0c0.7-0.1,1.1-0.4,1.6-0.6    s0.9-0.4,1.4-0.5c0.1,0,0.2,0,0.3,0c0.7,0,1.5,0.3,2.4,0.5s1.8,0.6,2.7,0.6c0,0,0.1,0,0.1,0c0.1,0,0.2,0,0.3,0c0.1,0,0.2,0,0.3,0    c0,0,0.1,0,0.1,0c1,0,1.9-0.3,2.7-0.6c0.8-0.3,1.6-0.6,2.4-0.5c0.1,0,0.2,0,0.3,0c0.5,0.1,0.9,0.3,1.4,0.5s0.9,0.5,1.6,0.6h0h0    c0.1,0,0.2,0,0.3,0h0h0c0.6-0.1,1.1-0.3,1.6-0.7c0.4-0.4,0.8-0.9,0.8-1.5v0v-0.1C92.6,69.2,92.4,68.8,92.3,68.4z M88.8,67.7    c0,0.4-0.3,0.7-0.7,0.7H73.7c-0.4,0-0.7-0.3-0.7-0.7V49.5c0-0.4,0.3-0.7,0.7-0.7H88c0.4,0,0.7,0.3,0.7,0.7V67.7z"></path>
		<path d="M42.1,79.3v15.5h15.5V79.3H42.1z M55.1,92.3H44.5V81.7h10.6V92.3z"></path>
		<path d="M91.3,94.8c0-5.6-3.1-10.4-7.4-12c0,0,0-0.1,0-0.1c0-0.8-0.7-1.5-1.5-1.5c-0.2,0-0.4,0-0.6,0.1c0,0,0,0,0-0.1    c0-0.6-0.5-1-1-1c-0.6,0-1,0.5-1,1c0,0,0,0.1,0,0.1c-0.2-0.1-0.4-0.2-0.7-0.2c-0.8,0-1.5,0.7-1.5,1.5c0,0,0,0.1,0,0.1    c-4.3,1.6-7.4,6.3-7.4,12c0,5.7,3.2,10.4,7.5,12c-0.4,0.2-0.6,0.3-0.6,0.5c0,0.4,1.1,0.8,2.5,0.9c0,0,0,0,0,0c0,0.6,0.5,1,1,1    c0.6,0,1-0.5,1-1c0,0,0,0,0,0c1.5-0.1,2.5-0.5,2.5-0.9c0-0.2-0.2-0.4-0.6-0.5C88.2,105.2,91.3,100.4,91.3,94.8z M80.9,104.5    c-4.3,0-7.8-4.3-7.8-9.7c0-5.4,3.5-9.7,7.8-9.7c4.3,0,7.8,4.3,7.8,9.7C88.7,100.1,85.2,104.5,80.9,104.5z"></path>
		<path d="M81.2,0.7c-8,0-14.5,7.8-14.5,17.3s6.5,17.3,14.5,17.3s14.5-7.8,14.5-17.3C95.7,8.5,89.2,0.7,81.2,0.7z M81.2,33.5    c-6.9,0-12.4-6.9-12.4-15.4S74.3,2.6,81.2,2.6c6.9,0,12.4,6.9,12.4,15.4S88.1,33.5,81.2,33.5z"></path>
	</g>
</g>
<g id="rugs__x26__carpets" class="st0">
	<path class="st2" d="M109.5,18.5c-2,3.5-6,3.5-7.9,6.5c1.3,1.3,3.4,1.3,4.8,0.1c1.7-1.2,3.6-2.3,5.4-3.2c0.9-0.4,1.8-0.7,2.8-0.6   c-0.8,3.4-4.4,3.7-6.6,6.2l3.1,1.3c2.3-2.2,9.6-5.4,12.6-5.3c-2.6,3.2-6.4,4-9.5,6.2c2.2,1.6,4.1,2.3,6.6,0.8   c2.6-1.7,5.6-2.8,8.7-3.2c-1.9,3.3-5.1,3.9-7.7,5.7c1,1.1,2.6,1.4,3.9,0.7c2.6-1,5.3-2,7.9-2.8c0.6-0.1,1.3-0.2,2-0.2   c-0.4,2.3-2.3,2.2-3.6,2.8c-1.3,0.6-2.8,1.6-4.3,2.4c1.2,1.6,3.4,2,5.1,0.9c2.3-1.2,4.7-2.2,7.2-3c-0.7,3.8-4.5,3.5-5.9,6.2   c0.6,0,1.3-0.1,1.9-0.2c2.4-0.9,4.7-1.8,7-2.7c0.7-0.1,1.5-0.1,2.3,0c-1.5,3.1-5,2.7-6.8,4.9c0.2,0.5,0.5,1,0.8,1.4   c1.7,2,1.7,2.4-0.5,4c-2.2,1.5-4.5,3.1-6.8,4.4c-8.4,4.8-16.7,9.7-25.1,14.3C96,71.9,85,78,73.9,84c-2.9,1.4-5.6,3-8.2,4.9   c-1.9,1.3-4,2.3-6.1,3.2c-2,1-4,2-5.9,3c-3.1,1.6-3,1.6-5.8-0.6c-2.1,2.2-4.8,3.7-7.7,4.4c0.4-3.4,4.3-3.6,5.4-6.2   c-0.7-1-1.4-0.7-2.1-0.2c-1.6,1.1-3.1,2.3-4.7,3.3c-0.3,0.2-0.6,0.6-1,0.6c-0.6,0-1.1-0.1-1.6-0.4c-0.2-0.1-0.1-1,0.2-1.3   c0.6-0.6,1.2-1.1,1.8-1.6c1.2-0.9,2.4-1.7,3.6-2.6c-2.4-2.2-2.8-2.2-5-0.6c-1.7,1.2-3.4,2.4-5.2,3.7c-1.3-2.4,0.7-3,1.6-4   c1.1-1.1,2.2-2.1,3.4-3c-0.5-1-1.8-1.5-2.9-0.9c-0.1,0.1-0.3,0.2-0.4,0.3c-1.2,0.7-2.4,1.5-3.5,2.3C28.7,89.1,28,89,27,87.7   l4.8-3.8c-1.7-2-1.7-2-3.6-1c-1.1,0.6-2.2,1.4-3.2,2.3c-1,0.8-1.8,1-2.6-0.5c0.7-0.8,1.4-1.6,2.1-2.3c0.8-0.7,1.5-1.3,2.3-1.9   c-0.4-1.1-1.6-1.6-2.7-1.2c-0.2,0.1-0.3,0.1-0.4,0.2c-1.3,0.7-2.6,1.5-3.9,2.3c-0.7,0.5-1.4,1-2.1,0.2c-0.7-0.8-0.3-1.5,0.5-2.1   l3.7-2.6c-1.4-2.1-1.9-2.3-3.7-1.1c-1.3,0.8-2.4,1.8-3.7,2.7c-0.7,0.5-1.6,0.8-2-0.2c-0.2-0.4,0.2-1.3,0.7-1.7   c1.2-1.2,2.6-2.2,4-3.3c-0.7-1.4-1.6-1.5-2.7-0.8s-2.1,1.5-3.2,2.3c-1.1,0.7-1.8,1-2.8-0.1c0.3-2.4,3.4-2.3,4.1-4.3   c-2.4-2.6-2.4-2.6-5-0.5c-0.7,0.6-1.3,1.1-2.1,1.5c-0.4,0.2-1.1,0.1-1.6,0.2c-0.1-0.6-0.2-1.5,0.1-1.9c0.6-0.8,1.7-1.2,2.3-1.9   c0.7-0.7,1-1.4,0.8-2c-0.6-1.8,0.5-2.5,1.9-3.2c7.8-3.7,15.6-7.5,23.4-11.3c7.8-3.8,15.8-8,23.7-12c11.7-6,23.8-11.2,36.3-15.3   c2.1-1,4.6-1.2,6.8-0.4c0.5-2.3,2.5-3,4.3-3.9S106.8,17.9,109.5,18.5z M101.2,66.5C99,63.7,72.9,43.4,65.1,38.1   c-6.4,2.9-12.6,6.1-18.7,9.6C57.8,58.3,70,68,82.9,76.7L101.2,66.5z M62.2,88.1c-2.1-1.4-3.4-2.5-4.9-3.6c-3.2-2.2-6.5-4.4-9.7-6.7   c-1.8-1.3-3.6-2.7-5.4-3.9c-5.6-3.8-11.3-7.8-16.8-11.7c-3.4-2.5-3.4-2.6-7.1-0.9c-2.7,1.2-5.4,2.7-8.5,4.3c2.1,1.5,3.5,2.6,5,3.7   C22,74.2,29.3,79.1,36.5,84c4.3,2.9,8.5,5.7,12.8,8.6c1,0.9,2.5,1,3.6,0.3C55.8,91.3,58.7,89.8,62.2,88.1L62.2,88.1z M137.1,44.8   c-1.6-1.3-3.2-2.5-4.9-3.6c-10-5.3-20.4-9.9-31-13.7c-3.9-1.6-8.3-1.2-11.9,1.1c0.4,0.5,0.8,1,1.2,1.4c2.5,2,5,4,7.5,6   c7.1,5.5,14.3,11.1,21.4,16.7c1.1,1.1,2.8,1.3,4.2,0.6C128.3,50.9,132.8,48.1,137.1,44.8z"></path>
</g>
<g id="table_decor" class="st0">
	<g class="st2">
		<path d="M45.9,64.6v-2.3v-0.9c1.4-0.5,1.4-0.6,1.4-1.3c0-0.2-0.3-1.1-0.3-1.1h-0.4h-8.8h-9.2c-0.1,0,0.1,0.9,0.1,1.1    c0,0.6,0.4,0.8,1.8,1.3v0.9v2.3c-4.2,3-7.8,8.5-7.8,14.9c0,6.4,3.6,11.9,7.8,14.9v2.7h3.4h3.9h8.2v-2.7c4.2-3,7.8-8.5,7.8-14.9    C53.7,73.2,50.2,67.6,45.9,64.6z"></path>
		<path d="M86.8,34.7v-0.3l0-1.5c0.8-0.9,1.3-2.1,1.3-3.2c0-0.3,0-0.3-0.1-3.1h-0.4h-8.8h-9.2c-0.1,2.8,0.1,2.8,0.1,3.1    c0,1.2,0.3,2.5,1.8,3.4v1.5v4.1c-4.2,5.3-7.8,15.3-7.8,26.8s3.6,21.4,7.8,26.8v4.8h3.5h3.9h8.1v-4.8c4.2-5.3,7.8-15.3,7.8-26.8    s-3.6-21.4-7.8-26.8V34.7z"></path>
		<path d="M122.1,30.4v-4.7V24c0-1,1-2.5,1-3.8c0-0.4-0.1-0.6-0.1-3.4h-0.3h-5.9h-6.2c-0.1,2.8,0.3,3,0.3,3.4c0,1.3,0,2.8,1.4,3.8    v1.7v4.7c-2.8,6.1-5.3,17.5-5.3,30.6s2.4,24.5,5.3,30.6v5.5h1.9h2.6h5.3v-5.5c2.8-6.1,5.3-17.5,5.3-30.6S124.9,36.6,122.1,30.4z"></path>
	</g>
</g>
<g id="pot_plant" class="st0">
	<g class="st2">
		<path class="st5" d="M84.7,40.5c0,0.3,0,0.6,0,0.9c-3.6,4.5-5.4,8.8-6.2,11.3c-0.2,0.2-0.4,0.4-0.6,0.7c-0.2-1-0.4-1.9-0.5-2.9    c1.2-1.6,2.7-3.5,4.2-5.7c0.1-0.1,0.1-0.2,0.2-0.2c0,0,0,0,0,0C82.6,43.3,83.7,41.9,84.7,40.5z"></path>
		<path class="st5" d="M77.8,49.3c-0.3,0.5-0.4,0.9-0.6,1.2c0-0.1-0.1-0.3-0.1-0.4C77.4,49.8,77.6,49.5,77.8,49.3z"></path>
		<path class="st5" d="M85.9,36.4c-0.4,0.5-0.8,1-1.2,1.5c0,0,0,0,0,0c0,0,0,0,0,0c-2.4,3.2-4.3,6.4-5.6,8.8    c-0.8,0.7-1.6,1.4-2.3,2.1c-0.2-0.9-0.4-1.9-0.7-2.7c2.2-2.8,3.8-4.9,3.8-4.9c-1.5,1.1-2.9,2.3-4.2,3.5v0    c2.9-3.8,6.8-9.3,9.9-13.7C85.8,31.9,85.8,33.8,85.9,36.4z"></path>
		<path class="st5" d="M86.1,39.8c-0.3,0.3-0.5,0.6-0.7,0.8c0-0.3-0.1-0.5-0.2-0.8c0.3-0.4,0.6-0.8,0.9-1.2    C86,39,86.1,39.4,86.1,39.8z"></path>
		<path class="st5" d="M72.8,43.9c-0.6,0.7-1.2,1.3-1.7,2c-0.7-0.2-1.5-0.4-2.3-0.6c0.5-0.6,1-1.2,1.4-1.7    C71.1,43.6,72,43.7,72.8,43.9z"></path>
		<path class="st5" d="M76.2,52.3c-0.2-0.1-0.4-0.2-0.6-0.4c0.2-0.2,0.3-0.4,0.5-0.6C76.1,51.7,76.1,52,76.2,52.3z"></path>
		<path class="st5" d="M81.6,50.8c-0.6,1.1-1.1,2.1-1.5,3.1c-0.7,0.6-1.3,1.1-1.9,1.7c0-0.2-0.1-0.5-0.1-0.7    C79.4,53.4,80.6,52,81.6,50.8z"></path>
		<path class="st5" d="M91.8,56.4c-0.2,0-0.3,0-0.5,0c-0.2-0.9-0.4-1.8-0.7-2.7c0.3,0.1,0.7,0.2,1,0.3    C91.7,54.7,91.8,55.6,91.8,56.4z"></path>
		<path class="st5" d="M74.9,45.7c-0.3,0.4-0.7,0.7-1,1.1c-0.4-0.1-0.8-0.3-1.3-0.4c0.6-0.7,1.2-1.5,1.8-2.2c0,0,0.1,0,0.1,0    C74.6,44.6,74.8,45.2,74.9,45.7z"></path>
		<path class="st5" d="M91.4,47.6c0-0.1-0.1-0.3-0.1-0.4c0,0,0,0.1,0,0.4c-0.2,0-0.5,0-0.6,0c0.4-1,0.8-2,1.2-2.9c0,0,0.1,0,0.1,0.1    c0.1,0.9,0.3,1.9,0.4,3C92,47.6,91.7,47.6,91.4,47.6z"></path>
		<path class="st5" d="M91.5,52c-1.2,0-2.2,0.2-2.8,0.4c0.6-1.6,1.2-3.1,1.8-4.6c0.2,0.1,0.5,0.2,0.8,0.3C91.4,49,91.4,50.4,91.5,52    z"></path>
		<path class="st5" d="M75.7,49.9c-0.5,0.5-0.9,1-1.3,1.4c-0.5-0.3-1.1-0.5-1.8-0.8c0.9-1,1.7-2.1,2.5-3.1c0.1,0,0.1,0,0.2,0    C75.4,48.3,75.6,49.1,75.7,49.9z"></path>
		<path class="st5" d="M84.6,45c0,0.5,0,1.1,0,1.6c-0.6,0.7-1.2,1.4-1.6,2.2c-0.5,0.4-1,0.8-1.5,1.2C82.5,48.3,83.6,46.6,84.6,45z"></path>
		<path class="st5" d="M87.2,53.8c0.2-1.5,0.5-5,0.3-9.5c0.1-0.4,0.3-0.7,0.4-0.9c0.3,2.5,0.5,4.8,0.7,6.7    C88.2,51.3,87.7,52.6,87.2,53.8z"></path>
		<path class="st5" d="M87.1,34.9c-0.1,0.2-0.3,0.3-0.4,0.5c-0.2-1.5-0.5-3-0.9-4.5c0.3-0.4,0.6-0.8,0.8-1.2    C86.8,31.4,86.9,33.1,87.1,34.9z"></path>
		<path class="st5" d="M73.6,52.3c-0.6,0.7-1.2,1.4-1.7,2.1c-0.6-0.3-1.3-0.5-1.9-0.8c0.5-0.6,1-1.2,1.5-1.8    C72.2,52,72.9,52.2,73.6,52.3z"></path>
		<path class="st5" d="M88.7,50.1c0-1.2,0.1-5.8-0.3-11.6c0.7-1.2,1.1-2,1.1-2c-0.4,0.4-0.8,0.7-1.2,1.1c0-0.6-0.1-1.2-0.2-1.9    c0.6-0.9,1.2-1.7,1.7-2.5c0.4,4.1,0.8,8.2,1.1,11.4C90.2,46.3,89.4,48.1,88.7,50.1z"></path>
		<path class="st5" d="M87.4,38.3c-0.1,0.1-0.2,0.2-0.3,0.3c-0.1-0.4-0.1-0.9-0.2-1.4c0.1-0.1,0.2-0.3,0.3-0.4    C87.3,37.3,87.4,37.8,87.4,38.3z"></path>
		<path class="st5" d="M73.3,39.7C73.3,39.7,73.3,39.7,73.3,39.7C73.3,39.6,73.3,39.6,73.3,39.7C73.3,39.6,73.3,39.7,73.3,39.7z"></path>
		<path class="st5" d="M74.1,42.4c-0.3,0.3-0.7,0.7-1,1c-0.6-0.2-1.4-0.5-2.3-0.7c0.8-0.9,1.5-1.9,2.2-2.7c0.1,0,0.3,0,0.4,0.1    C73.7,40.8,73.9,41.6,74.1,42.4z"></path>
		<path class="st5" d="M86.5,28.2c-3.1,3.3-5.6,6.9-7.4,10c-1.5,2.5-2.6,4.7-3.3,6c-0.1-0.5-0.3-0.9-0.4-1.4c2-2.5,3.5-4.4,3.7-4.7    c-1.5,1.1-2.8,2.2-4.1,3.4c-0.1-0.4-0.3-0.9-0.4-1.3c0,0,0,0,0,0c0,0,0.1,0,0.1,0c0,0,0,0-0.1,0C78,35.7,83,28.3,86.1,23.6    C86.2,24.6,86.3,26.3,86.5,28.2z"></path>
		<path class="st5" d="M76.6,54.8c-0.4,0.5-0.9,1-1.3,1.5c-0.7-0.4-1.5-0.9-2.4-1.4c0.7-0.8,1.4-1.6,2-2.4c0.4,0.1,0.8,0.1,1.2,0.2    C76.4,53.4,76.5,54.1,76.6,54.8z"></path>
		<path class="st5" d="M76.9,56.9c-0.1,0.1-0.2,0.2-0.3,0.3c-0.1-0.1-0.2-0.2-0.3-0.2c0.2-0.2,0.3-0.4,0.5-0.6    C76.9,56.5,76.9,56.7,76.9,56.9z"></path>
		<path class="st5" d="M92,44.4L92,44.4C91.9,44.4,91.9,44.4,92,44.4C92,44.4,92,44.4,92,44.4z"></path>
		<path class="st5" d="M86.3,44.6c-0.1,0.1-0.2,0.2-0.4,0.4c-0.1-0.6-0.1-1.3-0.2-2c0.2-0.3,0.3-0.5,0.5-0.8    C86.2,43,86.3,43.8,86.3,44.6z"></path>
		<path class="st5" d="M87.9,43.2c-0.1,0.1-0.2,0.2-0.4,0.3c0-1-0.1-2.1-0.2-3.2c0.1-0.1,0.2-0.3,0.3-0.4    C87.7,41,87.8,42.1,87.9,43.2z"></path>
		<path class="st5" d="M101.9,38.5c-0.6-0.2-1.3-0.3-1.8-0.4c-0.2-1-0.4-2-0.6-3c0.7,0.3,1.4,0.5,2.2,0.8    C101.7,36.7,101.8,37.6,101.9,38.5z"></path>
		<path class="st5" d="M94.4,61c-0.5,0.8-1,1.7-1.5,2.6c0.1-0.7,0.3-2.1,0.4-4c0.3,0,0.6,0,0.9,0C94.3,60.1,94.3,60.6,94.4,61z"></path>
		<path class="st5" d="M94.5,40.5c-0.3,0-0.6,0-0.9,0c0.2-0.5,0.5-1,0.7-1.4C94.4,39.4,94.4,39.9,94.5,40.5z"></path>
		<path class="st5" d="M99.2,54c0-0.7,0-1.6,0-2.8c0.6,0.2,1.1,0.4,1.6,0.6c0,0,0,0.1,0,0.1C100.3,52.6,99.7,53.3,99.2,54z"></path>
		<path class="st5" d="M95.3,59.6c-0.3,0.4-0.5,0.9-0.8,1.3c0-0.2,0-0.7,0-1.3C94.7,59.6,95,59.6,95.3,59.6z"></path>
		<path class="st5" d="M66.5,46.1c-0.5,0.8-1,1.5-1.4,2.2c-0.6-0.1-1.1-0.2-1.7-0.3c0.4-0.7,0.8-1.5,1.2-2.3    C65.2,45.8,65.9,45.9,66.5,46.1z"></path>
		<path class="st5" d="M90.1,53.5c0,0.7-0.1,1.7-0.1,3c-1.4,0.2-2.4,0.7-3.1,1.1c0.5-1.5,1.1-3.1,1.7-4.7    C89.1,53.1,89.6,53.3,90.1,53.5z"></path>
		<path class="st5" d="M85.1,60c-1.5,4.4-3,9.3-4.4,14.9c-0.3,0-0.5,0-0.8,0c-0.1-5-0.4-9.6-0.9-13.8c0.4-0.8,0.8-1.4,1-2    c1.7-2.5,3.3-5.4,4.6-8.1C84.6,54,84.8,57.2,85.1,60z"></path>
		<path class="st5" d="M95.6,81.4c-1.1,2.8-8.1,4.9-16.5,4.9c-8.4,0-15.4-2.1-16.5-4.9c0,0,0.8-3.9,10.7-4.9    c1.1,4.5,1.5,7.6,1.5,7.6l0.8,0c-0.2-2.8-0.6-5.3-1-7.8c1.3-0.1,2.7-0.1,4.3-0.1c0.1,2.2,0.2,3.9,0.2,4.8    c-0.1,0.4-0.2,0.7-0.3,1.1l0.5,0.2c0,0,0-0.1,0-0.1l0.6,0.1c0-0.8,0-1.6,0-2.4c0.3-1,0.6-2.2,1-3.7c2.1,0.1,3.9,0.2,5.5,0.5    c-0.9,2.1-1.8,4.4-2.7,6.7l0.5,0.1c0,0,1.1-2.7,3-6.7C95.6,78.3,95.6,81.4,95.6,81.4z"></path>
		<path class="st5" d="M110.3,43c-0.7,0.7-1.2,1.1-1.4,1.4c-0.3,0.2-0.7,0.4-1.2,0.8c-0.2-0.2-0.4-0.3-0.7-0.5    c0.3-0.6,0.7-1.4,1-2.3C109.4,42.8,110.2,43,110.3,43C110.3,43,110.3,43,110.3,43z"></path>
		<path class="st5" d="M108,45.7c-0.5,0.2-0.9,0.4-1.2,0.5c0.3-0.2,0.5-0.4,0.7-0.6C107.7,45.6,107.8,45.6,108,45.7z"></path>
		<path class="st5" d="M107.4,45.5c-0.4,0.3-0.8,0.6-1.2,0.9c0.1-0.1,0.3-0.5,0.6-1.1C107,45.4,107.2,45.4,107.4,45.5z"></path>
		<path class="st5" d="M99,54.3C99,54.3,98.9,54.3,99,54.3c-0.7-0.4-1.3-0.7-1.9-1c0-0.9-0.1-1.9-0.2-2.9c0.5,0.2,1.1,0.4,1.6,0.6    C98.6,52.1,98.8,53.2,99,54.3C98.9,54.2,98.9,54.2,99,54.3C98.9,54.2,98.9,54.2,99,54.3C99,54.2,99,54.2,99,54.3z"></path>
		<path class="st5" d="M96.9,37.6c-0.8,0-1.4,0-1.9,0c0.5-1,1-2,1.5-3C96.6,34.8,96.7,36,96.9,37.6z"></path>
		<path class="st5" d="M98.2,49.2c-0.5-0.2-1.1-0.4-1.6-0.6c-0.1-0.7-0.2-1.4-0.3-2.1c0.5,0.2,1.1,0.4,1.6,0.6    C98,47.8,98.1,48.5,98.2,49.2z"></path>
		<path class="st5" d="M71.6,39.8c-0.8,0.8-1.5,1.7-2.2,2.5c-0.8-0.2-1.8-0.5-2.8-0.7c0.4-0.8,0.8-1.7,1.1-2.4    C69.1,39.3,70.4,39.6,71.6,39.8z"></path>
		<path class="st5" d="M99.3,41.1C99,41,98.6,41,98.2,40.9c-0.1-0.6-0.2-1.2-0.4-1.8c0.4,0.2,0.9,0.3,1.3,0.5    C99.2,40,99.3,40.6,99.3,41.1z"></path>
		<path class="st5" d="M62.8,45.4c-0.2,0.9-0.4,1.8-0.6,2.5c-0.5-0.1-1.1-0.1-1.7-0.1c0.1-0.8,0.2-1.7,0.3-2.7    C61.5,45.2,62.2,45.3,62.8,45.4z"></path>
		<path class="st5" d="M97.8,45.4c-0.6-0.2-1.2-0.3-1.7-0.4c-0.2-1.1-0.5-2.3-0.8-3.4c0.7,0.3,1.4,0.5,2.1,0.8    C97.5,43.3,97.6,44.3,97.8,45.4z"></path>
		<path class="st5" d="M95.6,48.3c-0.8-0.2-1.6-0.4-2.3-0.5c-0.2-0.9-0.4-1.9-0.6-2.8c0.8,0.3,1.7,0.7,2.6,1.1    C95.4,46.8,95.5,47.5,95.6,48.3z"></path>
		<path class="st5" d="M95.1,44.8c-1-0.2-1.9-0.3-2.6-0.3c-0.1-0.3-0.2-0.6-0.3-0.9c0.4-0.9,0.8-1.9,1.2-2.8    c0.4,0.2,0.7,0.3,1.1,0.5C94.8,42.3,94.9,43.5,95.1,44.8z"></path>
		<path class="st5" d="M99,37.8c-0.5-0.1-1-0.1-1.4-0.2c-0.3-1-0.6-2.1-1-3.1c0.1-0.2,0.2-0.4,0.3-0.6c0.5,0.2,1.1,0.5,1.7,0.7    C98.7,35.7,98.8,36.7,99,37.8z"></path>
		<path class="st5" d="M105.2,33c0,0.7-0.1,1.3-0.2,2c-0.9-0.3-1.8-0.5-2.6-0.7c-0.1-0.7-0.3-1.4-0.4-2.1    C103,32.6,104.1,32.8,105.2,33z"></path>
		<path class="st5" d="M98.5,33.9c-0.7,0-1.2,0-1.6,0c0.4-0.8,0.9-1.5,1.3-2.2C98.3,32,98.4,32.8,98.5,33.9z"></path>
		<path class="st5" d="M104.9,37c-0.1,0.8-0.1,1.7-0.1,2.5c-0.6-0.3-1.2-0.5-1.7-0.7c-0.1-0.8-0.2-1.7-0.3-2.6    C103.5,36.5,104.2,36.7,104.9,37z"></path>
		<path class="st5" d="M97.2,40.7c-0.8-0.1-1.6-0.2-2.2-0.2c-0.2-0.6-0.4-1.1-0.5-1.7c0.1-0.3,0.3-0.6,0.4-0.9    c0.6,0.3,1.3,0.6,2.1,0.9C97.1,39.4,97.1,40,97.2,40.7z"></path>
		<path class="st5" d="M67.2,36c-0.3,0.5-0.6,0.9-0.9,1.3c-1.6-0.4-3.3-0.9-5.1-1.2c0-0.4,0-0.9,0-1.3C63.2,35.2,65.3,35.6,67.2,36z    "></path>
		<path class="st5" d="M72.4,36.6c-0.7-0.3-1.8-0.7-3.1-1.2c0.5-1.3,0.9-2.3,1.2-2.9c0.1,0,0.3,0,0.4,0.1    C71.4,33.8,71.9,35.2,72.4,36.6z"></path>
		<path class="st5" d="M73,38.4c-0.3,0.3-0.6,0.6-0.9,0.8c-1-0.4-2.3-0.8-3.9-1.3c0.2-0.6,0.5-1.1,0.7-1.6c1.3,0.2,2.5,0.4,3.6,0.6    C72.7,37.4,72.8,37.9,73,38.4z"></path>
		<path class="st5" d="M70.8,32.4c-0.1,0-0.2-0.1-0.3-0.1c0.1-0.1,0.1-0.2,0.1-0.3C70.7,32.1,70.8,32.2,70.8,32.4z"></path>
		<path class="st5" d="M65.5,38.7c-0.4,0.8-0.8,1.6-1.2,2.3c-1-0.2-2.1-0.4-3.2-0.6c0-0.9,0-1.8,0-2.6    C62.6,38.1,64.1,38.4,65.5,38.7z"></path>
		<path class="st5" d="M63.8,42.4c-0.2,0.6-0.4,1.1-0.6,1.6c-0.7-0.1-1.5-0.2-2.3-0.4c0-0.6,0.1-1.2,0.1-1.8    C62,42.1,62.9,42.2,63.8,42.4z"></path>
		<path class="st5" d="M101.4,34.2c-0.9-0.1-1.6-0.2-2.3-0.3c-0.2-0.8-0.5-1.6-0.8-2.4c0.1-0.1,0.2-0.2,0.2-0.4    c0.7,0.3,1.6,0.6,2.6,0.9C101.2,32.7,101.3,33.4,101.4,34.2z"></path>
		<path class="st5" d="M91.9,42.5c-0.1-0.4-0.3-0.8-0.4-1.2c0,0,0.1,0.6,0.2,1.6c-0.2,0.4-0.4,0.9-0.6,1.3c0-2.4-0.1-6.9-0.5-12.1    c0.5-0.7,1-1.4,1.3-1.8c0.3,3.7,0.6,7.4,0.9,10.2c0,0-0.1,0-0.1,0c0,0,0,0,0.1,0c0,0,0,0,0,0.1C92.5,41.2,92.2,41.8,91.9,42.5z"></path>
		<path class="st5" d="M76.5,35.6c-0.9,1.8-1.6,3.2-2.1,4.2c-0.1-0.4-0.3-0.8-0.4-1.1C75.1,37.4,76,36.3,76.5,35.6z"></path>
		<path class="st5" d="M60,47.7c-0.4,0-0.7,0-1.1,0c-0.6-0.5-1.2-0.8-1.6-1.1c-0.3-0.3-1.3-1.4-2.8-2.7c1.4,0.3,3,0.6,4.9,0.9    C59.5,46,59.8,47,60,47.7z"></path>
		<path class="st5" d="M89.1,25.6c-0.7,0.7-1.4,1.3-2.1,2c-0.2-1.4-0.5-2.9-0.8-4.3c1.1-1.6,1.9-2.9,2.4-3.6    C88.7,21.1,88.9,23.1,89.1,25.6z"></path>
		<path class="st5" d="M89.7,32.1c-0.6,0.6-1.2,1.3-1.8,1.9c-0.2-1.7-0.4-3.4-0.7-5.1c0.8-1.1,1.4-2,1.9-2.7    C89.3,28,89.5,30,89.7,32.1z"></path>
		<path class="st5" d="M78.7,74.8c-1.6,0-3.1,0.1-4.5,0.2c-0.4-1.9-0.8-3.6-1.3-5.3c1.8-2,3.5-4.4,4.8-6.6    C78.2,67.6,78.5,71.6,78.7,74.8z"></path>
		<path class="st5" d="M98.1,55.5c-0.3,0.4-0.6,0.9-0.9,1.3c0-0.4,0-0.9,0-1.5C97.4,55.4,97.8,55.4,98.1,55.5z"></path>
		<path class="st5" d="M103.4,49.1c-0.5,0.5-1.1,1.1-1.6,1.8c-0.2-0.1-0.5-0.3-0.8-0.4c0-0.6,0-1.4,0-2.2    C101.8,48.5,102.6,48.8,103.4,49.1C103.4,49.1,103.4,49.1,103.4,49.1z"></path>
		<path class="st5" d="M101.7,52.2c-0.1,0-0.3,0-0.4,0c0,0,0.1-0.1,0.1-0.1C101.5,52.1,101.6,52.1,101.7,52.2z"></path>
		<path class="st5" d="M104.7,49.5c-0.5,0-0.9,0-1.2,0c0.1-0.1,0.2-0.2,0.3-0.3C104.1,49.3,104.4,49.4,104.7,49.5z"></path>
		<path class="st5" d="M68.6,43.2c-0.4,0.6-0.9,1.1-1.2,1.7c-0.7-0.2-1.4-0.3-2.1-0.5c0.3-0.5,0.5-1.1,0.8-1.6    C66.9,42.9,67.8,43.1,68.6,43.2z"></path>
		<path class="st5" d="M101,30.5c-1,0.1-1.8,0.3-2.3,0.4c0.4-0.6,0.8-1.2,1.1-1.7c0.3,0,0.6,0,1,0C100.9,29.6,100.9,30,101,30.5z"></path>
		<path class="st5" d="M67.4,50.9c-0.4,0.7-0.7,1.2-1,1.8c-0.8-0.2-1.7-0.3-2.6-0.4c-0.2-0.2-0.4-0.4-0.6-0.7    c0.4-0.4,0.8-0.9,1.3-1.4C65.5,50.4,66.4,50.7,67.4,50.9z"></path>
		<path class="st5" d="M64,50.1c-0.4,0.8-0.7,1.3-0.8,1.5c-0.5-0.6-1-1.1-1.5-1.5c-0.3-0.3-0.7-0.6-1-0.9c0.4,0.1,0.8,0.2,1.3,0.4    c-0.1,0.4-0.1,0.7-0.1,0.7c0.1-0.2,0.3-0.4,0.4-0.6C62.9,49.8,63.4,49.9,64,50.1z"></path>
		<path class="st5" d="M80.3,76.3c-0.1,0.5-0.2,0.9-0.4,1.4c0-0.5,0-0.9,0-1.4C80,76.3,80.1,76.3,80.3,76.3z"></path>
		<path class="st5" d="M96.9,57.1c-0.2,0.3-0.4,0.6-0.6,0.9c-0.7-0.4-1.3-0.7-2-1c0-0.7-0.1-1.5-0.1-2.3c0.8,0.2,1.6,0.4,2.4,0.5    C96.7,55.9,96.8,56.5,96.9,57.1z"></path>
		<path class="st5" d="M90.6,67.9c-1.2,2.3-2.4,4.9-3.6,7.6c-1.7-0.3-3.6-0.5-5.6-0.6c1.3-4.4,3.1-10.4,5.3-16.6    c1,0.4,2.2,0.7,3.3,0.9C90,62,90.1,65.2,90.6,67.9z"></path>
		<path class="st5" d="M106.4,45.2c-0.1,0.4-0.2,0.9-0.3,1.2c-0.4,0.3-0.8,0.7-1.3,1.1c-0.2,0.2-0.5,0.5-0.7,0.7    c-0.2-0.2-0.5-0.3-0.7-0.5c0-0.9,0-2.1,0-3.5c0.4,0.1,0.8,0.3,1.2,0.4c0,1.1,0,2.2,0.1,3c0,0,0.3-1.1,0.7-2.8    C105.8,45,106.1,45.1,106.4,45.2z"></path>
		<path class="st5" d="M79.3,56.2c-0.3,1-0.4,1.8-0.6,2.6c0,0-0.1,0.1-0.1,0.1c-0.1-0.5-0.1-1-0.2-1.4    C78.8,57.1,79.1,56.6,79.3,56.2z"></path>
		<path class="st5" d="M85.5,58.7c0.4-2.1,0.9-6.1,0.6-11.1c0.1-0.2,0.2-0.5,0.3-0.7c0.2,2.6,0.4,5.1,0.6,7.3    C86.6,55.7,86.1,57.1,85.5,58.7z"></path>
		<path class="st5" d="M75.9,58c-3,3.6-4,6.6-4.3,7.7c-0.3-0.9-0.7-1.7-1-2.5c1.4-1.5,3.1-3.4,4.8-5.4C75.6,58,75.8,58,75.9,58z"></path>
		<path class="st5" d="M77.4,60.1c-3.8,3.8-4.5,7.2-4.7,8.9c-0.3-1-0.7-2-1-2.9c1.8-2,3.8-4.5,5.5-6.9    C77.3,59.5,77.3,59.8,77.4,60.1z"></path>
		<path class="st5" d="M91,67c0.4-1.5,0.9-4.1,0.7-7.5c0.1,0,0.3,0,0.4,0c0.2,1.5,0.4,3,0.6,4.4C92.2,64.9,91.6,65.9,91,67z"></path>
		<path class="st5" d="M93.7,56.7c-0.2,0-0.3-0.1-0.5-0.1c0-0.7-0.1-1.5-0.2-2.3c0.1,0,0.2,0.1,0.3,0.1C93.5,55.2,93.6,56,93.7,56.7    z"></path>
		<path class="st5" d="M100.8,28.6c-0.3,0.2-0.6,0.4-0.8,0.5c0.2-0.3,0.5-0.6,0.7-0.9C100.7,28.2,100.8,28.3,100.8,28.6z"></path>
		<path class="st5" d="M70.4,46.7c-0.6,0.8-1.2,1.6-1.8,2.4c-0.8-0.2-1.6-0.4-2.6-0.6c0.6-0.7,1.2-1.4,1.8-2.2    C68.7,46.4,69.6,46.6,70.4,46.7z"></path>
		<path class="st5" d="M70.1,51.5c-0.4,0.6-0.8,1.2-1.2,1.7c-0.6-0.2-1.2-0.3-1.8-0.5c0.5-0.5,0.9-1.1,1.4-1.6    C69,51.3,69.5,51.4,70.1,51.5z"></path>
		<path class="st5" d="M74.2,57.7c-2.1,2.8-3.3,5-3.6,5.6c-0.6-1.3-1.2-2.5-1.8-3.7c0.7-0.8,1.6-1.7,2.4-2.7    C72.2,57.2,73.2,57.4,74.2,57.7z"></path>
		<path class="st5" d="M73.5,47.2c-0.8,0.9-1.6,1.9-2.3,2.8c-0.4-0.1-0.8-0.3-1.3-0.4c0.7-0.8,1.4-1.7,2.1-2.5    C72.5,47.1,73,47.1,73.5,47.2z"></path>
		<path class="st5" d="M67.5,55.7c-0.2,0.3-0.3,0.6-0.5,0.9c-0.3-0.5-0.6-0.9-0.9-1.4C66.5,55.4,67,55.5,67.5,55.7z"></path>
		<path class="st5" d="M93,52.1c-0.1,0-0.2,0-0.4,0c-0.2-1.2-0.6-2.5-1-3.8c0.3,0.1,0.6,0.2,0.9,0.4C92.7,49.7,92.9,50.9,93,52.1z"></path>
		<path class="st5" d="M70.3,56.6c-0.7,1.1-1.3,2-1.7,2.7c-0.5-0.9-1-1.7-1.5-2.5c0,0,0,0,0,0c0,0,0.1,0,0.1,0c0,0,0,0-0.1,0    c0.3-0.3,0.5-0.6,0.8-0.9C68.8,56.1,69.5,56.4,70.3,56.6z"></path>
		<path class="st5" d="M108.4,38c-0.3,1-0.6,2-0.8,2.9c-0.5-0.3-0.9-0.6-1.4-0.8c0.1-0.9,0.2-1.8,0.3-2.7    C107.1,37.7,107.8,37.9,108.4,38z"></path>
		<path class="st5" d="M109.8,33.7c-0.3,0.9-0.6,1.9-0.9,2.9c-0.7-0.4-1.5-0.7-2.2-1c0-0.8,0.1-1.5,0.1-2.3    C107.7,33.4,108.8,33.6,109.8,33.7z"></path>
		<path class="st5" d="M112,27c-0.2,0.6-0.8,2.3-1.5,4.6c-1.3-0.5-2.7-0.9-3.9-1c-0.1-0.7-0.1-1.4-0.2-2.2    C108.3,27.9,110.4,27.4,112,27z"></path>
		<path class="st5" d="M104.7,41.4c0,0.6,0,1.2-0.1,1.8c-0.4-0.2-0.9-0.5-1.3-0.6c0-0.5-0.1-1-0.1-1.6    C103.7,41.1,104.2,41.2,104.7,41.4z"></path>
		<path class="st5" d="M105.6,28.5c-0.1,0.6-0.1,1.2-0.2,1.9c-1.4-0.1-2.8-0.1-3.9,0.1c-0.1-0.4-0.2-0.8-0.4-1.3    C102.5,29.1,104,28.8,105.6,28.5z"></path>
		<path class="st5" d="M107.2,42.1c-0.2,0.8-0.4,1.5-0.6,2.2c-0.3-0.2-0.7-0.5-1-0.7c0.1-0.6,0.2-1.2,0.3-1.9    C106.4,41.9,106.8,42,107.2,42.1z"></path>
		<path class="st5" d="M100,46.1c-0.4-0.1-0.7-0.3-1.1-0.4c-0.1-1-0.2-2-0.4-3c0.3,0.1,0.7,0.2,1,0.3C99.7,44.1,99.8,45.1,100,46.1z    "></path>
		<path class="st5" d="M100.5,50.2c-0.5-0.2-0.9-0.5-1.4-0.7c0-0.6-0.1-1.3-0.1-2c0.4,0.1,0.8,0.3,1.2,0.4    C100.3,48.7,100.4,49.5,100.5,50.2z"></path>
		<path class="st5" d="M96.3,52.9c-0.8-0.3-1.6-0.5-2.3-0.7c-0.1-1-0.3-2.1-0.5-3.2c0.7,0.3,1.5,0.6,2.3,0.9    C96,51,96.1,52,96.3,52.9z"></path>
		<path class="st5" d="M103.1,47.7c-0.7-0.4-1.5-0.8-2.2-1.1c0-0.9-0.1-2-0.2-3.1c0.6,0.2,1.2,0.4,1.8,0.6    C102.8,45.3,102.9,46.6,103.1,47.7z"></path>
		<path class="st5" d="M102.3,42.1c-0.6-0.2-1.2-0.4-1.8-0.6c-0.1-0.5-0.1-1-0.2-1.5c0.6,0.2,1.2,0.4,1.8,0.6    C102.2,41,102.3,41.6,102.3,42.1z"></path>
		<path d="M79.1,86.3c-8.4,0-15.4-2.1-16.5-4.9l5.1,24.7c0,2.2,5.1,3.9,11.4,3.9c6.3,0,11.4-1.7,11.4-3.9l5.1-24.7    C94.4,84.1,87.5,86.3,79.1,86.3z"></path>
		<path d="M70.1,29.6c0,0,1.8-15.7,10.7-25.8C80.6,4.3,74.4,22.2,70.1,29.6z"></path>
		<path d="M123.6,44c-5.9-1.4-12.3,0.4-15.3,1.6c-0.1-0.1-0.2-0.2-0.4-0.3c0.4-0.3,0.7-0.5,1-0.7c5.3-2.5,15.7-9.6,15.7-9.6    c-6.1,1.3-11.6,5.8-14.2,8.2c-0.7,0.7-1.2,1.1-1.4,1.4c-0.3,0.2-0.7,0.4-1.2,0.8c-0.2-0.2-0.4-0.3-0.7-0.5c0.3-0.6,0.7-1.4,1-2.3    c1.2,0.4,2.1,0.6,2.2,0.6c-0.6-0.5-1.2-1-1.8-1.4c0.4-1,0.8-2,1.2-3.1c1.7,0.5,2.9,0.9,3.1,0.9c-0.9-0.8-1.8-1.4-2.7-2    c0.3-1.1,0.7-2.2,1-3.4c2.3,0.3,3.9,0.4,3.9,0.4c-1.1-1-2.3-1.8-3.5-2.3c0.3-1.6,0.5-3.3,0.6-5c2-0.5,3.4-1,3.4-1    c-3.3-1.2-6.8-0.7-9.6,0.2c0-0.1-0.1-0.3-0.1-0.4c0,0,0,0.2,0,0.5c-2.1,0.7-3.8,1.6-4.9,2.3c0-0.1-0.1-0.3-0.1-0.4    c0.4-0.5,0.8-1,1.2-1.4c4.8-3.4,14.2-13.4,14.5-13.7c-7.2,2.4-13.5,12.2-14.4,13.5c-0.5,0.5-1.4,1.4-2.5,2.9    c0.4-1,5.1-14.2,5.4-28.1c0,0-4.2,18.8-5.5,28.1c-0.4,0.5-0.8,1-1.2,1.6c-0.4,0.6-0.9,1.3-1.4,2.1c0.1-2,0.4-17.9-2.5-29.9    c0,0,1.4,20.9,2.4,29.9c-0.7,1.1-1.5,2.4-2.2,3.9c0.1-3.2,0.4-17.3-2.4-29c0,0,1.3,19.6,2.4,29.2c-0.5,0.9-1,1.9-1.5,2.9    c0.1-4.5,0.1-17.2-2.4-27.6c0,0,0.6,8.8,1.3,17.4c-0.4,0.4-0.9,0.8-1.3,1.2c-0.2-2-0.4-4-0.7-6.1c0.2-0.3,0.4-0.5,0.4-0.6    c-0.1,0.1-0.3,0.2-0.4,0.4c-0.3-1.9-0.6-3.7-1-5.6C89,19.2,89,19,89,19c-0.1,0.1-0.2,0.1-0.2,0.2c-0.1-0.5-0.2-0.9-0.3-1.4    c0,0,0,0.6,0.1,1.6c-5.4,4.8-9.4,11.1-11.8,15.7c-1.1,0.8-2.1,1.7-3.1,2.6c-0.1-0.4-0.3-0.7-0.4-1.1c5.4-7.1,15.1-22.1,15.1-22.1    c-9,7.8-14.1,19.3-15.2,22c-0.6-1.7-1.3-3.2-1.9-4.5c5.2-6.7,15.5-22.7,15.5-22.7c-9.2,7.9-14.8,21-15.5,22.6    c-0.9-1.8-1.7-3.3-2.5-4.6c1.8-8.2,2.6-25.9,2.6-25.9c-4.9,11.4-2.8,24.9-2.6,25.9c-1.2-1.9-2.1-3.1-2.8-3.8    c-0.8-1.7-6.7-13.3-16.9-19.6c0,0,10.8,14,16.9,19.8c0.7,0.9,1.4,2,2.1,3.1c-2.1-1.9-11.4-9.8-22.7-11.8c0,0,15,8.9,22.8,12.1    c0.4,0.7,0.7,1.3,1.1,2.1c-2.7-1.5-14.6-7.8-26.4-7.1c0,0,17.7,6.1,26.5,7.4c0.4,0.9,0.8,1.8,1.2,2.7c-0.1,0.1-0.2,0.2-0.3,0.3    c-3.5-1.4-15.2-5.6-26.1-4.9c0,0,17,3.8,25.8,5.2c-0.8,0.8-1.5,1.6-2.2,2.5c-1.9-0.6-4.2-1.3-6.8-1.9c0-1,0-1.7,0-1.7    c-0.3,0.5-0.5,1-0.7,1.5c-4.2-0.9-9-1.5-13.8-1.2c0,0,6.3,1.4,13.2,2.8c-0.1,0.4-0.2,0.8-0.3,1.2c-3.5-0.6-7.4-1-11.2-0.7    c0,0,5,1.1,10.9,2.4c-0.1,0.9-0.2,1.8-0.2,2.7c-3-0.4-6.3-0.6-9.5-0.4c0,0,4.2,0.8,9.5,1.8c0,0.7,0.1,1.3,0.1,1.9    c-1.8-0.2-3.7-0.3-5.7-0.3c-3.2-2.5-8.1-5.8-14.5-7.6c0,0,6.1,4.2,11.9,7.7c-0.1,0-0.3,0-0.4,0c0,0,0.2,0,0.7,0.1    c2.2,1.3,4.4,2.5,6.2,3.4c0.5,0.3,0.9,0.6,1.3,1h-1c-3.9-1.6-12.3-4.4-21.5-4.5c0,0,13.1,3.6,21.6,5.2c0.7,0.2,1.5,0.5,2.5,0.7    c0.3,0.3,0.6,0.6,0.9,0.9c-2.8-0.7-15.2-3.6-26.9-1.8c0,0,18.2,2.1,27,2c0.6,0.6,1.1,1.2,1.6,1.9C60,51.5,47.3,49.8,36,51.5    c0,0,18.3,0.7,27,0.6c0,0,0.1,0.1,0.1,0.1c-1.4-0.1-2.9-0.1-4.5,0c0,0,2.3,1.1,5.6,2.3c-4-0.6-14.9-1.9-25.6-0.3    c0,0,17.2,0.7,26.2,0.6c0.4,0.6,0.7,1.2,1.1,1.8C62.1,56,51,54.6,40.6,56.2c0,0,16.6,0.7,25.4,0.6c0.5,0.8,0.9,1.6,1.3,2.5    c-2.9-0.4-14.2-1.7-25.3,0c0,0,16.7,0.3,25.3,0.2c0.3,0.6,0.6,1.3,0.9,2c-3.4-0.4-14.3-1.6-25,0c0,0,16.3,0.3,25,0.1    c0.5,1,0.9,2.1,1.3,3.1c-2.6-0.7-10.4-2.4-20.7-0.8c0,0,12.5,1.2,20.9,1.1c0.4,1,0.8,2.1,1.1,3.1c-2.4-1-8.8-3-18.8-1.5    c0,0,10.7,2,18.9,2c0.8,2.4,1.4,4.7,1.9,6.8c-6.2,0.8-10.6,2.9-10.6,5.3c0,0.3,0.2,0.8,0.2,0.8s0.8-3.9,10.7-4.9    c1.1,4.5,1.5,7.6,1.5,7.6l0.8,0c-0.2-2.8-0.6-5.3-1-7.8c1.3-0.1,2.7-0.1,4.3-0.1c0.1,2.2,0.2,3.9,0.2,4.8    c-0.1,0.4-0.2,0.7-0.3,1.1l0.5,0.2c0,0,0-0.1,0-0.1l0.6,0.1c0-0.8,0-1.6,0-2.4c0.3-1,0.6-2.2,1-3.7c2.1,0.1,3.9,0.2,5.5,0.5    c-0.9,2.1-1.8,4.4-2.7,6.7l0.5,0.1c0,0,1.1-2.7,3-6.7c8.3,1.4,8.4,4.4,8.4,4.4s0.2-0.5,0.2-0.8c0-2.1-3.2-3.9-7.9-4.9    c1.2-2.7,2.8-5.8,4.5-9c5.2,1.4,12.7,0.9,12.7,0.9c-5.8-3.3-10.6-2.1-12.4-1.4c0.6-1.1,1.2-2.2,1.8-3.3c5.3,1.5,13.6,2.2,13.6,2.2    c-6-3.5-11.5-2.9-13.4-2.5c0.6-1,1.2-2,1.8-3c0.4,0,0.8,0,1.1,0c5.6,1.6,14.9,3.7,14.9,3.7c-5.2-3-11.2-3.8-14.3-4.1    c-0.3-0.3-0.7-0.5-1-0.8c0.3-0.5,0.6-0.9,0.9-1.3c5.4,1.6,16.1,3.9,16.1,3.9c-6.4-3.7-14-4.1-16-4.1c0.3-0.4,0.6-0.9,0.9-1.3    c1.4,0.2,2.2,0.4,2.2,0.4c-0.5-0.5-1.1-0.9-1.6-1.3c0.1-0.1,0.1-0.2,0.2-0.3c5.5,1.5,16.3,3.5,16.3,3.5c-6-3.5-13.5-3.8-16.1-3.8    c0.4-0.6,0.9-1.2,1.3-1.8c1.1,0.3,2.4,0.6,3.8,1c0.1,0,0.2,0.1,0.2,0.1c0,0,0,0,0,0c5.6,1.3,12.4,2.5,12.8,2.6    c-5-2.9-10.7-3.6-14.2-3.8c-0.5-0.4-1-0.7-1.6-1.1c0.4-0.5,0.8-1,1.2-1.5c5.4,1.6,17.2,3.8,17.2,3.8c-5-2.9-11.1-3.6-14.7-3.8    c-0.5-0.4-1-0.8-1.5-1.1c0.3-0.3,0.5-0.5,0.8-0.8c5.6,1.5,17.8,2.2,17.8,2.2c-6.8-3.9-15.6-2.7-17.6-2.4c0.4-0.4,0.8-0.8,1.2-1.2    C112.1,46.3,123.6,44,123.6,44z M58.9,47.7c-0.6-0.5-1.2-0.8-1.6-1.1c-0.3-0.3-1.3-1.4-2.8-2.7c1.4,0.3,3,0.6,4.9,0.9    c0.2,1.2,0.4,2.2,0.6,2.9C59.6,47.7,59.3,47.7,58.9,47.7z M108,45.7c-0.5,0.2-0.9,0.4-1.2,0.5c0.3-0.2,0.5-0.4,0.7-0.6    C107.7,45.6,107.8,45.6,108,45.7z M108.8,36.6c-0.7-0.4-1.5-0.7-2.2-1c0-0.8,0.1-1.5,0.1-2.3c1.1,0.2,2.1,0.3,3.1,0.5    C109.5,34.7,109.1,35.6,108.8,36.6z M112,27c-0.2,0.6-0.8,2.3-1.5,4.6c-1.3-0.5-2.7-0.9-3.9-1c-0.1-0.7-0.1-1.4-0.2-2.2    C108.3,27.9,110.4,27.4,112,27z M106.5,37.4c0.7,0.2,1.3,0.4,1.9,0.6c-0.3,1-0.6,2-0.8,2.9c-0.5-0.3-0.9-0.6-1.4-0.8    C106.3,39.3,106.4,38.4,106.5,37.4z M106,41.7c0.4,0.1,0.9,0.3,1.3,0.4c-0.2,0.8-0.4,1.5-0.6,2.2c-0.3-0.2-0.7-0.5-1-0.7    C105.7,43.1,105.8,42.4,106,41.7z M105.6,28.5c-0.1,0.6-0.1,1.2-0.2,1.9c-1.4-0.1-2.8-0.1-3.9,0.1c-0.1-0.4-0.2-0.8-0.4-1.3    C102.5,29.1,104,28.8,105.6,28.5z M102.4,34.4c-0.1-0.7-0.3-1.4-0.4-2.1c1,0.3,2.1,0.5,3.2,0.7c0,0.7-0.1,1.3-0.2,2    C104.1,34.8,103.3,34.6,102.4,34.4z M104.9,37c-0.1,0.8-0.1,1.7-0.1,2.5c-0.6-0.3-1.2-0.5-1.7-0.7c-0.1-0.8-0.2-1.7-0.3-2.6    C103.5,36.5,104.2,36.7,104.9,37z M81.4,49.9c1.1-1.7,2.1-3.4,3.1-5c0,0.5,0,1.1,0,1.6c-0.6,0.7-1.2,1.4-1.6,2.2    C82.4,49.1,81.9,49.5,81.4,49.9z M81.6,50.8c-0.6,1.1-1.1,2.1-1.5,3.1c-0.7,0.6-1.3,1.1-1.9,1.7c0-0.2-0.1-0.5-0.1-0.7    C79.4,53.4,80.6,52,81.6,50.8z M78.4,52.8c-0.2,0.2-0.4,0.4-0.6,0.7c-0.2-1-0.4-1.9-0.5-2.9c1.2-1.6,2.7-3.5,4.2-5.7    c0.1-0.1,0.1-0.2,0.2-0.2c0,0,0,0,0,0c1-1.4,2-2.8,3-4.2c0,0.3,0,0.6,0,0.9C81,45.9,79.3,50.2,78.4,52.8z M77.3,50.5    c0-0.1-0.1-0.3-0.1-0.4c0.2-0.3,0.4-0.5,0.6-0.8C77.6,49.8,77.4,50.2,77.3,50.5z M79.2,46.7c-0.8,0.7-1.6,1.4-2.3,2.1    c-0.2-0.9-0.4-1.9-0.7-2.7c2.2-2.8,3.8-4.9,3.8-4.9c-1.5,1.1-2.9,2.3-4.2,3.5v0c2.9-3.8,6.8-9.3,9.9-13.7c0,0.9,0.1,2.8,0.2,5.4    c-0.4,0.5-0.8,1-1.2,1.5c0,0,0,0,0,0c0,0,0,0,0,0C82.3,41.2,80.4,44.3,79.2,46.7z M66.5,46.1c-0.5,0.8-1,1.5-1.4,2.2    c-0.6-0.1-1.1-0.2-1.7-0.3c0.4-0.7,0.8-1.5,1.2-2.3C65.2,45.8,65.9,45.9,66.5,46.1z M65.2,44.4c0.3-0.5,0.5-1.1,0.8-1.6    c0.9,0.1,1.7,0.3,2.6,0.4c-0.4,0.6-0.9,1.1-1.2,1.7C66.7,44.7,66,44.5,65.2,44.4z M67.9,46.3c0.8,0.1,1.7,0.3,2.5,0.4    c-0.6,0.8-1.2,1.6-1.8,2.4c-0.8-0.2-1.6-0.4-2.6-0.6C66.6,47.8,67.3,47,67.9,46.3z M74.4,51.3c-0.5-0.3-1.1-0.5-1.8-0.8    c0.9-1,1.7-2.1,2.5-3.1c0.1,0,0.1,0,0.2,0c0.2,0.8,0.3,1.6,0.5,2.4C75.3,50.4,74.8,50.9,74.4,51.3z M76,51.4    c0.1,0.3,0.1,0.6,0.2,0.9c-0.2-0.1-0.4-0.2-0.6-0.4C75.7,51.7,75.9,51.6,76,51.4z M71.2,50c-0.4-0.1-0.8-0.3-1.3-0.4    c0.7-0.8,1.4-1.7,2.1-2.5c0.5,0.1,1,0.2,1.4,0.2C72.6,48.1,71.9,49.1,71.2,50z M73.9,46.7c-0.4-0.1-0.8-0.3-1.3-0.4    c0.6-0.7,1.2-1.5,1.8-2.2c0,0,0.1,0,0.1,0c0.1,0.5,0.2,1,0.4,1.6C74.5,46,74.2,46.4,73.9,46.7z M71,45.8c-0.7-0.2-1.5-0.4-2.3-0.6    c0.5-0.6,1-1.2,1.4-1.7c0.9,0.1,1.7,0.3,2.5,0.4C72.1,44.5,71.6,45.2,71,45.8z M70.1,51.5c-0.4,0.6-0.8,1.2-1.2,1.7    c-0.6-0.2-1.2-0.3-1.8-0.5c0.5-0.5,0.9-1.1,1.4-1.6C69,51.3,69.5,51.4,70.1,51.5z M71.5,51.9c0.7,0.2,1.4,0.3,2.1,0.4    c-0.6,0.7-1.2,1.4-1.7,2.1c-0.6-0.3-1.3-0.5-1.9-0.8C70.5,53.1,71,52.5,71.5,51.9z M75,52.5c0.4,0.1,0.8,0.1,1.2,0.2    c0.1,0.7,0.2,1.4,0.3,2c-0.4,0.5-0.9,1-1.3,1.5c-0.7-0.4-1.5-0.9-2.4-1.4C73.7,54.1,74.3,53.3,75,52.5z M76.8,56.4    c0,0.2,0.1,0.4,0.1,0.5c-0.1,0.1-0.2,0.2-0.3,0.3c-0.1-0.1-0.2-0.2-0.3-0.2C76.5,56.8,76.7,56.6,76.8,56.4z M87.6,44.3    c0.1-0.4,0.3-0.7,0.4-0.9c0.3,2.5,0.5,4.8,0.7,6.7c-0.5,1.2-0.9,2.4-1.4,3.7C87.4,52.4,87.7,48.9,87.6,44.3z M87.5,43.5    c0-1-0.1-2.1-0.2-3.2c0.1-0.1,0.2-0.3,0.3-0.4c0.1,1.1,0.2,2.2,0.3,3.3C87.8,43.3,87.7,43.4,87.5,43.5z M87.2,38.6    c-0.1-0.4-0.1-0.9-0.2-1.4c0.1-0.1,0.2-0.3,0.3-0.4c0,0.5,0.1,1,0.1,1.5C87.3,38.4,87.2,38.5,87.2,38.6z M86.7,35.4    c-0.2-1.5-0.5-3-0.9-4.5c0.3-0.4,0.6-0.8,0.8-1.2c0.1,1.6,0.3,3.4,0.5,5.2C87,35.1,86.8,35.2,86.7,35.4z M86.3,44.6    c-0.1,0.1-0.2,0.2-0.4,0.4c-0.1-0.6-0.1-1.3-0.2-2c0.2-0.3,0.3-0.5,0.5-0.8C86.2,43,86.3,43.8,86.3,44.6z M86,38.6    c0,0.4,0,0.8,0.1,1.1c-0.3,0.3-0.5,0.6-0.7,0.8c0-0.3-0.1-0.5-0.2-0.8C85.5,39.4,85.7,39,86,38.6z M86.2,47.6    c0.1-0.2,0.2-0.5,0.3-0.7c0.2,2.6,0.4,5.1,0.6,7.3c-0.5,1.4-1,2.9-1.6,4.4C85.9,56.6,86.4,52.6,86.2,47.6z M88.6,52.9    c0.5,0.2,1,0.4,1.5,0.6c0,0.7-0.1,1.7-0.1,3c-1.4,0.2-2.4,0.7-3.1,1.1C87.5,56,88,54.4,88.6,52.9z M88.8,52.4    c0.6-1.6,1.2-3.1,1.8-4.6c0.2,0.1,0.5,0.2,0.8,0.3c0,0.9,0.1,2.3,0.2,3.9C90.3,52.1,89.3,52.3,88.8,52.4z M91.4,47.6    c0-0.1-0.1-0.3-0.1-0.4c0,0,0,0.1,0,0.4c-0.2,0-0.5,0-0.6,0c0.4-1,0.8-2,1.2-2.9c0,0,0.1,0,0.1,0.1c0.1,0.9,0.3,1.9,0.4,3    C92,47.6,91.7,47.6,91.4,47.6z M91.9,44.4C91.9,44.4,91.9,44.4,91.9,44.4C92,44.4,92,44.4,91.9,44.4L91.9,44.4z M92.5,48.6    c0.2,1.1,0.3,2.3,0.5,3.5c-0.1,0-0.2,0-0.4,0c-0.2-1.2-0.6-2.5-1-3.8C91.9,48.4,92.2,48.5,92.5,48.6z M92.7,45    c0.8,0.3,1.7,0.7,2.6,1.1c0.1,0.7,0.2,1.5,0.3,2.3c-0.8-0.2-1.6-0.4-2.3-0.5C93.1,46.9,92.9,45.9,92.7,45z M93.4,54.5    c0.1,0.8,0.2,1.5,0.3,2.3c-0.2,0-0.3-0.1-0.5-0.1c0-0.7-0.1-1.5-0.2-2.3C93.1,54.4,93.3,54.4,93.4,54.5z M93.6,49    c0.7,0.3,1.5,0.6,2.3,0.9c0.2,1,0.3,2,0.4,3c-0.8-0.3-1.6-0.5-2.3-0.7C93.9,51.2,93.7,50.1,93.6,49z M96.1,44.9    c-0.2-1.1-0.5-2.3-0.8-3.4c0.7,0.3,1.4,0.5,2.1,0.8c0.1,1,0.2,2,0.4,3.1C97.2,45.2,96.6,45.1,96.1,44.9z M98,47.1    c0.1,0.7,0.2,1.4,0.3,2.1c-0.5-0.2-1.1-0.4-1.6-0.6c-0.1-0.7-0.2-1.4-0.3-2.1C96.9,46.7,97.4,46.9,98,47.1z M97.9,39.1    c0.4,0.2,0.9,0.3,1.3,0.5c0.1,0.5,0.1,1.1,0.2,1.6C99,41,98.6,41,98.2,40.9C98.1,40.3,98,39.7,97.9,39.1z M99.6,43.1    c0.1,1,0.3,2.1,0.4,3.1c-0.4-0.1-0.7-0.3-1.1-0.4c-0.1-1-0.2-2-0.4-3C98.9,42.8,99.2,42.9,99.6,43.1z M99.4,35    c0.7,0.3,1.4,0.5,2.2,0.8c0.1,0.9,0.2,1.7,0.3,2.6c-0.6-0.2-1.3-0.3-1.8-0.4C99.9,37,99.6,36,99.4,35z M102.1,40.5    c0.1,0.5,0.1,1,0.2,1.5c-0.6-0.2-1.2-0.4-1.8-0.6c-0.1-0.5-0.1-1-0.2-1.5C100.9,40.1,101.5,40.3,102.1,40.5z M100.7,28.1    c0,0.1,0,0.2,0,0.4c-0.3,0.2-0.6,0.4-0.8,0.5C100.3,28.7,100.5,28.4,100.7,28.1z M99.9,29.3c0.3,0,0.6,0,1,0    c0,0.4,0.1,0.8,0.1,1.3c-1,0.1-1.8,0.3-2.3,0.4C99.1,30.4,99.5,29.8,99.9,29.3z M98.6,31.2c0.7,0.3,1.6,0.6,2.6,0.9    c0.1,0.7,0.1,1.4,0.2,2.1c-0.9-0.1-1.6-0.2-2.3-0.3c-0.2-0.8-0.5-1.6-0.8-2.4C98.4,31.4,98.5,31.3,98.6,31.2z M98.3,31.6    c0,0.4,0.1,1.2,0.2,2.3c-0.7,0-1.2,0-1.6,0C97.4,33.1,97.8,32.3,98.3,31.6z M96.9,34c0.5,0.2,1.1,0.5,1.7,0.7    c0.1,0.9,0.2,2,0.3,3.1c-0.5-0.1-1-0.1-1.4-0.2c-0.3-1-0.6-2.1-1-3.1C96.7,34.4,96.8,34.2,96.9,34z M96.6,34.6    c0,0.2,0.1,1.4,0.3,3c-0.8,0-1.4,0-1.9,0C95.5,36.6,96,35.6,96.6,34.6z M94.9,37.9c0.6,0.3,1.3,0.6,2.1,0.9c0.1,0.6,0.1,1.3,0.2,2    c-0.8-0.1-1.6-0.2-2.2-0.2c-0.2-0.6-0.4-1.1-0.5-1.7C94.6,38.5,94.7,38.2,94.9,37.9z M94.3,39c0.1,0.4,0.1,0.9,0.2,1.5    c-0.3,0-0.6,0-0.9,0C93.9,40,94.1,39.5,94.3,39z M93.5,40.8c0.4,0.2,0.7,0.3,1.1,0.5c0.1,1,0.3,2.2,0.5,3.5    c-1-0.2-1.9-0.3-2.6-0.3c-0.1-0.3-0.2-0.6-0.3-0.9C92.7,42.6,93.1,41.7,93.5,40.8z M91.9,30.3c0.3,3.7,0.6,7.4,0.9,10.2    c0,0-0.1,0-0.1,0c0,0,0,0,0.1,0c0,0,0,0,0,0.1c-0.3,0.6-0.6,1.2-0.9,1.9c-0.1-0.4-0.3-0.8-0.4-1.2c0,0,0.1,0.6,0.2,1.6    c-0.2,0.4-0.4,0.9-0.6,1.3c0-2.4-0.1-6.9-0.5-12.1C91.2,31.3,91.6,30.7,91.9,30.3z M91,44.6c-0.7,1.7-1.5,3.5-2.3,5.5    c0-1.2,0.1-5.8-0.3-11.6c0.7-1.2,1.1-2,1.1-2c-0.4,0.4-0.8,0.7-1.2,1.1c0-0.6-0.1-1.2-0.2-1.9c0.6-0.9,1.2-1.7,1.7-2.5    C90.2,37.3,90.6,41.4,91,44.6z M89.7,32.1c-0.6,0.6-1.2,1.3-1.8,1.9c-0.2-1.7-0.4-3.4-0.7-5.1c0.8-1.1,1.4-2,1.9-2.7    C89.3,28,89.5,30,89.7,32.1z M88.6,19.7c0.1,1.4,0.3,3.5,0.5,5.9c-0.7,0.7-1.4,1.3-2.1,2c-0.2-1.4-0.5-2.9-0.8-4.3    C87.3,21.7,88.2,20.4,88.6,19.7z M86.1,23.6c0.1,1.1,0.2,2.7,0.4,4.6c-3.1,3.3-5.6,6.9-7.4,10c-1.5,2.5-2.6,4.7-3.3,6    c-0.1-0.5-0.3-0.9-0.4-1.4c2-2.5,3.5-4.4,3.7-4.7c-1.5,1.1-2.8,2.2-4.1,3.4c-0.1-0.4-0.3-0.9-0.4-1.3c0,0,0,0,0,0c0,0,0.1,0,0.1,0    c0,0,0,0-0.1,0C78,35.7,83,28.3,86.1,23.6z M76.5,35.6c-0.9,1.8-1.6,3.2-2.1,4.2c-0.1-0.4-0.3-0.8-0.4-1.1    C75.1,37.4,76,36.3,76.5,35.6z M73.3,39.6C73.3,39.6,73.3,39.7,73.3,39.6C73.3,39.7,73.3,39.7,73.3,39.6    C73.3,39.6,73.3,39.6,73.3,39.6z M73.5,40.1c0.2,0.8,0.4,1.6,0.6,2.4c-0.3,0.3-0.7,0.7-1,1c-0.6-0.2-1.4-0.5-2.3-0.7    c0.8-0.9,1.5-1.9,2.2-2.7C73.2,40,73.3,40,73.5,40.1z M70.7,32c0.1,0.1,0.1,0.3,0.2,0.4c-0.1,0-0.2-0.1-0.3-0.1    C70.6,32.1,70.7,32,70.7,32z M70.5,32.5c0.1,0,0.3,0,0.4,0.1c0.5,1.3,1,2.6,1.5,4c-0.7-0.3-1.8-0.7-3.1-1.2    C69.8,34.1,70.2,33.1,70.5,32.5z M68.9,36.3c1.3,0.2,2.5,0.4,3.6,0.6c0.2,0.5,0.3,1,0.5,1.5c-0.3,0.3-0.6,0.6-0.9,0.8    c-1-0.4-2.3-0.8-3.9-1.3C68.5,37.3,68.7,36.8,68.9,36.3z M71.6,39.8c-0.8,0.8-1.5,1.7-2.2,2.5c-0.8-0.2-1.8-0.5-2.8-0.7    c0.4-0.8,0.8-1.7,1.1-2.4C69.1,39.3,70.4,39.6,71.6,39.8z M67.2,36c-0.3,0.5-0.6,0.9-0.9,1.3c-1.6-0.4-3.3-0.9-5.1-1.2    c0-0.4,0-0.9,0-1.3C63.2,35.2,65.3,35.6,67.2,36z M61.2,37.8c1.4,0.3,2.9,0.6,4.3,0.9c-0.4,0.8-0.8,1.6-1.2,2.3    c-1-0.2-2.1-0.4-3.2-0.6C61.2,39.5,61.2,38.6,61.2,37.8z M61.1,41.9c0.9,0.2,1.8,0.3,2.7,0.5c-0.2,0.6-0.4,1.1-0.6,1.6    c-0.7-0.1-1.5-0.2-2.3-0.4C61,43.1,61.1,42.5,61.1,41.9z M60.9,45.1c0.6,0.1,1.3,0.2,1.9,0.3c-0.2,0.9-0.4,1.8-0.6,2.5    c-0.5-0.1-1.1-0.1-1.7-0.1C60.7,46.9,60.8,46,60.9,45.1z M61.7,50.1c-0.3-0.3-0.7-0.6-1-0.9c0.4,0.1,0.8,0.2,1.3,0.4    c-0.1,0.4-0.1,0.7-0.1,0.7c0.1-0.2,0.3-0.4,0.4-0.6c0.5,0.1,1.1,0.3,1.7,0.5c-0.4,0.8-0.7,1.3-0.8,1.5    C62.7,51,62.2,50.5,61.7,50.1z M63.8,52.3c-0.2-0.2-0.4-0.4-0.6-0.7c0.4-0.4,0.8-0.9,1.3-1.4c0.9,0.2,1.9,0.5,2.9,0.7    c-0.4,0.7-0.7,1.2-1,1.8C65.6,52.5,64.7,52.4,63.8,52.3z M66.1,55.2c0.5,0.2,0.9,0.3,1.4,0.5c-0.2,0.3-0.3,0.6-0.5,0.9    C66.7,56.1,66.4,55.6,66.1,55.2z M67.2,56.8C67.2,56.8,67.2,56.8,67.2,56.8c0.1,0,0.1,0,0.1,0C67.3,56.8,67.3,56.8,67.2,56.8    c0.3-0.3,0.6-0.6,0.9-0.9c0.7,0.3,1.5,0.5,2.3,0.7c-0.7,1.1-1.3,2-1.7,2.7C68.2,58.4,67.7,57.6,67.2,56.8z M68.8,59.6    c0.7-0.8,1.6-1.7,2.4-2.7c1,0.3,2,0.6,3,0.8c-2.1,2.8-3.3,5-3.6,5.6C70,62,69.4,60.7,68.8,59.6z M70.6,63.3    c1.4-1.5,3.1-3.4,4.8-5.4c0.2,0,0.3,0.1,0.5,0.1c-3,3.6-4,6.6-4.3,7.7C71.3,64.9,71,64.1,70.6,63.3z M72.7,69c-0.3-1-0.7-2-1-2.9    c1.8-2,3.8-4.5,5.5-6.9c0,0.3,0.1,0.6,0.1,1C73.6,64,72.8,67.3,72.7,69z M74.3,75.1c-0.4-1.9-0.8-3.6-1.3-5.3    c1.8-2,3.5-4.4,4.8-6.6c0.5,4.4,0.8,8.5,1,11.7C77.2,74.9,75.7,74.9,74.3,75.1z M78.8,58.8c0,0-0.1,0.1-0.1,0.1    c-0.1-0.5-0.1-1-0.2-1.4c0.3-0.4,0.6-0.8,0.9-1.2C79.1,57.2,78.9,58.1,78.8,58.8z M79.9,77.7c0-0.5,0-0.9,0-1.4c0.1,0,0.3,0,0.4,0    C80.1,76.8,80,77.2,79.9,77.7z M80.7,74.9c-0.3,0-0.5,0-0.8,0c-0.1-5-0.4-9.6-0.9-13.8c0.4-0.8,0.8-1.4,1-2    c1.7-2.5,3.3-5.4,4.6-8.1c0.1,3.1,0.2,6.2,0.5,9C83.6,64.4,82.1,69.3,80.7,74.9z M87,75.5c-1.7-0.3-3.6-0.5-5.6-0.6    c1.3-4.4,3.1-10.4,5.3-16.6c1,0.4,2.2,0.7,3.3,0.9c0,2.8,0.1,6,0.6,8.7C89.4,70.2,88.2,72.8,87,75.5z M91.7,54    c0.1,0.8,0.1,1.6,0.2,2.4c-0.2,0-0.3,0-0.5,0c-0.2-0.9-0.4-1.8-0.7-2.7C91,53.8,91.3,53.9,91.7,54z M91,67    c0.4-1.5,0.9-4.1,0.7-7.5c0.1,0,0.3,0,0.4,0c0.2,1.5,0.4,3,0.6,4.4C92.2,64.9,91.6,65.9,91,67z M92.9,63.6c0.1-0.7,0.3-2.1,0.4-4    c0.3,0,0.6,0,0.9,0c0.1,0.5,0.2,0.9,0.2,1.4C93.9,61.8,93.4,62.7,92.9,63.6z M94.5,60.9c0-0.2,0-0.7,0-1.3c0.3,0,0.5,0,0.8,0    C95,60.1,94.7,60.5,94.5,60.9z M96.4,58c-0.7-0.4-1.3-0.7-2-1c0-0.7-0.1-1.5-0.1-2.3c0.8,0.2,1.6,0.4,2.4,0.5    c0.1,0.7,0.2,1.3,0.3,1.9C96.7,57.4,96.5,57.7,96.4,58z M97.1,56.8c0-0.4,0-0.9,0-1.5c0.3,0.1,0.6,0.1,0.9,0.2    C97.8,55.9,97.5,56.3,97.1,56.8z M98.9,54.3c-0.6-0.4-1.3-0.8-1.9-1.1c0-0.9-0.1-1.9-0.2-2.9c0.5,0.2,1.1,0.4,1.6,0.6    c0.2,1.2,0.3,2.3,0.5,3.2c0,0-0.1,0-0.1,0c0,0,0,0,0.1,0C99,54.2,99,54.2,98.9,54.3C99,54.3,98.9,54.3,98.9,54.3z M99.1,47.5    c0.4,0.1,0.8,0.3,1.2,0.4c0.1,0.8,0.2,1.5,0.3,2.3c-0.5-0.2-0.9-0.5-1.4-0.7C99.1,48.9,99.1,48.2,99.1,47.5z M99.2,54    c0-0.7,0-1.6,0-2.8c0.6,0.2,1.1,0.4,1.6,0.6c0,0,0,0.1,0,0.1C100.3,52.6,99.7,53.3,99.2,54z M100.7,43.4c0.6,0.2,1.2,0.4,1.8,0.6    c0.2,1.3,0.4,2.5,0.5,3.6c-0.7-0.4-1.5-0.8-2.2-1.1C100.9,45.6,100.8,44.5,100.7,43.4z M101.3,52.2c0,0,0.1-0.1,0.1-0.1    c0.1,0,0.2,0.1,0.3,0.1C101.6,52.2,101.5,52.2,101.3,52.2z M101.7,50.9c-0.2-0.1-0.5-0.3-0.8-0.4c0-0.6,0-1.4,0-2.2    c0.8,0.3,1.6,0.6,2.4,0.9c0,0,0,0,0,0C102.8,49.6,102.3,50.2,101.7,50.9z M103.3,42.5c0-0.5-0.1-1-0.1-1.6c0.5,0.2,1,0.3,1.5,0.5    c0,0.6,0,1.2-0.1,1.8C104.2,42.9,103.8,42.7,103.3,42.5z M104.7,49.5c-0.5,0-0.9,0-1.2,0c0.1-0.1,0.2-0.2,0.3-0.3    C104.1,49.3,104.4,49.4,104.7,49.5z M104.9,47.6c-0.2,0.2-0.5,0.5-0.7,0.7c-0.2-0.2-0.5-0.3-0.7-0.5c0-0.9,0-2.1,0-3.5    c0.4,0.1,0.8,0.3,1.2,0.4c0,1.1,0,2.2,0.1,3c0,0,0.3-1.1,0.7-2.8c0.4,0.1,0.7,0.2,1.1,0.3c-0.1,0.4-0.2,0.9-0.3,1.2    C105.8,46.8,105.3,47.2,104.9,47.6z M106.8,45.3c0.2,0.1,0.4,0.1,0.6,0.2c-0.4,0.3-0.8,0.6-1.2,0.9    C106.3,46.3,106.5,45.9,106.8,45.3z"></path>
		<path d="M98.1,31.3C97.7,21.6,99.2,0,99.2,0C101.3,14.1,98.1,31.3,98.1,31.3z"></path>
	</g>
</g>
<g id="floor_lamp" class="st0">
	<path class="st2" d="M71.6,0C61.9,0,54,2.1,54,4.7v24.8c0,2.6,7.5,4.7,16.8,4.7v65.8c-8.2,0.1-16.3,1.7-16.3,5c0,3.2,8.6,5,17.1,5   c8.5,0,17.1-1.7,17.1-5c0-3.1-8.1-4.8-16.3-5V34.2c9.4-0.1,16.8-2.1,16.8-4.7V4.7C89.2,2,81.2,0,71.6,0z M71.6,8.9   c-10.5,0-16.9-2.4-16.9-4.2c0-1.7,6.4-4.2,16.9-4.2C82,0.5,88.5,3,88.5,4.7C88.5,6.4,82,8.9,71.6,8.9z"></path>
</g>
<g id="table_lamp" class="st0">
	<g class="st2">
		<g>
			<g>
				<path class="st6" d="M86.5,115.8"></path>
				<g>
					<g>
						<path d="M102.8,20.6c0.2-1.3-0.3-7.7-4.1-12.8C96,4,92.1,1.8,87.2,1.2C78.3,0.1,71.8,7.6,71.5,8c-0.1-0.1-0.3-0.1-0.4-0.2        c-1.4-0.3-1.7-0.1-3.1,0.3c-1.7,0.5-6.2,4.4-6.2,4.4l0,0c-1.8-1.2-5.2-2.3-7.5-1.1c-8.5,4.4-32.7,16.1-32.7,16.1l1,0.1        c2.9,0.5,9.6,2.8,17.2,6c9.2,3.9,16.5,7.8,17.1,9.1l0.1,0c0,0,9.8-14.5,11.1-16.9c1.1-1.9,0-6.8-0.6-7.5c0,0,6.4-4.5,5.6-8.4        c0.1-0.1,6.2-7.5,13.8-6.5c4.2,0.5,7.6,2.4,10,5.6c3.5,4.7,3.8,10.6,3.7,11.2c-5.4,33.1-3,81.7-2.8,85.2h-0.7        c-0.2,0-0.3,0.1-0.3,0.3c0,0.2,0.1,0.3,0.3,0.3h3.6c0.2,0,0.3-0.1,0.3-0.3c0-0.2-0.1-0.3-0.3-0.3h-0.7        C99.9,103.2,97.3,54,102.8,20.6z"></path>
						<g>
							<path class="st7" d="M117,106.1C117,105.9,117,106.2,117,106.1c0-0.9-8-1.8-17.8-1.8c-9.9,0-17.5,0.8-17.5,1.7         c0,0,0-0.1,0,0.1"></path>
							<path d="M117.2,106c-0.1,0.3-1.4,0.6-3.3,0.9c-3.2,0.4-8.5,0.7-14.5,0.7l-14.5-0.7c-2-0.3-3.2-0.6-3.3-0.9h-0.2v1.9h0.2         c0.4,0.9,8.2,1.6,17.8,1.6c9.6,0,17.4-0.7,17.8-1.6h0.1L117.2,106L117.2,106z"></path>
						</g>
					</g>
				</g>
			</g>
		</g>
		<ellipse transform="matrix(0.3968 -0.9179 0.9179 0.3968 -11.0429 57.1187)" class="st8" cx="37.9" cy="37" rx="2.2" ry="20"></ellipse>
	</g>
</g>
<g id="wall_lamp" class="st0">
	<g class="st2">
		<path d="M110.9,48.8h1.2v-0.1c2.4-0.7,4.2-7.5,4.2-15.9c0-8.4-1.9-15.2-4.2-15.9v-0.1h-4.6c-2.3,0-4.3,6.1-4.6,13.9h-5.8    c-3.3,0-6-1.1-8.1-3.4c-2.8-3-6.7-6.5-12.6-6.5c-7,0-11.7,5.7-15,10.6c-2,2.9-7.4,7.2-7.5,7.3c-0.7,0.6-0.9,1.6-0.3,2.4    c0.1,0.1,0.2,0.2,0.3,0.3v1.3c-0.8,0-1.5,0-1.6,0.1c-0.6,4.9-3.1,6-3.1,6h-6.8l-7.7,38.6l-1.3,0.7v2.7c0,0,6.3,2.2,20.7,2.4v0    c0.3,0,0.5,0,0.8,0c0.3,0,0.5,0,0.8,0v0c14.4-0.2,20.7-2.4,20.7-2.4v-2.7l-1.3-0.7l-7.7-38.6h-6.8c0,0-2.5-1.1-3.1-6    c0-0.1-0.7-0.1-1.4-0.1v-1.4c1-0.8,5.9-4.8,8-7.9c3-4.5,6.9-9.1,12.3-9.1c2.4,0,5.7,0.6,10.1,5.4c2.7,2.9,6.3,4.5,10.6,4.5h5.8    c0.2,8.2,2.2,14.6,4.6,14.6h1.4 M111.1,49.4 M47.1,55.6l-5,28.7c-0.1,0.3-0.4,0.6-0.7,0.6c0,0-0.1,0-0.1,0    c-0.4-0.1-0.6-0.4-0.6-0.8l5-28.7c0.1-0.4,0.4-0.6,0.8-0.6C46.9,54.9,47.1,55.2,47.1,55.6z M48.9,85.4c0,0.4-0.3,0.6-0.7,0.6    c0,0,0,0-0.1,0c-0.4,0-0.7-0.4-0.6-0.8L49.9,56c0-0.4,0.4-0.7,0.8-0.6c0.4,0,0.7,0.4,0.6,0.8L48.9,85.4z M55.8,85.9    c0,0.4-0.3,0.7-0.7,0.7c-0.4,0-0.7-0.3-0.7-0.7V56.3c0-0.4,0.3-0.7,0.7-0.7c0.4,0,0.7,0.3,0.7,0.7V85.9z M63.9,54.8    c0.4-0.1,0.7,0.2,0.8,0.6l5,28.7c0.1,0.4-0.2,0.7-0.6,0.8c0,0-0.1,0-0.1,0c-0.3,0-0.6-0.2-0.7-0.6l-5-28.7    C63.3,55.2,63.5,54.9,63.9,54.8z M62.9,85.3c0,0.4-0.3,0.7-0.6,0.8c0,0,0,0-0.1,0c-0.4,0-0.7-0.3-0.7-0.6l-2.4-29.3    c0-0.4,0.3-0.7,0.6-0.8c0.4,0,0.7,0.3,0.8,0.6L62.9,85.3z M105.8,43c-0.6-2.5-1-5.6-1.1-8.9h1.5c0.9,0,1.7-0.8,1.7-1.7    c0-0.9-0.8-1.7-1.7-1.7h-1.5c0.1-3,0.5-5.9,1.1-8.1c0.7-2.7,1.5-3.8,1.8-4c0.3,0.3,1.1,1.3,1.8,4c0.7,2.8,1.1,6.4,1.1,10.2    c0,3.8-0.4,7.4-1.1,10.2c-0.7,2.7-1.5,3.8-1.8,4C107.3,46.8,106.5,45.7,105.8,43z"></path>
	</g>
</g>
<g id="pendant_1_" class="st0">
	<path class="st2" d="M77.7,44.7l-1.1-20.4H76V5.2h-0.8v19.1h-0.7L73,44.7c-21.7,0.5-32.7,9.2-32.7,25.9c0,12.6,14.1,27.4,23.6,33.4   c0.1,0,0.1,0.1,0.2,0.1c0.3,0,7.7,0.8,10.8,0.8c3.1,0,10.7-0.7,11-0.7c0.1,0,0.1,0,0.2-0.1c9.5-6,23.6-20.9,23.6-33.6   C109.7,54,98.9,45.4,77.7,44.7z M83.9,103.4c-0.1,0-0.1,0-0.2,0c3.8-3.3,21.4-19.6,20.9-35.3c-0.4-12-9.5-17.9-15.5-20.5   c5.7,2,17.1,7.7,17.5,20.5c0.5,17.1-22.4,34.9-22.6,35.1C84,103.2,83.9,103.3,83.9,103.4z M73.9,103.7c0,0.1,0,0.2,0.1,0.2   c-0.2,0-0.3,0-0.5,0c0-0.1,0.1-0.1,0-0.2c0-0.2-2.5-18.3-2.5-35.6c0-13.7,1.1-19.4,1.6-21.1c0.6,0,1.3,0,1.8,0   c-0.3,2-0.8,7.7-0.9,21.1C73.7,85.4,73.9,103.5,73.9,103.7z M72.2,103.9c-0.3-1.4-3.8-19.1-3.7-35.8c0.1-14,1.8-19.6,2.5-21.1   c0.3,0,0.6,0,0.9,0c-0.5,2-1.5,7.7-1.6,21.1c0,17.4,2.4,35.5,2.5,35.7c0,0,0,0.1,0,0.1C72.6,103.9,72.4,103.9,72.2,103.9z    M65.5,103.3c-1.4-1.2-22.8-18.6-22.3-35.2c0.4-12.8,11.8-18.5,17.5-20.5c-5.9,2.6-15.1,8.6-15.5,20.5C44.7,83.7,62,100,65.9,103.4   C65.7,103.4,65.6,103.3,65.5,103.3z M68.5,48.1c-1.9,2.8-4.6,8.7-4.7,20c-0.1,12.2,3.2,24.8,5.2,31.3c-3.2-6.3-8.6-19-8.4-31.3   c0.1-8.9,2.9-14.3,5.2-17.2C66.8,49.7,67.7,48.8,68.5,48.1z M56.3,68.1c0.2-8.9,4-14.3,7.1-17.2c1.5-1.4,3.1-2.4,4.3-3.1   c-0.7,0.7-1.6,1.5-2.4,2.5c-2.4,3-5.3,8.6-5.4,17.8c-0.2,13.5,6.3,27.4,9.3,33.2C65.2,95.9,56,81.7,56.3,68.1z M68.8,102.2   c-4.1-4.3-17.6-19.5-17.2-34.1C52,56.7,59.9,51,65.2,48.4c-4.1,3-9.5,8.9-9.7,19.7C55.2,82.4,65.2,97.3,68.8,102.2z M64.7,68.1   c0.1-12.3,3.3-18,5.1-20.3c-0.8,2.6-2.1,8.5-2.1,20.3c-0.1,15.4,2.9,31.7,3.6,35.3C70.6,101.5,64.5,84.4,64.7,68.1z M66.4,46   c0.4,0,0.8-0.1,1.3-0.1c-0.1,0-0.3,0.1-0.6,0.2C66.8,46,66.6,46,66.4,46z M67.2,103.4c-0.2-0.2-21.7-18.2-21.2-35.3   c0.4-13.2,12.1-18.9,17.3-20.7c-5.7,2.5-15,8.5-15.4,20.7c-0.3,9.2,5.2,18.5,9.9,24.7c4.1,5.4,8.2,9.4,9.7,10.8   C67.4,103.5,67.3,103.5,67.2,103.4C67.2,103.5,67.2,103.4,67.2,103.4z M68.6,103.4c-0.2-0.2-20.4-18.2-19.9-35.3   c0.2-7.1,3.5-12.9,9.7-17.2c2.6-1.8,5.2-2.9,7-3.6c-5.4,2.5-14.3,8.5-14.6,20.7c-0.4,16.1,15.6,32.9,18.2,35.6c-0.1,0-0.2,0-0.3,0   C68.7,103.5,68.7,103.5,68.6,103.4z M78.4,47c0.7,1.6,2.4,7.2,2.5,21.1c0.1,17.3-4.4,35.4-4.5,35.5c0,0.1,0,0.2,0,0.3   c-0.2,0-0.4,0-0.6,0c0,0,0,0,0-0.1c0-0.2,2.2-18.3,2.2-35.7c0-13.7-0.6-19.3-0.9-21.2C77.5,47,77.9,47,78.4,47z M83.9,50.9   c2.3,2.9,5,8.3,5.2,17.2c0.2,14.3-7.3,29.3-9.8,33.9c1.9-5.1,7-19.8,6.8-33.9c-0.1-10.7-2.5-16.5-4.4-19.5   C82.5,49.2,83.2,49.9,83.9,50.9z M89.9,68.1c-0.1-9.2-3-14.7-5.4-17.8c-0.8-1.1-1.7-1.9-2.4-2.5c1.2,0.7,2.8,1.7,4.3,3.1   c3.1,2.9,6.9,8.3,7.1,17.2c0.3,13.6-9,27.8-12.8,33.1C83.7,95.5,90.2,81.6,89.9,68.1z M94.3,68.1c-0.2-10.8-5.6-16.7-9.7-19.7   c5.3,2.6,13.2,8.3,13.5,19.7c0.4,16.3-16.1,33.3-17.9,35.2C82.9,99.7,94.7,83.6,94.3,68.1z M98.9,68.1   c-0.3-12.2-9.2-18.2-14.6-20.7c1.8,0.7,4.4,1.8,7,3.6c6.3,4.3,9.5,10,9.7,17.2c0.5,16.5-18.2,33.8-19.8,35.2   C84.6,99.8,99.4,83.6,98.9,68.1z M77.1,103.8c0-0.2,4.6-18.4,4.5-35.7C81.6,54.8,80,49,79.2,47c0.1,0,0.2,0,0.2,0   c1.4,1.4,5.7,6.8,5.8,21.1c0.2,17.2-7.4,35.3-7.5,35.5c0,0.1,0,0.2,0,0.3C77.6,103.9,77.3,103.9,77.1,103.8   C77.1,103.9,77.1,103.8,77.1,103.8z M79.9,103.5c0,0.1-0.1,0.1-0.1,0.2c0,0,0,0-0.1,0C79.8,103.7,79.9,103.6,79.9,103.5z    M81.1,103.5c0,0-0.1,0.1-0.1,0.1c0,0-0.1,0-0.1,0C81,103.6,81,103.5,81.1,103.5z M92,92.7c4.7-6.2,10.2-15.5,9.9-24.7   c-0.4-12.2-9.7-18.2-15.4-20.7c5.2,1.9,16.9,7.5,17.3,20.7c0.5,17.1-21.1,35.1-21.4,35.3c0,0-0.1,0.1-0.1,0.1c-0.1,0-0.1,0-0.2,0   C83.7,102.2,87.9,98.1,92,92.7z M83.7,46C83.7,46,83.7,46,83.7,46c-0.3,0-0.6,0-0.9,0c-0.5-0.1-0.7-0.2-0.8-0.2   c-0.2,0-0.4,0.1-0.5,0.3c-0.2,0-0.4,0-0.5,0c-0.6-0.2-0.9-0.3-0.9-0.3c-0.1,0-0.2,0-0.3,0c0,0-0.1,0-0.1,0c-0.1,0-0.2,0-0.3,0.1   l0,0c-0.1-0.1-0.2-0.1-0.3-0.1c-0.2,0-0.3,0.1-0.4,0.2l0,0c-0.1-0.2-0.4-0.2-0.6-0.1c-0.1,0.1-0.2,0.2-0.2,0.3c-0.1,0-0.2,0-0.3,0   l0-0.7C79.8,45.6,81.8,45.7,83.7,46z M72.9,46.2C72.9,46.2,72.9,46.2,72.9,46.2c0-0.2-0.1-0.3-0.3-0.3c-0.2-0.1-0.4,0-0.5,0.2   c0,0,0,0,0,0.1c-0.3,0-0.6,0-0.8,0c0-0.1-0.1-0.2-0.2-0.3c-0.1,0-0.2-0.1-0.2-0.1c-0.1,0-0.1,0-0.2,0c-0.1,0-0.1,0-0.2,0   c0,0-0.1,0-0.2,0.1c-0.1-0.1-0.2-0.1-0.4-0.1c0,0,0,0-0.1,0c-0.1,0-0.2-0.1-0.3,0c0,0-0.3,0.1-0.8,0.2c-0.2,0-0.4,0-0.7,0   c-0.1-0.1-0.2-0.2-0.3-0.2c1.7-0.2,3.4-0.3,5.2-0.3L72.9,46.2z M41.2,70.6c0-11.8,5.7-19.5,17.1-23c-6.2,2.6-15.6,8.6-15.9,20.5   c-0.3,9.2,5.9,18.5,11.2,24.7c3.8,4.4,7.6,7.9,9.8,9.8C53.9,96.2,41.2,82.4,41.2,70.6z M74.7,104c0.1-0.1,0.1-0.2,0.1-0.2   c0-0.2-0.3-18.3-0.3-35.6c0-13.5,0.6-19.2,0.9-21c0.1,0,0.1,0,0.2,0c0.2,0,0.5,0,0.8,0c0.3,1.7,0.9,7.3,0.9,21.2   c0,17.3-2.2,35.4-2.2,35.6c0,0.1,0,0.1,0,0.2c0,0-0.1,0-0.2,0C74.8,104,74.7,104,74.7,104z M85.7,103.2c-0.1,0-0.3,0-0.5,0   c1.7-1.4,6.4-5.3,11-10.6c5.3-6.1,11.6-15.4,11.3-24.6C107.1,55.8,97,49.8,90.9,47.3c11.9,3.3,18,11,18,23   C108.8,82.8,95.1,97.3,85.7,103.2z"></path>
	<line class="st9" x1="69.1" y1="6.3" x2="80.9" y2="6.3"></line>
</g>
<g id="pendant" class="st0">
	<g class="st2">
		<path d="M115.9,87.5c-3.6,0.4-18.2,1.8-41.1,1.8c-22.9,0-37.2-1.4-40.7-1.8l5.5-8.3c8.3,0.5,20.1,1.1,35.1,1.1    c12.6,0,24.6-0.4,35.5-1.1h0.1L115.9,87.5z"></path>
		<path d="M108.8,96.9c-3.1,0.4-15.1,1.8-34,1.8c-18.8,0-30.6-1.4-33.6-1.8l4.1-7.4c7,0.4,17,0.9,29.5,0.9c12.6,0,22.7-0.4,29.9-0.9    L108.8,96.9z"></path>
		<path d="M123.1,77c-1.8,0.2-6.2,0.6-12.9,1.1c-10.9,0.7-22.8,1.1-35.5,1.1c-27.2,0-44-1.7-47.9-2.1l8.3-12.4h0.1    c0.3,0,33.2-0.7,38.2-0.7c5,0,40.8,0.7,41.2,0.7h0.1L123.1,77z"></path>
		<path d="M73.6,62.9 M81.1,63V52.2c0,0-2-0.2-4.1-0.3l-0.2-2.4h-1.3V5.6h-1.1v43.9h-1.3l-0.2,2.4C71,52,69,52.2,69,52.2V63     M74.3,50.5h1.6l0.1,1.3c-0.2,0-0.5,0-0.7,0c-0.3,0-0.7,0-1.1,0L74.3,50.5z"></path>
		<line class="st5" x1="69" y1="63" x2="81" y2="63"></line>
		<path d="M74.2,51.6h1.6l0.1,1.3c-0.2,0-0.5,0-0.7,0c-0.3,0-0.7,0-1.1,0L74.2,51.6z M115.9,87.5c-3.6,0.4-18.2,1.8-41.1,1.8    c-22.9,0-37.2-1.4-40.7-1.8l5.5-8.3c8.3,0.5,20.1,1.1,35.1,1.1c12.6,0,24.6-0.4,35.5-1.1c0,0,0.1,0,0.1,0L115.9,87.5z M110.2,78.1    c-10.9,0.7-22.8,1.1-35.5,1.1c-27.1,0-44-1.7-47.9-2.1l8.3-12.4h0.1c0.3,0,33.2-0.7,38.2-0.7c5,0,40.8,0.7,41.2,0.7h0.1l8.3,12.4    C121.4,77.2,116.9,77.7,110.2,78.1z"></path>
		<path class="st10" d="M94.5,99.8v3c-0.2,1.6-8.9,3-19.5,3c-10.3,0-18.9-1.6-19.5-3c0,0,0-1.3,0-1.3v-1.7c4.8,0.5,11.7,1,19.5,1    C83.5,100.9,89.1,100.5,94.5,99.8z"></path>
	</g>
</g>
<g id="Layer_13" class="st0">
	<path class="st2" d="M75.2,44.9L75.2,44.9l-0.2,0c-1.2-0.2-28.3-3.7-32.2-4c-2.8-0.2-3.1-4.6-3.1-4.7c0-0.1-0.4-6.9-1.1-13.9   C37.3,7.7,36.2,6.4,35.8,5.9c-1.7-2-3.8-2.3-4.9-2.3c-5.4,0.1-5.4,0.1-5.4,0.1l0,0L4,9L3.9,9.1c-0.8,0.4-1.1,1.1-1,1.7   c0.3,1.1,1.6,1.1,2.1,1.1c0.4,0,0.9,0,1.4-0.1c0.1,0,0.2,0,0.3,0c1.6,0,2.2,1.7,2.3,2c0.2,1.6,4.3,27.8,4.7,32.9   c0.5,5.9,4.2,7.3,4.4,7.4l0.1,0l0.1,0c0.3,0,26.6,3.7,34,4.7c6.1,0.8,7.7,5.8,8,6.6c0,1.1,0,9.2,0.1,16.9c-9.7-2-20.5-3.9-21.3-4.1   c-0.3-0.1-1.9-0.4-4-0.4c-2.6,0-4.7,0.6-6.4,1.7c-3.6,2.5-15.6,9.3-16.1,9.6c-0.4,0.2-2.3,1.3-2.1,2.9c0.1,1.7,2.3,2.4,3,2.6   c4.6,1.5,38.9,8.2,40.3,8.5l0.1,0l0.1,0c0.1,0,8.5-0.2,8.5-9.3c0-2.2,0-5.4,0-8.9c3.1,0.7,5.6,1.3,7.6,1.8c1.5,0.4,2.9,0.6,4.2,0.6   c7.3,0,7.8-6.8,7.8-6.8l0,0c0-0.2,0.6-20.1,0.6-26.3C82.7,47.5,75.5,45,75.2,44.9z M8.8,10.1l16.9-4.2l0,0l0.3,0l5.2-0.1   c-0.3,0-0.7,0-0.3,0c0.9,0,2.1,0.3,3.2,1.5l-22.8,6.4c0-0.2,0-0.3,0-0.3l0-0.1C11,12.4,10.2,10.9,8.8,10.1z M20.4,52.2   C19.6,52.1,19,52,18.8,52c-0.5-0.2-2.5-1.4-2.8-5.4c-0.2-1.9-0.8-6.7-1.6-12l22.4-8.5c0.3,3.3,0.5,6.8,0.7,10.2   c0,0.1,0.1,1.6,0.7,3.1c0.6,1.7,1.6,2.8,3,3.4L20.4,52.2z M57.3,100.1c-1.4,0.8-2.8,0.9-3.2,0.9c-2.4-0.5-35.6-7-39.9-8.4   c-1-0.3-1.3-0.6-1.4-0.7c0.1-0.2,0.6-0.6,0.9-0.8l0,0c0.5-0.3,12.5-7.1,16.2-9.7c1.3-0.9,3-1.3,5.1-1.3c1.9,0,3.4,0.4,3.5,0.4   l0.1,0c0.1,0,11.7,2,21.7,4.2c0,3.6,0,7,0,9.3C60.4,96.9,59.3,99,57.3,100.1z M79.9,80.7c0,0.1-0.1,1.3-0.8,2.4   c-1,1.5-2.5,2.3-4.7,2.3c-1.1,0-2.3-0.2-3.6-0.6c-2.1-0.6-4.9-1.2-8.2-2v0c0-8.5-0.1-17.6-0.1-17.6l0-0.1l0-0.1   c-0.1-0.2-1-4.1-4.8-6.6L76.5,48c1.8,1.1,4,3.1,4,6.4C80.5,60.5,80,79.8,79.9,80.7z"></path>
</g>
<g id="Layer_14">
	<g>
		<path d="M78.2,59.6c16.4-5.6,21.3-7.3,23.2-11.7c2-4.4,0.5-11.5,2-21.5c1.4-9.7,6.5-17.2,3.1-21.6C102.8,0.2,91.7-2.3,86,7.2    c-4.3,7.2-9.2,24.4-12.5,27.5c-3.9,3.7-8.7,4.9-19.3,7.2c-10.6,2.3-15.5,9-8.8,13.9C52.2,60.7,61.8,65.2,78.2,59.6z"></path>
		<path d="M90.5,56.2c-0.5,0.2-1,0.4-1.6,0.6L88,57.2c0,0,0.1,0.2,0.3,0.7L85,60c-0.4-0.6-0.8-1.1-1-1.5c-0.1,0-0.2,0.1-0.3,0.1    l-0.1,0.1c0.4,0.5,0.7,1,1.1,1.5l-2.2,1.4l-0.3-2.5c-0.8,0.3-1.7,0.6-2.6,0.9l0.4,1.9l-3.1-1c-0.3,0.1-0.5,0.2-0.8,0.2l4.1,1.3    l1,5.4l-0.4,0.5c-3.2-1.5-6.4-3.1-9.2-4.6c0-0.7,0.1-1.2,0.1-1.6c-1.1,0.3-2.4,0.4-2.7,0.4c0,0-0.1,0-0.1,0c0,0,0,0.6-0.1,1.6    l-3.8,2l-0.9-3.3c-0.2,0-0.3,0-0.5,0l0.9,3.5l-7,3.7l5-7.3c-0.2,0-0.4,0-0.6,0l-5,7.4c1.1-3.6,2.1-6.6,2.4-7.6    c-0.9-0.1-1.8-0.3-2.6-0.5c-0.7,2.6-5.9,22.4-6.7,25.9c-0.1,0.3,0.1,0.5,0.4,0.5c0.3,0,0.6,0,0.8-0.1c0.1,0,0.3-0.2,0.3-0.3    c0.4-1.5,3.1-10.3,5.2-17.2l0.2,0.2l7.8-4.1l3.4,12.9c-0.5,11.9-1.1,26-1.2,28.7c0,0.2,0.1,0.4,0.3,0.4c0.5,0.1,0.9,0.1,1.1,0    c0.2,0,0.3-0.2,0.3-0.4c0.1-2.1,1-14.6,1.7-26.2l10.4-13.3c0.3,0.1,0.3,0.1,0.6,0.2l1.3,7c0,0.1,0,0.1,0.1,0.2    c0.1,0.2,0.3,0.4,0.7,0.5c0.4,0.1,0.6-0.1,0.8-0.3c0.1-0.2,0.2-0.4,0.2-0.6l-0.7-5.6c6.4,3.1,11.4,5.4,11.9,5.2    c3.2,8.1,6.5,16.3,7.3,18.2c0.1,0.2,0.3,0.4,0.6,0.4c0.4,0,0.7,0,0.9-0.1c0.4-0.1,0.5-0.5,0.4-0.8L90.5,56.2z M67.8,78.4l-3-11.5    l3.6-1.9C68.3,67.7,68.1,72.7,67.8,78.4z M70.1,81.7c0.5-7.1,0.9-13.8,1.1-17.2c3,1.5,6,3,9,4.4L70.1,81.7z M80.9,68.8l0.1-0.1    l0,0.2C81,68.8,81,68.8,80.9,68.8z M94.7,73.9c-1.7-2.7-5.6-8.1-8.3-12l2.3-3C89.8,61.7,92.2,67.6,94.7,73.9z M88.4,58.5l-2.3,3    c-0.3-0.4-0.5-0.7-0.7-1L88.4,58.5z M82.4,62.2l2.4-1.6c0.3,0.4,0.6,0.8,0.8,1.2l-2.9,3.7L82.4,62.2z M83.5,70L83,66.2l3.1-3.9    c3.9,5.4,8.2,11.6,8.9,13C93.7,74.9,88.9,72.6,83.5,70z"></path>
	</g>
</g>
</svg>
