<?xml version="1.0" encoding="UTF-8"?>
<!-- Generator: Adobe Illustrator 19.0.0, SVG Export Plug-In . SVG Version: 6.00 Build 0)  -->
<svg xmlns="http://www.w3.org/2000/svg" xmlns:xlink="http://www.w3.org/1999/xlink" version="1.1" id="Layer_3" x="0px" y="0px" viewBox="0 0 150 110" style="enable-background:new 0 0 150 110;" xml:space="preserve">
<style type="text/css">
	.st0{fill:url(#SVGID_1_);}
</style>
<radialGradient id="SVGID_1_" cx="75" cy="55" r="42.7088" gradientUnits="userSpaceOnUse">
	<stop offset="0.5744" style="stop-color:#130C0E"></stop>
	<stop offset="0.7977" style="stop-color:#130C0E"></stop>
	<stop offset="1" style="stop-color:#130C0E"></stop>
</radialGradient>
<path class="st0" d="M75,32c-30.8,0-55.8,10.3-55.8,23c0,12.7,25,23,55.8,23c30.8,0,55.8-10.3,55.8-23C130.8,42.3,105.8,32,75,32z   M108.3,46.7c0,5.7-15.3,10.6-33.3,10.6c-18.1,0-33.3-4.9-33.3-10.6c0-5.7,15.3-10.6,33.3-10.6C93.1,36.1,108.3,40.9,108.3,46.7z   M75,66.8c-22.1,0-40-7.1-40-15.8c0-5.1,6.1-9.6,15.6-12.5c-6.2,2.1-9.9,4.9-9.9,8.2c0,6.4,15,11.5,34.2,11.5  c19.2,0,34.2-5.1,34.2-11.5c0-3.2-3.8-6.1-9.9-8.2c9.5,2.9,15.6,7.4,15.6,12.5C115,59.7,97.1,66.8,75,66.8z M75,35.3  c-9.2,0-17.6,1.2-24.3,3.3C56.8,36.5,65.4,35.2,75,35.3c9.6-0.1,18.2,1.2,24.3,3.3C92.6,36.5,84.2,35.3,75,35.3z"></path>
</svg>
