<?xml version="1.0" encoding="UTF-8"?>
<!-- Generator: Adobe Illustrator 19.0.0, SVG Export Plug-In . SVG Version: 6.00 Build 0)  -->
<svg xmlns="http://www.w3.org/2000/svg" xmlns:xlink="http://www.w3.org/1999/xlink" version="1.1" id="Layer_1" x="0px" y="0px" viewBox="0 0 150 110" style="enable-background:new 0 0 150 110;" xml:space="preserve">
<path d="M75,24.2c-0.3,0-0.7,0-1,0v-1c0.2,0,0.4,0,0.6,0c0.2,0,0.3,0,0.4,0c0.1,0,0.3,0,0.4,0h0c0.2,0,0.3,0,0.6,0v1  C75.7,24.2,75.3,24.2,75,24.2z M65.9,59.8v-2.1c-0.7-0.1-1.4-0.1-2-0.2v1.9C64.5,59.5,65.2,59.7,65.9,59.8z M86.1,59.4v-1.9  c-0.6,0.1-1.3,0.2-2,0.2v2.1C84.8,59.7,85.5,59.5,86.1,59.4z M50.6,96.9l-3.5,0v3.7h3.5V96.9z M99.4,96.9L99.4,96.9l0,3.7h3.5v-3.7  H99.4z M73.3,101.4h3.5v-4h-3.5V101.4z M76.2,73.5V73c-0.7,0-1.1,0-1.2,0c-0.1,0-0.5,0-1.2,0v0.5H76.2z M72.5,74.3v1.8h5v-1.8H72.5z   M71.7,77v10.7l0.7-0.2c0,0,0.1,0,0.1,0h0.1h5h0.1c0,0,0.1,0,0.1,0l0.7,0.2V77H71.7z M75,72.2c0.1,0,14.4-0.1,17.6-4.3  c2.2-2.9,2.1-5.3,1.9-6.4c-0.3-1.1-0.9-2.1-1.7-2.5C92,58.7,90.9,59,89,59.5c-2.8,0.8-7.1,1.9-14,1.9c-6.9,0-11.2-1.2-14-1.9  c-1.3-0.4-2.3-0.6-3-0.6c-0.3,0-0.6,0.1-0.8,0.2c-0.8,0.4-1.5,1.4-1.7,2.5c-0.3,1.1-0.4,3.5,1.9,6.4C60.6,72.1,74.9,72.2,75,72.2z   M53.4,50.9c-0.1,0-0.4,0-0.9,0v13.9c0,0.5,0.4,0.9,0.9,0.9c0.5,0,0.9-0.4,0.9-0.9V50.8C53.8,50.9,53.5,50.9,53.4,50.9z M53.4,50.1  c0.7,0,1.6-0.1,2.3-0.4c-0.1-0.7-0.3-1.5-0.4-2.2c-0.6,0-1.3-0.1-2-0.1c-1.3,0-2.9,0.1-3.1,0.2c-0.2,0.1-0.4,0.8,0.1,1.6  C50.8,49.9,52.6,50.1,53.4,50.1z M96.6,50.9c-0.1,0-0.4,0-0.9,0v13.9c0,0.5,0.4,0.9,0.9,0.9c0.5,0,0.9-0.4,0.9-0.9V50.8  C97.1,50.9,96.7,50.9,96.6,50.9z M94.7,47.5c-0.1,0.8-0.2,1.5-0.4,2.2c0.7,0.3,1.7,0.4,2.3,0.4c1,0,2.6-0.2,3-0.8  c0.5-0.8,0.3-1.5,0.1-1.6c-0.2-0.1-1.8-0.2-3.1-0.2C96,47.4,95.3,47.4,94.7,47.5z M70,88.9l-23,5.3v1.9h3.7l20.6-2L70,88.9z   M99.4,96.1l3.6,0v-1.9l-23-5.3l-1.2,5.2L99.4,96.1z M79.2,89.1l-2-0.3h-4.3l-2,0.3l1.7,7h5L79.2,89.1z M74.6,22.5  c0.1,0,0.2,0,0.3,0c0.1,0,0.1,0,0.2,0h0c0.1,0,0.1,0,0.2,0c0,0,0.1,0,0.3,0c1.7,0,9.1-0.8,11.1-3.1c0.4-0.4,0.5-0.8,0.5-1.3  c0,0,0,0,0-0.1c0-2,0.8-3.8,1.5-5.1c0.5-1,0.9-1.9,0.6-2.3c0,0,0,0,0,0c-0.7-0.9-10.6-1.9-13.6-1.9c-0.2,0-0.3,0-0.3,0  c-0.1,0-0.2,0-0.3,0c0,0-0.1,0-0.3,0c-3,0-13,1-13.6,1.9c-0.2,0.4,0.2,1.3,0.6,2.4c0.6,1.4,1.4,3.1,1.5,5.1c0,0,0,0,0,0.1  c0,0.4,0.1,0.9,0.5,1.3C65.5,21.7,72.9,22.5,74.6,22.5z M59,55c2.9,1.9,5.9,2.2,15.4,2.2l0.6,0l0.6,0c9.4,0,12.4-0.3,15.4-2.2  c3.7-2.4,3.9-17.7,2.4-23.9c-1.9-5.6-9-6.1-16.6-6.1c-0.6,0-1.1,0-1.7,0c-0.6,0-1.2,0-1.8,0c-7.7,0-14.7,0.5-16.6,6.1  C55.1,37.3,55.3,52.6,59,55z"></path>
</svg>
