<?xml version="1.0" encoding="UTF-8"?>
<!-- Generator: Adobe Illustrator 19.0.0, SVG Export Plug-In . SVG Version: 6.00 Build 0)  -->
<svg xmlns="http://www.w3.org/2000/svg" xmlns:xlink="http://www.w3.org/1999/xlink" version="1.1" id="Layer_3" x="0px" y="0px" viewBox="0 0 150 110" style="enable-background:new 0 0 150 110;" xml:space="preserve">
<style type="text/css">
	.st0{fill:url(#SVGID_1_);}
</style>
<radialGradient id="SVGID_1_" cx="75" cy="55" r="51.7723" gradientUnits="userSpaceOnUse">
	<stop offset="0.5744" style="stop-color:#130C0E"></stop>
	<stop offset="0.7977" style="stop-color:#130C0E"></stop>
	<stop offset="1" style="stop-color:#130C0E"></stop>
</radialGradient>
<path class="st0" d="M42.5,66.2l8.9,30.4H33H14.7l8.9-30.4H33H42.5z M32.2,18.2v46.9h1.7V18.2c3.6-0.1,6.4-1.1,6.4-2.4  c0-1.3-3.3-2.4-7.3-2.4c-4,0-7.3,1.1-7.3,2.4C25.8,17,28.6,18.1,32.2,18.2z M126.4,34.7H117h-9.4l-8.9,30.4H117h18.3L126.4,34.7z   M116.1,18.2v15.1h1.7V18.2c3.6-0.1,6.4-1.1,6.4-2.4c0-1.3-3.3-2.4-7.3-2.4c-4,0-7.3,1.1-7.3,2.4C109.7,17,112.5,18.1,116.1,18.2z   M73.4,49.9H64L55,80.3h18.3h18.3l-8.9-30.4H73.4z M72.5,18.2v30.7h1.7V18.2c3.6-0.1,6.4-1.1,6.4-2.4c0-1.3-3.3-2.4-7.3-2.4  c-4,0-7.3,1.1-7.3,2.4C66.1,17,68.9,18.1,72.5,18.2z"></path>
</svg>
