<?xml version="1.0" encoding="UTF-8"?>
<svg xmlns="http://www.w3.org/2000/svg" viewBox="0 0 150 110">
  <title>sofas</title>
  <path d="M17.19,51.53l.44,0c6.9-.55,11.86-.68,20.09-.89l.82,0c.84,0,1.76,0,2.77,0,9.95,0,26.16,1,30.42,1.83,1.65.33,2.39.67,2.71,1.27-6.42.34-27.46.67-44,.67-11,0-18.29-.14-20.67-.4C10.33,52.08,12.1,51.94,17.19,51.53ZM9.47,55.25v0c0,.16,0,.32,0,.5s0,.38,0,.59v0h0l0,.64C9.31,60,9.21,63.28,11,65.11a4.74,4.74,0,0,0,2.63,1.31h60a1.9,1.9,0,0,0,.86-.35.11.11,0,0,0,0-.08c0-1.1,0-2,0-2.76,0-1.26,0-2.12,0-2.82,0-.48,0-.88,0-1.3v-.64c0-.23,0-.46,0-.72,0-1.1,0-2.25,0-3.1v-.47c-6.3.35-27.51.68-44.19.68-11.08,0-18.43-.15-20.8-.41A6.26,6.26,0,0,0,9.47,55.25Zm68.71-3.42C82.47,51,98.73,50,108.7,50c1,0,1.94,0,2.78,0l.83,0c4.08.1,7.35.19,10.46.32-.18-5.85-.61-20.25-.61-22.62,0-1.48-.72-2-2.83-2-.62,0-1.33,0-2.08.09s-1.4.08-2.17.1c-4.59.12-15.61.34-19.84.34-2.24,0-5.33-.14-8.31-.28-2.66-.12-5.17-.24-6.8-.24-3.82,0-4.36,1.58-4.43,2.77-.27,4.6-.17,20.06-.14,24.26A6,6,0,0,1,78.18,51.83Zm61.61,20.89V68.2a1.15,1.15,0,0,0-1-1.23h-1.84a10,10,0,0,1-1.82.18h-.44c-3.89,0-8.42,0-13.21.07-5.21,0-10.6.09-15.63.09-2.83,0-5.26,0-7.44,0-3,0-6.1,0-9.11,0-2.06,0-4,.06-5.85.06A40,40,0,0,1,76.3,67H73.72a40,40,0,0,1-7.11.39h0c-1.8,0-3.79,0-5.85-.06-3,0-6.16-.08-9.11,0-2.17,0-4.61,0-7.44,0-5,0-10.42,0-15.63-.09-4.8,0-9.33-.07-13.23-.07A10.32,10.32,0,0,1,13,67H11.82a1.15,1.15,0,0,0-1,1.23v4.52a1.15,1.15,0,0,0,1,1.23H138.75A1.15,1.15,0,0,0,139.79,72.72ZM37.7,50.05l.83,0c.84,0,1.77,0,2.78,0,10,0,26.24,1,30.53,1.84a6.13,6.13,0,0,1,2.6,1c0-4.22.13-19.64-.14-24.24-.07-1.19-.6-2.77-4.43-2.77-1.63,0-4.14.12-6.8.24-3,.14-6.07.28-8.31.28-4.17,0-15.37-.22-19.84-.34-.77,0-1.49-.06-2.17-.1s-1.46-.09-2.08-.09c-2.11,0-2.83.5-2.83,2,0,2.37-.43,16.77-.61,22.62C30.34,50.24,33.62,50.15,37.7,50.05ZM10.23,72.72V68.2a1.83,1.83,0,0,1,.7-1.46c0-.2,0-.41,0-.62a3.69,3.69,0,0,1-.68-.56c-1.74-1.82-1.59-4.93-1.46-7.68,0-.51,0-1,.06-1.49,0-.29,0-.56,0-.81a.62.62,0,0,1,0-.13A4.54,4.54,0,0,1,9,54.88a1.1,1.1,0,0,1,0-.18c0-.11,0-.22.06-.31a3,3,0,0,1,2.24-2.61c0-.28,0-.56.05-.81A3.07,3.07,0,0,1,13,48.41c2.61-1.16,9.35-1.69,13.77-1.93,0-1,.06-2.1.09-3.23-1.77.17-11.74,1.16-15.14,2.08a4.68,4.68,0,0,0-2.9,2.4,7.61,7.61,0,0,0-.61,2.65c-.77,10.58,0,34.39,0,34.39h2.59c0-1.93,0-6,0-10.63A1.85,1.85,0,0,1,10.23,72.72ZM141.76,50.38a7.61,7.61,0,0,0-.61-2.65,4.68,4.68,0,0,0-2.9-2.4c-3.4-.92-13.37-1.91-15.14-2.08,0,1.13.06,2.22.09,3.23,4.42.24,11.16.77,13.77,1.93A3.07,3.07,0,0,1,138.66,51c0,.25,0,.53,0,.81A3,3,0,0,1,141,54.37c0,.12.05.25.07.39s0,.06,0,.08c0,.21.05.43.07.69v0c0,.25,0,.52,0,.83,0,.48,0,1,.06,1.49.13,2.75.28,5.86-1.46,7.68a3.64,3.64,0,0,1-.68.55v.35a1.73,1.73,0,0,1,1.26,1.74v4.52a1.75,1.75,0,0,1-1.2,1.72c0,4.55,0,8.44,0,10.33h2.59S142.53,61,141.76,50.38ZM140.61,57l0-.64c0-.22,0-.43,0-.63s0-.31,0-.45v-.08a5.81,5.81,0,0,0-.12-.79c-2.37.26-9.71.41-20.79.41-16.68,0-37.88-.33-44.18-.68v.47c0,.85,0,2,0,3.1s0,1.71,0,2.65c0,1.12,0,2.66,0,5.59,0,0,0,0,0,.08a1.85,1.85,0,0,0,.85.35h60A4.74,4.74,0,0,0,139,65.11C140.79,63.28,140.69,60,140.61,57Zm-7.79-5.51-.45,0c-6.89-.55-11.85-.68-20.07-.89l-.83,0c-.83,0-1.76,0-2.77,0-10,0-26.15,1-30.41,1.83-1.65.33-2.39.67-2.71,1.27,6.42.34,27.46.67,44,.67,11,0,18.28-.14,20.66-.4C139.67,52.08,137.9,51.94,132.82,51.53Z" fill="#131313"></path>
</svg>
