<?xml version="1.0" encoding="UTF-8"?>
<!-- Generator: Adobe Illustrator 19.0.0, SVG Export Plug-In . SVG Version: 6.00 Build 0)  -->
<svg xmlns="http://www.w3.org/2000/svg" xmlns:xlink="http://www.w3.org/1999/xlink" version="1.1" id="Layer_1" x="0px" y="0px" viewBox="0 0 150 110" style="enable-background:new 0 0 150 110;" xml:space="preserve">
<path d="M74.2,62.5H28.7v12.7h45.4V62.5z M73,64.5v8.8v0.8h-0.8H30.8h-0.8v-0.8v-8.8v-0.8h0.8h41.4H73V64.5z M75,75.2h46.3V62.5H75  V75.2z M77,73.3v-8.8v-0.8h0.8h41.4h0.8v0.8v8.8v0.8h-0.8H77.9H77V73.3z M129.8,62.5v12.7v23.1h-7.6v-6.1H27.9v6.1h-7.6V75.2V62.5  h7.6v12.7v11.2h94.3V75.2V62.5H129.8z M30.8,73.3h41.4v-8.8H30.8V73.3z M44.3,68.2h14.4c0.4,0,0.6,0.3,0.6,0.6  c0,0.4-0.3,0.6-0.6,0.6H44.3c-0.4,0-0.6-0.3-0.6-0.6C43.7,68.5,43.9,68.2,44.3,68.2z M119.2,64.5H77.9v8.8h41.4V64.5z M105.7,69.4  H91.3c-0.4,0-0.6-0.3-0.6-0.6c0-0.4,0.3-0.6,0.6-0.6h14.4c0.4,0,0.6,0.3,0.6,0.6C106.3,69.2,106.1,69.4,105.7,69.4z M39.5,57.3h29.4  v2.6h-5.3v2.3h22.9v-2.3h-5.3v-2.6h29.4c1,0,1.8-0.8,1.8-1.8v-42c0-1-0.8-1.8-1.8-1.8h-71c-1,0-1.8,0.8-1.8,1.8v42  C37.7,56.5,38.5,57.3,39.5,57.3z M39.5,13.5h71v42h-71V13.5z"></path>
</svg>
