<?xml version="1.0" encoding="UTF-8"?>
<!-- Generator: Adobe Illustrator 19.0.0, SVG Export Plug-In . SVG Version: 6.00 Build 0)  -->
<svg xmlns="http://www.w3.org/2000/svg" xmlns:xlink="http://www.w3.org/1999/xlink" version="1.1" id="Layer_3" x="0px" y="0px" viewBox="0 0 150 110" style="enable-background:new 0 0 150 110;" xml:space="preserve">
<path d="M103.1,28.5c2.1-4.8,3.2-7.9,2.7-8.1c-0.6-0.3-4.2,5.2-8.8,13.4l2.8-11.2L98,23.1c-4.3,1.2-6,6.1-4,9.6L93.2,33  c-4.3,1.2-6.1,6.1-4.2,9.7c-5.2,1.8-6.8,8.4-3.1,12.4c-0.8,1.6-1.5,3.1-2.1,4.5h-9c0.5-4.5,0.9-12.7,0.9-22.3  c3.9,3.6,10.3,1.7,11.6-3.5l0.3-1.2l-11.8,3.5c0-0.6,0-1.2,0-1.8c0-2.9,0-5.7-0.1-8.3l1.2,1.1c3.4,3.2,9,1.5,10.1-3l0.6-2.7L75.6,25  c-0.1-4-0.2-7.6-0.4-10.5l1,0.9c3.7,3.5,9.8,1.7,10.9-3.3l0.5-1.9l-12.4,3.7c-0.3-5.2-0.8-8.5-1.3-8.5c-0.7,0-1.4,6.5-1.7,16  l-2.7-11.2l-1.3,1.2c-3.2,3.1-2.6,8.1,0.8,10.4l-0.6,0.6c-3.3,3.1-2.6,8.2,0.7,10.6c-3.7,4-2.2,10.5,3,12.5c0.2,6,0.4,11,0.8,14.2  h-6.7c-0.7-1.4-1.4-2.9-2.1-4.5c3.7-4,2.1-10.6-3.1-12.4c1.9-3.7,0.1-8.5-4.2-9.7L56,32.8c2-3.6,0.3-8.4-4-9.6l-1.7-0.5L53,33.8  c-4.6-8.3-8.2-13.8-8.8-13.4c-0.5,0.2,0.6,3.3,2.7,8.1l-12.7,2.4l1.3,1.5c3.3,3.9,9.5,2.7,11.2-2.1l0.4-1.3c1.2,2.7,2.7,6,4.5,9.6  l-12.3,2.3l1.8,2.1c3.1,3.6,8.8,2.5,10.4-1.9l0.5-1.5c1.2,2.4,2.4,4.9,3.8,7.5c0.3,0.5,0.5,1,0.8,1.6l-12.2,2.3l0.8,0.9  c3.5,4.1,10.1,2.9,11.9-2.2c1.9,3.7,3.8,7.1,5.5,10.1h-5.9L66,78.2c0.4,1.7,0.1,3.5-0.9,4.9c-1.4,2-2.3,0.7-2.3,3.3  c0,4.1,2,13.3,5.1,15.5l-2.1,2.7h18.2l-2.1-2.7c3.1-2.2,5.1-11.4,5.1-15.5c0-2.6-0.8-1.3-2.3-3.3c-1-1.4-1.3-3.2-0.9-4.9l9.2-18.5  h-5.9c1.7-3,3.5-6.4,5.5-10.1c1.8,5,8.4,6.2,11.9,2.2l0.8-0.9l-12.2-2.3c0.3-0.5,0.5-1,0.8-1.6c1.3-2.6,2.6-5.1,3.8-7.5l0.5,1.5  c1.6,4.4,7.3,5.5,10.4,1.9l1.8-2.1l-12.3-2.3c1.7-3.6,3.3-6.8,4.5-9.6l0.4,1.3c1.7,4.8,7.9,6,11.2,2.1l1.3-1.5L103.1,28.5z   M70.9,22.7l1.2,0.4c-0.1,2.7-0.1,5.7-0.1,8.8l-2.3-9.6C70.1,22.4,70.5,22.6,70.9,22.7z M69.7,33.3c0.5,0.3,1,0.5,1.5,0.7l0.8,0.2  c0,0.1,0,0.1,0,0.2c0,3.1,0,6.2,0.1,9L69.7,33.3z M53.8,35.3l0.9-0.9c0.3-0.3,0.6-0.7,0.8-1L58,43C56.6,40.3,55.2,37.7,53.8,35.3z   M59.1,45.1l0.6-0.6c0.4-0.4,0.7-0.8,1-1.3l2.5,10c-1.2-2.5-2.6-5.2-4-8C59.1,45.2,59.1,45.2,59.1,45.1z M86.8,53.3l2.5-10  c0.3,0.4,0.6,0.9,1,1.3l0.6,0.6c0,0.1-0.1,0.1-0.1,0.2C89.4,48.1,88,50.8,86.8,53.3z M92,43l2.4-9.6c0.2,0.4,0.5,0.7,0.8,1l0.9,0.9  C94.8,37.7,93.4,40.3,92,43z"></path>
</svg>
